                                                                        S      1
,,16H2026_rearwing v1,16H2026_rearwing v1,7Hunknown,7Hunknown,32,38,7,  G      1
99,15,,1.,2,2HMM,1,0.08,15H20240609.004054,0.01,10000.,7Hunknown,7HunknoG      2
wn,11,0,15H20240608.153630;                                             G      3
     186       1                                                00000000D      1
     186            -119       1       0                               0D      2
     514       2                                                00010000D      3
     514                       1       1                               0D      4
     510       3                                                00010000D      5
     510            -119       1       1                               0D      6
     510       4                                                00010000D      7
     510            -119       1       1                               0D      8
     510       5                                                00010000D      9
     510            -119       1       1                               0D     10
     510       6                                                00010000D     11
     510            -119       1       1                               0D     12
     510       7                                                00010000D     13
     510            -119       1       1                               0D     14
     510       8                                                00010000D     15
     510            -119       1       1                               0D     16
     510       9                                                00010000D     17
     510            -119       1       1                               0D     18
     510      10                                                00010000D     19
     510            -119       1       1                               0D     20
     510      11                                                00010000D     21
     510            -119       1       1                               0D     22
     510      12                                                00010000D     23
     510            -119       1       1                               0D     24
     508      13                                                00010000D     25
     508                       2       1                               0D     26
     508      15                                                00010000D     27
     508                       1       1                               0D     28
     508      16                                                00010000D     29
     508                       1       1                               0D     30
     508      17                                                00010000D     31
     508                       1       1                               0D     32
     508      18                                                00010000D     33
     508                       1       1                               0D     34
     508      19                                                00010000D     35
     508                       1       1                               0D     36
     508      20                                                00010000D     37
     508                       1       1                               0D     38
     508      21                                                00010000D     39
     508                       1       1                               0D     40
     508      22                                                00010000D     41
     508                       1       1                               0D     42
     508      23                                                00010000D     43
     508                       2       1                               0D     44
     126      25                                                00010000D     45
     126       0               7       0                               0D     46
     126      32                                                00010000D     47
     126       0               3       0                               0D     48
     126      35                                                00010000D     49
     126       0              13       0                               0D     50
     126      48                                                00010000D     51
     126       0               7       0                               0D     52
     126      55                                                00010000D     53
     126       0               5       0                               0D     54
     126      60                                                00010000D     55
     126       0               7       0                               0D     56
     126      67                                                00010000D     57
     126       0              15       0                               0D     58
     126      82                                                00010000D     59
     126       0              13       0                               0D     60
     126      95                                                00010000D     61
     126       0               3       0                               0D     62
     126      98                                                00010000D     63
     126       0               3       0                               0D     64
     126     101                                                00010000D     65
     126       0               3       0                               0D     66
     126     104                                                00010000D     67
     126       0              13       0                               0D     68
     126     117                                                00010000D     69
     126       0               3       0                               0D     70
     126     120                                                00010000D     71
     126       0               7       0                               0D     72
     126     127                                                00010000D     73
     126       0               3       0                               0D     74
     126     130                                                00010000D     75
     126       0               5       0                               0D     76
     126     135                                                00010000D     77
     126       0               3       0                               0D     78
     126     138                                                00010000D     79
     126       0               7       0                               0D     80
     126     145                                                00010000D     81
     126       0               3       0                               0D     82
     126     148                                                00010000D     83
     126       0              15       0                               0D     84
     126     163                                                00010000D     85
     126       0               3       0                               0D     86
     126     166                                                00010000D     87
     126       0              13       0                               0D     88
     126     179                                                00010000D     89
     126       0               2       0                               0D     90
     126     181                                                00010000D     91
     126       0               7       0                               0D     92
     128     188                                                00010000D     93
     128       0    -119       7       0                               0D     94
     128     195                                                00010000D     95
     128       0    -119       6       0                               0D     96
     128     201                                                00010000D     97
     128       0    -119      24       0                               0D     98
     128     225                                                00010000D     99
     128       0    -119      14       0                               0D    100
     128     239                                                00010000D    101
     128       0    -119      10       0                               0D    102
     128     249                                                00010000D    103
     128       0    -119      13       0                               0D    104
     128     262                                                00010000D    105
     128       0    -119      26       0                               0D    106
     128     288                                                00010000D    107
     128       0    -119      24       0                               0D    108
     128     312                                                00010000D    109
     128       0    -119      12       0                               0D    110
     128     324                                                00010000D    111
     128       0    -119       7       0                               0D    112
     502     331                                                00010000D    113
     502                      11       1                               0D    114
     504     342                                                00010001D    115
     504                       7       1                               0D    116
     406     349                                                00000000D    117
     406                       1      15                               0D    118
     314     350                                                00000200D    119
     314                       2       0                               0D    120
186,3,1,0,0,1,117;                                                     1P      1
514,10,5,1,7,1,9,1,11,1,13,1,15,1,17,1,19,1,21,1,23,1;                 3P      2
510,93,1,1,25;                                                         5P      3
510,95,1,1,27;                                                         7P      4
510,97,1,1,29;                                                         9P      5
510,99,1,1,31;                                                        11P      6
510,101,1,1,33;                                                       13P      7
510,103,1,1,35;                                                       15P      8
510,105,1,1,37;                                                       17P      9
510,107,1,1,39;                                                       19P     10
510,109,1,1,41;                                                       21P     11
510,111,1,1,43;                                                       23P     12
508,8,0,115,1,1,0,0,115,2,1,0,0,115,3,1,0,0,115,4,1,0,0,115,5,1,      25P     13
0,0,115,6,1,0,0,115,7,1,0,0,115,8,1,0;                                25P     14
508,4,0,115,9,0,0,0,115,10,0,0,0,115,11,0,0,0,115,2,0,0;              27P     15
508,4,0,115,11,1,0,0,115,12,0,0,0,115,13,0,0,0,115,3,0,0;             29P     16
508,4,0,115,13,1,0,0,115,14,0,0,0,115,15,0,0,0,115,4,0,0;             31P     17
508,4,0,115,15,1,0,0,115,16,0,0,0,115,17,0,0,0,115,5,0,0;             33P     18
508,4,0,115,17,1,0,0,115,18,0,0,0,115,19,0,0,0,115,6,0,0;             35P     19
508,4,0,115,19,1,0,0,115,20,0,0,0,115,21,0,0,0,115,7,0,0;             37P     20
508,4,0,115,21,1,0,0,115,22,0,0,0,115,23,0,0,0,115,8,0,0;             39P     21
508,4,0,115,23,1,0,0,115,24,0,0,0,115,9,1,0,0,115,1,0,0;              41P     22
508,8,0,115,24,1,0,0,115,22,1,0,0,115,20,1,0,0,115,18,1,0,0,115,      43P     23
16,1,0,0,115,14,1,0,0,115,12,1,0,0,115,10,1,0;                        43P     24
126,4,2,0,0,0,0,-3.14159265358979,-3.14159265358979,                  45P     25
-3.14159265358979,-1.5707963267949,-1.5707963267949,0.,0.,0.,1.,      45P     26
0.707106781186549,1.,0.707106781186549,1.,249.999999923534,           45P     27
-175.000000574343,-960.,224.999999464014,-175.00000053611,-960.,      45P     28
224.999999502246,-150.00000007659,-960.,224.999999540479,             45P     29
-124.999999617069,-960.,249.999999999999,-124.999999655301,           45P     30
-960.,-3.14159265358979,0.,0.,0.,0.;                                  45P     31
126,1,1,0,0,1,0,0.,0.,1.36937834430554,1.36937834430554,1.,1.,        47P     32
249.999999999999,-124.999999655301,-960.,263.693783443055,            47P     33
-124.999999637536,-960.,0.,1.36937834430554,0.,0.,0.;                 47P     34
126,14,5,0,0,0,0,0.,0.,0.,0.,0.,0.,0.1,0.2,0.3,0.4,0.5,0.6,0.7,       49P     35
0.8,0.9,1.,1.,1.,1.,1.,1.,1.,1.,1.,1.,1.,1.,1.,1.,1.,1.,1.,1.,        49P     36
1.,1.,1.,263.693783443055,-124.999999637536,-960.,                    49P     37
270.975927558699,-125.469508984495,-960.,285.492235544458,            49P     38
-126.325602070505,-960.,307.122764657417,-127.360978479301,           49P     39
-960.,335.670800404407,-128.235651019289,-960.,370.834221059246,      49P     40
-128.427454213367,-960.,405.426656305867,-127.632407266433,           49P     41
-960.,439.397040567561,-125.762252106094,-960.,472.70983961121,       49P     42
-122.75557391791,-960.,505.380102258665,-118.638382004036,-960.,      49P     43
537.451858092403,-113.486773930318,-960.,562.667452698731,            49P     44
-108.601894717118,-960.,581.346093235751,-104.535439073848,           49P     45
-960.,593.696616276539,-101.648345123491,-960.,599.846401817487,      49P     46
-100.160767296499,-960.,0.,1.,0.,0.,0.;                               49P     47
126,4,2,0,0,0,0,-1.63298568692026,-1.63298568692026,                  51P     48
-1.63298568692026,-0.816492843460128,-0.816492843460128,0.,0.,        51P     49
0.,1.,0.917818405024289,1.,0.917818405024435,1.,599.8464018272,       51P     50
-100.160767285142,-960.,597.316307076394,-97.9970151972862,           51P     51
-960.,597.160577113382,-94.671515125962,-960.,597.004847150369,       51P     52
-91.3460150546379,-960.,599.321659983955,-88.9552869563619,           51P     53
-960.,-1.63298568692026,0.,0.,0.,0.;                                  51P     54
126,2,2,0,0,0,0,0.,0.,0.,0.373780113901159,0.373780113901159,         53P     55
0.373780113901159,1.,0.982586825734421,1.,599.321659983955,           53P     56
-88.9552869563619,-960.,755.089461259594,33.2615557741463,-960.,      53P     57
855.476169616676,203.916392642284,-960.,0.,0.373780113901159,0.,      53P     58
0.,0.;                                                                53P     59
126,4,2,0,0,0,0,-2.81278259703153,-2.81278259703153,                  55P     60
-2.81278259703153,-1.40639129851576,-1.40639129851576,0.,0.,0.,       55P     61
1.,0.762779591666808,1.,0.762779591666866,1.,855.476169635532,        55P     62
203.916392631192,-960.,857.827923916488,207.914313785856,-960.,       55P     63
862.156837558252,206.248592188755,-960.,866.485751200016,             55P     64
204.582870591653,-960.,865.550983779153,200.039707417631,-960.,       55P     65
-2.81278259703153,0.,0.,0.,0.;                                        55P     66
126,14,5,0,0,0,0,-1.,-1.,-1.,-1.,-1.,-1.,-0.9,-0.8,-0.7,-0.6,         57P     67
-0.5,-0.4,-0.3,-0.2,-0.1,-0.0899133677013237,                         57P     68
-0.0899133677013237,-0.0899133677013237,-0.0899133677013237,          57P     69
-0.0899133677013237,-0.0899133677013237,1.,1.,1.,1.,1.,1.,1.,1.,      57P     70
1.,1.,1.,1.,1.,1.,1.,865.550983779153,200.039707417631,-960.,         57P     71
858.935095262474,189.199737483428,-960.,845.81399358816,              57P     72
167.875597069286,-960.,826.464358036249,136.956755499672,-960.,       57P     73
801.339878474582,97.9017362325191,-960.,771.15311091396,              57P     74
53.0012663270433,-960.,742.345446536951,12.5343411986772,-960.,       57P     75
715.132071362761,-22.8072585356482,-960.,689.755746395681,            57P     76
-52.2431041197282,-960.,666.443202011641,-75.0443021063104,           57P     77
-960.,649.128277346277,-87.9412270077891,-960.,637.075130170228,      57P     78
-94.3513818985004,-960.,629.372699764696,-97.2036473283081,           57P     79
-960.,625.462402097489,-98.2937608079634,-960.,625.105178199155,      57P     80
-98.3902497818293,-960.,-1.,-0.0899133677013237,0.,0.,0.;             57P     81
126,14,5,0,0,0,0,-1.,-1.,-1.,-1.,-1.,-1.,-0.9,-0.8,-0.7,-0.6,         59P     82
-0.5,-0.4,-0.3,-0.2,-0.1,0.,0.,0.,0.,0.,0.,1.,1.,1.,1.,1.,1.,1.,      59P     83
1.,1.,1.,1.,1.,1.,1.,1.,625.105178199152,-98.3902497818239,           59P     84
-960.,620.350547805557,-101.477194437548,-960.,610.583388830579,      59P     85
-107.505143428662,-960.,595.158935062777,-116.109234216801,           59P     86
-960.,573.020286018337,-126.691384293164,-960.,542.567405922334,      59P     87
-138.346159868015,-960.,509.151533730224,-148.324227206352,           59P     88
-960.,472.647344766405,-156.5546671464,-960.,433.161378665935,        59P     89
-163.097768706099,-960.,390.949905588004,-168.098550931323,           59P     90
-960.,346.291405522445,-171.714601043887,-960.,308.797912386621,      59P     91
-173.607698728926,-960.,279.752785411861,-174.504075756124,           59P     92
-960.,259.98499411367,-174.872832267949,-960.,250.,                   59P     93
-175.000000574343,-960.,-1.,0.,0.,0.,0.;                              59P     94
126,1,1,0,0,1,0,-96.,-96.,96.,96.,1.,1.,249.999999999999,             61P     95
-124.999999655301,960.,249.999999999999,-124.999999655301,-960.,      61P     96
-96.,96.,0.,0.,0.;                                                    61P     97
126,1,1,0,0,1,0,-1.36937834430554,-1.36937834430554,0.,0.,1.,1.,      63P     98
263.693783443055,-124.999999637536,960.,249.999999999999,             63P     99
-124.999999655301,960.,-1.36937834430554,0.,0.,0.,0.;                 63P    100
126,1,1,0,0,1,0,-96.,-96.,96.,96.,1.,1.,263.693783443055,             65P    101
-124.999999637536,-960.,263.693783443055,-124.999999637536,960.,      65P    102
-96.,96.,0.,0.,0.;                                                    65P    103
126,14,5,0,0,0,0,-1.,-1.,-1.,-1.,-1.,-1.,-0.9,-0.8,-0.7,-0.6,         67P    104
-0.5,-0.4,-0.3,-0.2,-0.1,0.,0.,0.,0.,0.,0.,1.,1.,1.,1.,1.,1.,1.,      67P    105
1.,1.,1.,1.,1.,1.,1.,1.,599.846401817487,-100.160767296499,960.,      67P    106
593.696616276539,-101.648345123491,960.,581.346093235751,             67P    107
-104.535439073848,960.,562.667452698731,-108.601894717118,960.,       67P    108
537.451858092403,-113.486773930318,960.,505.380102258665,             67P    109
-118.638382004036,960.,472.70983961121,-122.75557391791,960.,         67P    110
439.397040567561,-125.762252106094,960.,405.426656305867,             67P    111
-127.632407266433,960.,370.834221059246,-128.427454213367,960.,       67P    112
335.670800404407,-128.235651019289,960.,307.122764657417,             67P    113
-127.360978479301,960.,285.492235544458,-126.325602070505,960.,       67P    114
270.975927558699,-125.469508984495,960.,263.693783443055,             67P    115
-124.999999637536,960.,-1.,0.,0.,0.,0.;                               67P    116
126,1,1,0,0,1,0,-96.,-96.,96.,96.,1.,1.,599.8464018272,               69P    117
-100.160767285142,-960.,599.8464018272,-100.160767285142,960.,        69P    118
-96.,96.,0.,0.,0.;                                                    69P    119
126,4,2,0,0,0,0,0.,0.,0.,0.816492843460128,0.816492843460128,         71P    120
1.63298568692026,1.63298568692026,1.63298568692026,1.,                71P    121
0.917818405024435,1.,0.917818405024289,1.,599.321659983955,           71P    122
-88.9552869563619,960.,597.004847150369,-91.3460150546379,960.,       71P    123
597.160577113382,-94.671515125962,960.,597.316307076394,              71P    124
-97.9970151972862,960.,599.8464018272,-100.160767285142,960.,0.,      71P    125
1.63298568692026,0.,0.,0.;                                            71P    126
126,1,1,0,0,1,0,-96.,-96.,96.,96.,1.,1.,599.321659983955,             73P    127
-88.9552869563619,-960.,599.321659983955,-88.9552869563619,960.,      73P    128
-96.,96.,0.,0.,0.;                                                    73P    129
126,2,2,0,0,0,0,-0.373780113901159,-0.373780113901159,                75P    130
-0.373780113901159,0.,0.,0.,1.,0.982586825734421,1.,                  75P    131
855.476169616676,203.916392642284,960.,755.089461259594,              75P    132
33.2615557741463,960.,599.321659983955,-88.9552869563619,960.,        75P    133
-0.373780113901159,0.,0.,0.,0.;                                       75P    134
126,1,1,0,0,1,0,-96.,-96.,96.,96.,1.,1.,855.476169635532,             77P    135
203.916392631192,-960.,855.476169635532,203.916392631192,960.,        77P    136
-96.,96.,0.,0.,0.;                                                    77P    137
126,4,2,0,0,0,0,0.,0.,0.,1.40639129851576,1.40639129851576,           79P    138
2.81278259703153,2.81278259703153,2.81278259703153,1.,                79P    139
0.762779591666866,1.,0.762779591666808,1.,865.550983779153,           79P    140
200.039707417631,960.,866.485751200016,204.582870591653,960.,         79P    141
862.156837558252,206.248592188755,960.,857.827923916488,              79P    142
207.914313785856,960.,855.476169635532,203.916392631192,960.,0.,      79P    143
2.81278259703153,0.,0.,0.;                                            79P    144
126,1,1,0,0,1,0,-96.,-96.,96.,96.,1.,1.,865.550983779153,             81P    145
200.039707417631,-960.,865.550983779153,200.039707417631,960.,        81P    146
-96.,96.,0.,0.,0.;                                                    81P    147
126,14,5,0,0,0,0,0.0899133677013237,0.0899133677013237,               83P    148
0.0899133677013237,0.0899133677013237,0.0899133677013237,             83P    149
0.0899133677013237,0.1,0.2,0.3,0.4,0.5,0.6,0.7,0.8,0.9,1.,1.,1.,      83P    150
1.,1.,1.,1.,1.,1.,1.,1.,1.,1.,1.,1.,1.,1.,1.,1.,1.,1.,                83P    151
625.105178199155,-98.3902497818293,960.,625.462402097489,             83P    152
-98.2937608079634,960.,629.372699764696,-97.2036473283081,960.,       83P    153
637.075130170228,-94.3513818985004,960.,649.128277346277,             83P    154
-87.9412270077891,960.,666.443202011641,-75.0443021063104,960.,       83P    155
689.755746395681,-52.2431041197282,960.,715.132071362761,             83P    156
-22.8072585356482,960.,742.345446536951,12.5343411986772,960.,        83P    157
771.15311091396,53.0012663270433,960.,801.339878474582,               83P    158
97.9017362325191,960.,826.464358036249,136.956755499672,960.,         83P    159
845.81399358816,167.875597069286,960.,858.935095262474,               83P    160
189.199737483428,960.,865.550983779153,200.039707417631,960.,         83P    161
0.0899133677013237,1.,0.,0.,0.;                                       83P    162
126,1,1,0,0,1,0,-96.,-96.,96.,96.,1.,1.,625.105178199156,             85P    163
-98.3902497818293,-960.,625.105178199156,-98.3902497818293,960.,      85P    164
-96.,96.,0.,0.,0.;                                                    85P    165
126,14,5,0,0,0,0,0.,0.,0.,0.,0.,0.,0.1,0.2,0.3,0.4,0.5,0.6,0.7,       87P    166
0.8,0.9,1.,1.,1.,1.,1.,1.,1.,1.,1.,1.,1.,1.,1.,1.,1.,1.,1.,1.,        87P    167
1.,1.,1.,250.,-175.000000574343,960.,259.98499411367,                 87P    168
-174.872832267949,960.,279.752785411861,-174.504075756124,960.,       87P    169
308.797912386621,-173.607698728926,960.,346.291405522445,             87P    170
-171.714601043887,960.,390.949905588004,-168.098550931323,960.,       87P    171
433.161378665935,-163.097768706099,960.,472.647344766405,             87P    172
-156.5546671464,960.,509.151533730224,-148.324227206352,960.,         87P    173
542.567405922334,-138.346159868015,960.,573.020286018337,             87P    174
-126.691384293164,960.,595.158935062777,-116.109234216801,960.,       87P    175
610.583388830579,-107.505143428662,960.,620.350547805557,             87P    176
-101.477194437548,960.,625.105178199152,-98.3902497818239,960.,       87P    177
0.,1.,0.,0.,0.;                                                       87P    178
126,1,1,0,0,1,0,-96.,-96.,96.,96.,1.,1.,250.,-175.000000574343,       89P    179
-960.,250.,-175.000000574343,960.,-96.,96.,0.,0.,0.;                  89P    180
126,4,2,0,0,0,0,0.,0.,0.,1.5707963267949,1.5707963267949,             91P    181
3.14159265358979,3.14159265358979,3.14159265358979,1.,                91P    182
0.707106781186549,1.,0.707106781186549,1.,249.999999999999,           91P    183
-124.999999655301,960.,224.999999540479,-124.999999617069,960.,       91P    184
224.999999502246,-150.00000007659,960.,224.999999464014,              91P    185
-175.00000053611,960.,249.999999923534,-175.000000574343,960.,        91P    186
0.,3.14159265358979,0.,0.,0.;                                         91P    187
128,1,1,1,1,0,0,1,0,0,-32.0341621237175,-32.0341621237175,            93P    188
32.1164130498828,32.1164130498828,-19.0816786694005,                  93P    189
-19.0816786694005,19.2117527666194,19.2117527666194,1.,1.,1.,1.,      93P    190
866.495751200016,-175.010000574343,-960.,224.989999464014,            93P    191
-175.010000574343,-960.,866.495751200016,207.924313785856,-960.,      93P    192
224.989999464014,207.924313785856,-960.,-32.0341621237175,            93P    193
32.1164130498828,-19.0816786694005,19.2117527666194;                  93P    194
128,1,1,1,1,0,0,1,0,0,-0.001,-0.001,1.37037834430554,                 95P    195
1.37037834430554,-96.001,-96.001,96.001,96.001,1.,1.,1.,1.,           95P    196
263.703783443055,-124.999999637523,-960.01,249.989999999999,          95P    197
-124.999999655314,-960.01,263.703783443055,-124.999999637523,         95P    198
960.01,249.989999999999,-124.999999655314,960.01,-0.001,              95P    199
1.37037834430554,-96.001,96.001;                                      95P    200
128,14,1,5,1,0,0,0,0,0,-1.,-1.,-1.,-1.,-1.,-1.,-0.9,-0.8,-0.7,        97P    201
-0.6,-0.5,-0.4,-0.3,-0.2,-0.1,0.,0.,0.,0.,0.,0.,-96.,-96.,96.,        97P    202
96.,1.,1.,1.,1.,1.,1.,1.,1.,1.,1.,1.,1.,1.,1.,1.,1.,1.,1.,1.,1.,      97P    203
1.,1.,1.,1.,1.,1.,1.,1.,1.,1.,599.846401817487,                       97P    204
-100.160767296499,-960.,593.696616276539,-101.648345123491,           97P    205
-960.,581.346093235751,-104.535439073848,-960.,562.667452698731,      97P    206
-108.601894717118,-960.,537.451858092403,-113.486773930318,           97P    207
-960.,505.380102258665,-118.638382004036,-960.,472.70983961121,       97P    208
-122.75557391791,-960.,439.397040567561,-125.762252106094,-960.,      97P    209
405.426656305867,-127.632407266433,-960.,370.834221059246,            97P    210
-128.427454213367,-960.,335.670800404407,-128.235651019289,           97P    211
-960.,307.122764657417,-127.360978479301,-960.,285.492235544458,      97P    212
-126.325602070505,-960.,270.975927558699,-125.469508984495,           97P    213
-960.,263.693783443055,-124.999999637536,-960.,599.846401817487,      97P    214
-100.160767296499,960.,593.696616276539,-101.648345123491,960.,       97P    215
581.346093235751,-104.535439073848,960.,562.667452698731,             97P    216
-108.601894717118,960.,537.451858092403,-113.486773930318,960.,       97P    217
505.380102258665,-118.638382004036,960.,472.70983961121,              97P    218
-122.75557391791,960.,439.397040567561,-125.762252106094,960.,        97P    219
405.426656305867,-127.632407266433,960.,370.834221059246,             97P    220
-128.427454213367,960.,335.670800404407,-128.235651019289,960.,       97P    221
307.122764657417,-127.360978479301,960.,285.492235544458,             97P    222
-126.325602070505,960.,270.975927558699,-125.469508984495,960.,       97P    223
263.693783443055,-124.999999637536,960.,-1.,0.,-96.,96.;              97P    224
128,1,4,1,2,0,0,0,0,0,-124.730556392068,-124.730556392068,            99P    225
124.730556392068,124.730556392068,-1.13956459488351D-14,              99P    226
-1.13956459488351D-14,-1.13956459488351D-14,0.816492843460117,        99P    227
0.816492843460117,1.63298568692026,1.63298568692026,                  99P    228
1.63298568692026,1.,1.,0.917818405024358,0.917818405024358,1.,        99P    229
1.,0.917818405024358,0.917818405024358,1.,1.,599.321659983955,        99P    230
-88.9552869563619,960.,599.321659983955,-88.9552869563619,-960.,      99P    231
597.004847150369,-91.3460150546379,960.,597.004847150369,             99P    232
-91.3460150546379,-960.,597.160577113382,-94.671515125962,960.,       99P    233
597.160577113382,-94.671515125962,-960.,597.316307076394,             99P    234
-97.9970151972862,960.,597.316307076394,-97.9970151972862,-960.,      99P    235
599.8464018272,-100.160767285142,960.,599.8464018272,                 99P    236
-100.160767285142,-960.,-124.730556392068,124.730556392068,           99P    237
-1.13956459488351D-14,1.63298568692026;                               99P    238
128,1,2,1,2,0,0,0,0,0,-0.91687306871312,-0.91687306871312,           101P    239
0.91687306871312,0.91687306871312,6.78622394362686D-17,              101P    240
6.78622394362686D-17,6.78622394362686D-17,0.373780113901159,         101P    241
0.373780113901159,0.373780113901159,1.,1.,0.98258682573443,          101P    242
0.98258682573443,1.,1.,599.321659983955,-88.9552869563619,-960.,     101P    243
599.321659983955,-88.9552869563619,960.,755.089461259594,            101P    244
33.2615557741462,-960.,755.089461259594,33.2615557741462,960.,       101P    245
855.476169616676,203.916392642284,-960.,855.476169616676,            101P    246
203.916392642284,960.,-0.91687306871312,0.91687306871312,            101P    247
6.78622394362686D-17,0.373780113901159;                              101P    248
128,1,4,1,2,0,0,0,0,0,-175.462934590382,-175.462934590382,           103P    249
175.462934590382,175.462934590382,0.,0.,0.,1.40639129851577,         103P    250
1.40639129851577,2.81278259703153,2.81278259703153,                  103P    251
2.81278259703153,1.,1.,0.762779591666812,0.762779591666812,1.,       103P    252
1.,0.762779591666812,0.762779591666812,1.,1.,865.550983779153,       103P    253
200.039707417631,960.,865.550983779153,200.039707417631,-960.,       103P    254
866.485751200016,204.582870591653,960.,866.485751200016,             103P    255
204.582870591653,-960.,862.156837558252,206.248592188755,960.,       103P    256
862.156837558252,206.248592188755,-960.,857.827923916488,            103P    257
207.914313785856,960.,857.827923916488,207.914313785856,-960.,       103P    258
855.476169635532,203.916392631192,960.,855.476169635532,             103P    259
203.916392631192,-960.,-175.462934590382,175.462934590382,0.,        103P    260
2.81278259703153;                                                    103P    261
128,14,1,5,1,0,0,0,0,0,0.0899133677013237,0.0899133677013237,        105P    262
0.0899133677013237,0.0899133677013237,0.0899133677013237,            105P    263
0.0899133677013237,0.1,0.2,0.3,0.4,0.5,0.6,0.7,0.8,0.9,1.,1.,1.,     105P    264
1.,1.,1.,-96.,-96.,96.,96.,1.,1.,1.,1.,1.,1.,1.,1.,1.,1.,1.,1.,      105P    265
1.,1.,1.,1.,1.,1.,1.,1.,1.,1.,1.,1.,1.,1.,1.,1.,1.,1.,               105P    266
625.105178199156,-98.3902497818293,-960.,625.462402097489,           105P    267
-98.2937608079634,-960.,629.372699764696,-97.2036473283082,          105P    268
-960.,637.075130170228,-94.3513818985004,-960.,649.128277346277,     105P    269
-87.9412270077891,-960.,666.443202011641,-75.0443021063104,          105P    270
-960.,689.755746395681,-52.2431041197282,-960.,715.132071362761,     105P    271
-22.8072585356482,-960.,742.345446536951,12.5343411986772,-960.,     105P    272
771.15311091396,53.0012663270433,-960.,801.339878474582,             105P    273
97.9017362325191,-960.,826.464358036249,136.956755499672,-960.,      105P    274
845.81399358816,167.875597069286,-960.,858.935095262474,             105P    275
189.199737483428,-960.,865.550983779153,200.039707417631,-960.,      105P    276
625.105178199156,-98.3902497818293,960.,625.462402097489,            105P    277
-98.2937608079634,960.,629.372699764696,-97.2036473283082,960.,      105P    278
637.075130170228,-94.3513818985004,960.,649.128277346277,            105P    279
-87.9412270077891,960.,666.443202011641,-75.0443021063104,960.,      105P    280
689.755746395681,-52.2431041197282,960.,715.132071362761,            105P    281
-22.8072585356482,960.,742.345446536951,12.5343411986772,960.,       105P    282
771.15311091396,53.0012663270433,960.,801.339878474582,              105P    283
97.9017362325191,960.,826.464358036249,136.956755499672,960.,        105P    284
845.81399358816,167.875597069286,960.,858.935095262474,              105P    285
189.199737483428,960.,865.550983779153,200.039707417631,960.,        105P    286
0.0899133677013237,1.,-96.,96.;                                      105P    287
128,14,1,5,1,0,0,0,0,0,0.,0.,0.,0.,0.,0.,0.1,0.2,0.3,0.4,0.5,        107P    288
0.6,0.7,0.8,0.9,1.,1.,1.,1.,1.,1.,-96.,-96.,96.,96.,1.,1.,1.,1.,     107P    289
1.,1.,1.,1.,1.,1.,1.,1.,1.,1.,1.,1.,1.,1.,1.,1.,1.,1.,1.,1.,1.,      107P    290
1.,1.,1.,1.,1.,250.,-175.000000574343,-960.,259.98499411367,         107P    291
-174.872832267949,-960.,279.752785411861,-174.504075756124,          107P    292
-960.,308.797912386621,-173.607698728926,-960.,346.291405522445,     107P    293
-171.714601043887,-960.,390.949905588004,-168.098550931323,          107P    294
-960.,433.161378665935,-163.097768706099,-960.,472.647344766405,     107P    295
-156.5546671464,-960.,509.151533730224,-148.324227206352,-960.,      107P    296
542.567405922334,-138.346159868015,-960.,573.020286018337,           107P    297
-126.691384293164,-960.,595.158935062777,-116.109234216801,          107P    298
-960.,610.583388830579,-107.505143428662,-960.,620.350547805557,     107P    299
-101.477194437548,-960.,625.105178199152,-98.3902497818239,          107P    300
-960.,250.,-175.000000574343,960.,259.98499411367,                   107P    301
-174.872832267949,960.,279.752785411861,-174.504075756124,960.,      107P    302
308.797912386621,-173.607698728926,960.,346.291405522445,            107P    303
-171.714601043887,960.,390.949905588004,-168.098550931323,960.,      107P    304
433.161378665935,-163.097768706099,960.,472.647344766405,            107P    305
-156.5546671464,960.,509.151533730224,-148.324227206352,960.,        107P    306
542.567405922334,-138.346159868015,960.,573.020286018337,            107P    307
-126.691384293164,960.,595.158935062777,-116.109234216801,960.,      107P    308
610.583388830579,-107.505143428662,960.,620.350547805557,            107P    309
-101.477194437548,960.,625.105178199152,-98.3902497818239,960.,      107P    310
0.,1.,-96.,96.;                                                      107P    311
128,1,4,1,2,0,0,0,0,0,-38.399999294176,-38.399999294176,             109P    312
38.399999294176,38.399999294176,0.,0.,0.,1.57079632832421,           109P    313
1.57079632832421,3.14159265664842,3.14159265664842,                  109P    314
3.14159265664842,1.,1.,0.707106780645854,0.707106780645854,1.,       109P    315
1.,0.707106780645854,0.707106780645854,1.,1.,249.999999999999,       109P    316
-124.999999655301,960.,249.999999999999,-124.999999655301,-960.,     109P    317
224.999999502246,-124.999999617069,960.,224.999999502246,            109P    318
-124.999999617069,-960.,224.999999502246,-150.000000114822,960.,     109P    319
224.999999502246,-150.000000114822,-960.,224.999999502246,           109P    320
-175.000000612576,960.,224.999999502246,-175.000000612576,-960.,     109P    321
250.,-175.000000574343,960.,250.,-175.000000574343,-960.,            109P    322
-38.399999294176,38.399999294176,0.,3.14159265664842;                109P    323
128,1,1,1,1,0,0,1,0,0,-32.0341621237175,-32.0341621237175,           111P    324
32.1164130498828,32.1164130498828,-19.0816786694005,                 111P    325
-19.0816786694005,19.2117527666194,19.2117527666194,1.,1.,1.,1.,     111P    326
224.989999464014,-175.010000574343,960.,866.495751200016,            111P    327
-175.010000574343,960.,224.989999464014,207.924313785856,960.,       111P    328
866.495751200016,207.924313785856,960.,-32.0341621237175,            111P    329
32.1164130498828,-19.0816786694005,19.2117527666194;                 111P    330
502,16,250.,-175.000000574343,-960.,249.999999999999,                113P    331
-124.999999655301,-960.,263.693783443055,-124.999999637536,          113P    332
-960.,599.8464018272,-100.160767285142,-960.,599.321659983955,       113P    333
-88.9552869563619,-960.,855.476169635532,203.916392631192,-960.,     113P    334
865.550983779153,200.039707417631,-960.,625.105178199156,            113P    335
-98.3902497818293,-960.,249.999999999999,-124.999999655301,960.,     113P    336
263.693783443055,-124.999999637536,960.,599.8464018272,              113P    337
-100.160767285142,960.,599.321659983955,-88.9552869563619,960.,      113P    338
855.476169635532,203.916392631192,960.,865.550983779153,             113P    339
200.039707417631,960.,625.105178199156,-98.3902497818293,960.,       113P    340
250.,-175.000000574343,960.;                                         113P    341
504,24,45,113,1,113,2,47,113,2,113,3,49,113,3,113,4,51,113,4,        115P    342
113,5,53,113,5,113,6,55,113,6,113,7,57,113,7,113,8,59,113,8,113,     115P    343
1,61,113,9,113,2,63,113,10,113,9,65,113,3,113,10,67,113,11,113,      115P    344
10,69,113,4,113,11,71,113,12,113,11,73,113,5,113,12,75,113,13,       115P    345
113,12,77,113,6,113,13,79,113,14,113,13,81,113,7,113,14,83,113,      115P    346
15,113,14,85,113,8,113,15,87,113,16,113,15,89,113,1,113,16,91,       115P    347
113,9,113,16;                                                        115P    348
406,1,7H본체1;                                                     117P    349
314,62.7450980392157,62.7450980392157,62.7450980392157,15H강철     119P    350
 - 새틴;                                                           119P    351
S      1G      3D    120P    351                                        T      1
