                                                                        S      1
,,16H2026_rearwing v2,7H2026_2d,7Hunknown,7Hunknown,32,38,7,99,15,,1.,2,G      1
2HMM,1,0.08,15H20240609.010658,0.01,10000.,7Hunknown,7Hunknown,11,0,15H2G      2
0240608.160646;                                                         G      3
     186       1                                                00000000D      1
     186            -119       1       0                               0D      2
     514       2                                                00010000D      3
     514                       1       1                               0D      4
     510       3                                                00010000D      5
     510            -119       1       1                               0D      6
     510       4                                                00010000D      7
     510            -119       1       1                               0D      8
     510       5                                                00010000D      9
     510            -119       1       1                               0D     10
     510       6                                                00010000D     11
     510            -119       1       1                               0D     12
     510       7                                                00010000D     13
     510            -119       1       1                               0D     14
     510       8                                                00010000D     15
     510            -119       1       1                               0D     16
     510       9                                                00010000D     17
     510            -119       1       1                               0D     18
     510      10                                                00010000D     19
     510            -119       1       1                               0D     20
     510      11                                                00010000D     21
     510            -119       1       1                               0D     22
     510      12                                                00010000D     23
     510            -119       1       1                               0D     24
     508      13                                                00010000D     25
     508                       1       1                               0D     26
     508      14                                                00010000D     27
     508                       1       1                               0D     28
     508      15                                                00010000D     29
     508                       1       1                               0D     30
     508      16                                                00010000D     31
     508                       1       1                               0D     32
     508      17                                                00010000D     33
     508                       1       1                               0D     34
     508      18                                                00010000D     35
     508                       1       1                               0D     36
     508      19                                                00010000D     37
     508                       1       1                               0D     38
     508      20                                                00010000D     39
     508                       1       1                               0D     40
     508      21                                                00010000D     41
     508                       2       1                               0D     42
     508      23                                                00010000D     43
     508                       2       1                               0D     44
     126      25                                                00010000D     45
     126       0               3       0                               0D     46
     126      28                                                00010000D     47
     126       0               3       0                               0D     48
     126      31                                                00010000D     49
     126       0               3       0                               0D     50
     126      34                                                00010000D     51
     126       0               3       0                               0D     52
     126      37                                                00010000D     53
     126       0              13       0                               0D     54
     126      50                                                00010000D     55
     126       0              13       0                               0D     56
     126      63                                                00010000D     57
     126       0               3       0                               0D     58
     126      66                                                00010000D     59
     126       0               7       0                               0D     60
     126      73                                                00010000D     61
     126       0               7       0                               0D     62
     126      80                                                00010000D     63
     126       0               3       0                               0D     64
     126      83                                                00010000D     65
     126       0               5       0                               0D     66
     126      88                                                00010000D     67
     126       0               5       0                               0D     68
     126      93                                                00010000D     69
     126       0               3       0                               0D     70
     126      96                                                00010000D     71
     126       0               7       0                               0D     72
     126     103                                                00010000D     73
     126       0               7       0                               0D     74
     126     110                                                00010000D     75
     126       0               3       0                               0D     76
     126     113                                                00010000D     77
     126       0              15       0                               0D     78
     126     128                                                00010000D     79
     126       0              15       0                               0D     80
     126     143                                                00010000D     81
     126       0               3       0                               0D     82
     126     146                                                00010000D     83
     126       0              13       0                               0D     84
     126     159                                                00010000D     85
     126       0              13       0                               0D     86
     126     172                                                00010000D     87
     126       0               2       0                               0D     88
     126     174                                                00010000D     89
     126       0               7       0                               0D     90
     126     181                                                00010000D     91
     126       0               7       0                               0D     92
     128     188                                                00010000D     93
     128       0    -119       6       0                               0D     94
     128     194                                                00010000D     95
     128       0    -119      24       0                               0D     96
     128     218                                                00010000D     97
     128       0    -119      13       0                               0D     98
     128     231                                                00010000D     99
     128       0    -119       9       0                               0D    100
     128     240                                                00010000D    101
     128       0    -119      12       0                               0D    102
     128     252                                                00010000D    103
     128       0    -119      26       0                               0D    104
     128     278                                                00010000D    105
     128       0    -119      23       0                               0D    106
     128     301                                                00010000D    107
     128       0    -119      11       0                               0D    108
     128     312                                                00010000D    109
     128       0    -119       7       0                               0D    110
     128     319                                                00010000D    111
     128       0    -119       7       0                               0D    112
     502     326                                                00010000D    113
     502                      11       1                               0D    114
     504     337                                                00010001D    115
     504                       7       1                               0D    116
     406     344                                                00000000D    117
     406                       1      15                               0D    118
     314     345                                                00000200D    119
     314                       2       0                               0D    120
186,3,1,0,0,1,117;                                                     1P      1
514,10,5,1,7,1,9,1,11,1,13,1,15,1,17,1,19,1,21,1,23,1;                 3P      2
510,93,1,1,25;                                                         5P      3
510,95,1,1,27;                                                         7P      4
510,97,1,1,29;                                                         9P      5
510,99,1,1,31;                                                        11P      6
510,101,1,1,33;                                                       13P      7
510,103,1,1,35;                                                       15P      8
510,105,1,1,37;                                                       17P      9
510,107,1,1,39;                                                       19P     10
510,109,1,1,41;                                                       21P     11
510,111,1,1,43;                                                       23P     12
508,4,0,115,1,0,0,0,115,2,1,0,0,115,3,0,0,0,115,4,0,0;                25P     13
508,4,0,115,5,0,0,0,115,4,1,0,0,115,6,0,0,0,115,7,0,0;                27P     14
508,4,0,115,8,1,0,0,115,7,1,0,0,115,9,0,0,0,115,10,0,0;               29P     15
508,4,0,115,11,0,0,0,115,10,1,0,0,115,12,0,0,0,115,13,0,0;            31P     16
508,4,0,115,14,1,0,0,115,13,1,0,0,115,15,0,0,0,115,16,0,0;            33P     17
508,4,0,115,17,1,0,0,115,16,1,0,0,115,18,0,0,0,115,19,0,0;            35P     18
508,4,0,115,20,1,0,0,115,19,1,0,0,115,21,0,0,0,115,22,0,0;            37P     19
508,4,0,115,23,1,0,0,115,22,1,0,0,115,24,0,0,0,115,2,0,0;             39P     20
508,8,0,115,24,1,0,0,115,21,1,0,0,115,18,1,0,0,115,15,1,0,0,115,      41P     21
12,1,0,0,115,9,1,0,0,115,6,1,0,0,115,3,1,0;                           41P     22
508,8,0,115,23,0,0,0,115,1,1,0,0,115,5,1,0,0,115,8,0,0,0,115,11,      43P     23
1,0,0,115,14,0,0,0,115,17,0,0,0,115,20,0,0;                           43P     24
126,1,1,0,0,1,0,0.,0.,1.36937834430554,1.36937834430554,1.,1.,        45P     25
249.999999999999,-124.999999655301,0.,263.693783443055,               45P     26
-124.999999637536,0.,0.,1.36937834430554,0.,0.,0.;                    45P     27
126,1,1,0,0,1,0,0.,0.,1.,1.,1.,1.,249.999999999999,                   47P     28
-124.999999655301,0.,249.999999999999,-124.999999655301,10.,0.,       47P     29
1.,0.,0.,0.;                                                          47P     30
126,1,1,0,0,1,0,-1.36937834430554,-1.36937834430554,0.,0.,1.,1.,      49P     31
263.693783443055,-124.999999637536,10.,249.999999999999,              49P     32
-124.999999655301,10.,-1.36937834430554,0.,0.,0.,0.;                  49P     33
126,1,1,0,0,1,0,0.,0.,1.,1.,1.,1.,263.693783443055,                   51P     34
-124.999999637536,0.,263.693783443055,-124.999999637536,10.,0.,       51P     35
1.,0.,0.,0.;                                                          51P     36
126,14,5,0,0,0,0,0.,0.,0.,0.,0.,0.,0.1,0.2,0.3,0.4,0.5,0.6,0.7,       53P     37
0.8,0.9,1.,1.,1.,1.,1.,1.,1.,1.,1.,1.,1.,1.,1.,1.,1.,1.,1.,1.,        53P     38
1.,1.,1.,263.693783443055,-124.999999637536,0.,270.975927558699,      53P     39
-125.469508984495,0.,285.492235544458,-126.325602070505,0.,           53P     40
307.122764657417,-127.360978479301,0.,335.670800404407,               53P     41
-128.235651019289,0.,370.834221059246,-128.427454213367,0.,           53P     42
405.426656305867,-127.632407266433,0.,439.397040567561,               53P     43
-125.762252106094,0.,472.70983961121,-122.75557391791,0.,             53P     44
505.380102258665,-118.638382004036,0.,537.451858092403,               53P     45
-113.486773930318,0.,562.667452698731,-108.601894717118,0.,           53P     46
581.346093235751,-104.535439073848,0.,593.696616276539,               53P     47
-101.648345123491,0.,599.846401817487,-100.160767296499,0.,0.,        53P     48
1.,0.,0.,0.;                                                          53P     49
126,14,5,0,0,0,0,-1.,-1.,-1.,-1.,-1.,-1.,-0.9,-0.8,-0.7,-0.6,         55P     50
-0.5,-0.4,-0.3,-0.2,-0.1,0.,0.,0.,0.,0.,0.,1.,1.,1.,1.,1.,1.,1.,      55P     51
1.,1.,1.,1.,1.,1.,1.,1.,599.846401817487,-100.160767296499,10.,       55P     52
593.696616276539,-101.648345123491,10.,581.346093235751,              55P     53
-104.535439073848,10.,562.667452698731,-108.601894717118,10.,         55P     54
537.451858092403,-113.486773930318,10.,505.380102258665,              55P     55
-118.638382004036,10.,472.70983961121,-122.75557391791,10.,           55P     56
439.397040567561,-125.762252106094,10.,405.426656305867,              55P     57
-127.632407266433,10.,370.834221059246,-128.427454213367,10.,         55P     58
335.670800404407,-128.235651019289,10.,307.122764657417,              55P     59
-127.360978479301,10.,285.492235544458,-126.325602070505,10.,         55P     60
270.975927558699,-125.469508984495,10.,263.693783443055,              55P     61
-124.999999637536,10.,-1.,0.,0.,0.,0.;                                55P     62
126,1,1,0,0,1,0,0.,0.,1.,1.,1.,1.,599.8464018272,                     57P     63
-100.160767285142,0.,599.8464018272,-100.160767285142,10.,0.,1.,      57P     64
0.,0.,0.;                                                             57P     65
126,4,2,0,0,0,0,0.,0.,0.,0.816492843460128,0.816492843460128,         59P     66
1.63298568692026,1.63298568692026,1.63298568692026,1.,                59P     67
0.917818405024435,1.,0.917818405024289,1.,599.321659983955,           59P     68
-88.9552869563619,0.,597.004847150369,-91.3460150546379,0.,           59P     69
597.160577113382,-94.671515125962,0.,597.316307076394,                59P     70
-97.9970151972862,0.,599.8464018272,-100.160767285142,0.,0.,          59P     71
1.63298568692026,0.,0.,0.;                                            59P     72
126,4,2,0,0,0,0,0.,0.,0.,0.816492843460128,0.816492843460128,         61P     73
1.63298568692026,1.63298568692026,1.63298568692026,1.,                61P     74
0.917818405024435,1.,0.917818405024289,1.,599.321659983955,           61P     75
-88.9552869563619,10.,597.004847150369,-91.3460150546379,10.,         61P     76
597.160577113382,-94.671515125962,10.,597.316307076394,               61P     77
-97.9970151972862,10.,599.8464018272,-100.160767285142,10.,0.,        61P     78
1.63298568692026,0.,0.,0.;                                            61P     79
126,1,1,0,0,1,0,0.,0.,1.,1.,1.,1.,599.321659983955,                   63P     80
-88.9552869563619,0.,599.321659983955,-88.9552869563619,10.,0.,       63P     81
1.,0.,0.,0.;                                                          63P     82
126,2,2,0,0,0,0,0.,0.,0.,0.373780113901159,0.373780113901159,         65P     83
0.373780113901159,1.,0.982586825734421,1.,599.321659983955,           65P     84
-88.9552869563619,0.,755.089461259594,33.2615557741463,0.,            65P     85
855.476169616676,203.916392642284,0.,0.,0.373780113901159,0.,0.,      65P     86
0.;                                                                   65P     87
126,2,2,0,0,0,0,-0.373780113901159,-0.373780113901159,                67P     88
-0.373780113901159,0.,0.,0.,1.,0.982586825734421,1.,                  67P     89
855.476169616676,203.916392642284,10.,755.089461259594,               67P     90
33.2615557741463,10.,599.321659983955,-88.9552869563619,10.,          67P     91
-0.373780113901159,0.,0.,0.,0.;                                       67P     92
126,1,1,0,0,1,0,0.,0.,1.,1.,1.,1.,855.476169635532,                   69P     93
203.916392631192,0.,855.476169635532,203.916392631192,10.,0.,1.,      69P     94
0.,0.,0.;                                                             69P     95
126,4,2,0,0,0,0,0.,0.,0.,1.40639129851576,1.40639129851576,           71P     96
2.81278259703153,2.81278259703153,2.81278259703153,1.,                71P     97
0.762779591666866,1.,0.762779591666808,1.,865.550983779153,           71P     98
200.039707417631,0.,866.485751200016,204.582870591653,0.,             71P     99
862.156837558252,206.248592188755,0.,857.827923916488,                71P    100
207.914313785856,0.,855.476169635532,203.916392631192,0.,0.,          71P    101
2.81278259703153,0.,0.,0.;                                            71P    102
126,4,2,0,0,0,0,0.,0.,0.,1.40639129851576,1.40639129851576,           73P    103
2.81278259703153,2.81278259703153,2.81278259703153,1.,                73P    104
0.762779591666866,1.,0.762779591666808,1.,865.550983779153,           73P    105
200.039707417631,10.,866.485751200016,204.582870591653,10.,           73P    106
862.156837558252,206.248592188755,10.,857.827923916488,               73P    107
207.914313785856,10.,855.476169635532,203.916392631192,10.,0.,        73P    108
2.81278259703153,0.,0.,0.;                                            73P    109
126,1,1,0,0,1,0,0.,0.,1.,1.,1.,1.,865.550983779153,                   75P    110
200.039707417631,0.,865.550983779153,200.039707417631,10.,0.,1.,      75P    111
0.,0.,0.;                                                             75P    112
126,14,5,0,0,0,0,0.0899133677013237,0.0899133677013237,               77P    113
0.0899133677013237,0.0899133677013237,0.0899133677013237,             77P    114
0.0899133677013237,0.1,0.2,0.3,0.4,0.5,0.6,0.7,0.8,0.9,1.,1.,1.,      77P    115
1.,1.,1.,1.,1.,1.,1.,1.,1.,1.,1.,1.,1.,1.,1.,1.,1.,1.,                77P    116
625.105178199155,-98.3902497818293,0.,625.462402097489,               77P    117
-98.2937608079634,0.,629.372699764696,-97.2036473283081,0.,           77P    118
637.075130170228,-94.3513818985004,0.,649.128277346277,               77P    119
-87.9412270077891,0.,666.443202011641,-75.0443021063104,0.,           77P    120
689.755746395681,-52.2431041197282,0.,715.132071362761,               77P    121
-22.8072585356482,0.,742.345446536951,12.5343411986772,0.,            77P    122
771.15311091396,53.0012663270433,0.,801.339878474582,                 77P    123
97.9017362325191,0.,826.464358036249,136.956755499672,0.,             77P    124
845.81399358816,167.875597069286,0.,858.935095262474,                 77P    125
189.199737483428,0.,865.550983779153,200.039707417631,0.,             77P    126
0.0899133677013237,1.,0.,0.,0.;                                       77P    127
126,14,5,0,0,0,0,0.0899133677013237,0.0899133677013237,               79P    128
0.0899133677013237,0.0899133677013237,0.0899133677013237,             79P    129
0.0899133677013237,0.1,0.2,0.3,0.4,0.5,0.6,0.7,0.8,0.9,1.,1.,1.,      79P    130
1.,1.,1.,1.,1.,1.,1.,1.,1.,1.,1.,1.,1.,1.,1.,1.,1.,1.,                79P    131
625.105178199155,-98.3902497818293,10.,625.462402097489,              79P    132
-98.2937608079634,10.,629.372699764696,-97.2036473283081,10.,         79P    133
637.075130170228,-94.3513818985004,10.,649.128277346277,              79P    134
-87.9412270077891,10.,666.443202011641,-75.0443021063104,10.,         79P    135
689.755746395681,-52.2431041197282,10.,715.132071362761,              79P    136
-22.8072585356482,10.,742.345446536951,12.5343411986772,10.,          79P    137
771.15311091396,53.0012663270433,10.,801.339878474582,                79P    138
97.9017362325191,10.,826.464358036249,136.956755499672,10.,           79P    139
845.81399358816,167.875597069286,10.,858.935095262474,                79P    140
189.199737483428,10.,865.550983779153,200.039707417631,10.,           79P    141
0.0899133677013237,1.,0.,0.,0.;                                       79P    142
126,1,1,0,0,1,0,0.,0.,1.,1.,1.,1.,625.105178199156,                   81P    143
-98.3902497818293,0.,625.105178199156,-98.3902497818293,10.,0.,       81P    144
1.,0.,0.,0.;                                                          81P    145
126,14,5,0,0,0,0,0.,0.,0.,0.,0.,0.,0.1,0.2,0.3,0.4,0.5,0.6,0.7,       83P    146
0.8,0.9,1.,1.,1.,1.,1.,1.,1.,1.,1.,1.,1.,1.,1.,1.,1.,1.,1.,1.,        83P    147
1.,1.,1.,250.,-175.000000574343,0.,259.98499411367,                   83P    148
-174.872832267949,0.,279.752785411861,-174.504075756124,0.,           83P    149
308.797912386621,-173.607698728926,0.,346.291405522445,               83P    150
-171.714601043887,0.,390.949905588004,-168.098550931323,0.,           83P    151
433.161378665935,-163.097768706099,0.,472.647344766405,               83P    152
-156.5546671464,0.,509.151533730224,-148.324227206352,0.,             83P    153
542.567405922334,-138.346159868015,0.,573.020286018337,               83P    154
-126.691384293164,0.,595.158935062777,-116.109234216801,0.,           83P    155
610.583388830579,-107.505143428662,0.,620.350547805557,               83P    156
-101.477194437548,0.,625.105178199152,-98.3902497818239,0.,0.,        83P    157
1.,0.,0.,0.;                                                          83P    158
126,14,5,0,0,0,0,0.,0.,0.,0.,0.,0.,0.1,0.2,0.3,0.4,0.5,0.6,0.7,       85P    159
0.8,0.9,1.,1.,1.,1.,1.,1.,1.,1.,1.,1.,1.,1.,1.,1.,1.,1.,1.,1.,        85P    160
1.,1.,1.,250.,-175.000000574343,10.,259.98499411367,                  85P    161
-174.872832267949,10.,279.752785411861,-174.504075756124,10.,         85P    162
308.797912386621,-173.607698728926,10.,346.291405522445,              85P    163
-171.714601043887,10.,390.949905588004,-168.098550931323,10.,         85P    164
433.161378665935,-163.097768706099,10.,472.647344766405,              85P    165
-156.5546671464,10.,509.151533730224,-148.324227206352,10.,           85P    166
542.567405922334,-138.346159868015,10.,573.020286018337,              85P    167
-126.691384293164,10.,595.158935062777,-116.109234216801,10.,         85P    168
610.583388830579,-107.505143428662,10.,620.350547805557,              85P    169
-101.477194437548,10.,625.105178199152,-98.3902497818239,10.,0.,      85P    170
1.,0.,0.,0.;                                                          85P    171
126,1,1,0,0,1,0,0.,0.,1.,1.,1.,1.,250.,-175.000000574343,0.,          87P    172
250.,-175.000000574343,10.,0.,1.,0.,0.,0.;                            87P    173
126,4,2,0,0,0,0,0.,0.,0.,1.5707963267949,1.5707963267949,             89P    174
3.14159265358979,3.14159265358979,3.14159265358979,1.,                89P    175
0.707106781186549,1.,0.707106781186549,1.,249.999999999999,           89P    176
-124.999999655301,0.,224.999999540479,-124.999999617069,0.,           89P    177
224.999999502246,-150.00000007659,0.,224.999999464014,                89P    178
-175.00000053611,0.,249.999999923534,-175.000000574343,0.,0.,         89P    179
3.14159265358979,0.,0.,0.;                                            89P    180
126,4,2,0,0,0,0,0.,0.,0.,1.5707963267949,1.5707963267949,             91P    181
3.14159265358979,3.14159265358979,3.14159265358979,1.,                91P    182
0.707106781186549,1.,0.707106781186549,1.,249.999999999999,           91P    183
-124.999999655301,10.,224.999999540479,-124.999999617069,10.,         91P    184
224.999999502246,-150.00000007659,10.,224.999999464014,               91P    185
-175.00000053611,10.,249.999999923534,-175.000000574343,10.,0.,       91P    186
3.14159265358979,0.,0.,0.;                                            91P    187
128,1,1,1,1,0,0,1,0,0,-0.001,-0.001,1.37037834430554,                 93P    188
1.37037834430554,-0.001,-0.001,1.001,1.001,1.,1.,1.,1.,               93P    189
263.703783443055,-124.999999637523,-0.01,249.989999999999,            93P    190
-124.999999655314,-0.01,263.703783443055,-124.999999637523,           93P    191
10.01,249.989999999999,-124.999999655314,10.01,-0.001,                93P    192
1.37037834430554,-0.001,1.001;                                        93P    193
128,14,1,5,1,0,0,0,0,0,-1.,-1.,-1.,-1.,-1.,-1.,-0.9,-0.8,-0.7,        95P    194
-0.6,-0.5,-0.4,-0.3,-0.2,-0.1,0.,0.,0.,0.,0.,0.,0.,0.,1.,1.,1.,       95P    195
1.,1.,1.,1.,1.,1.,1.,1.,1.,1.,1.,1.,1.,1.,1.,1.,1.,1.,1.,1.,1.,       95P    196
1.,1.,1.,1.,1.,1.,1.,1.,599.846401817487,-100.160767296499,0.,        95P    197
593.696616276539,-101.648345123491,0.,581.346093235751,               95P    198
-104.535439073848,0.,562.667452698731,-108.601894717118,0.,           95P    199
537.451858092403,-113.486773930318,0.,505.380102258665,               95P    200
-118.638382004036,0.,472.70983961121,-122.75557391791,0.,             95P    201
439.397040567561,-125.762252106094,0.,405.426656305867,               95P    202
-127.632407266433,0.,370.834221059246,-128.427454213367,0.,           95P    203
335.670800404407,-128.235651019289,0.,307.122764657417,               95P    204
-127.360978479301,0.,285.492235544458,-126.325602070505,0.,           95P    205
270.975927558699,-125.469508984495,0.,263.693783443055,               95P    206
-124.999999637536,0.,599.846401817487,-100.160767296499,10.,          95P    207
593.696616276539,-101.648345123491,10.,581.346093235751,              95P    208
-104.535439073848,10.,562.667452698731,-108.601894717118,10.,         95P    209
537.451858092403,-113.486773930318,10.,505.380102258665,              95P    210
-118.638382004036,10.,472.70983961121,-122.75557391791,10.,           95P    211
439.397040567561,-125.762252106094,10.,405.426656305867,              95P    212
-127.632407266433,10.,370.834221059246,-128.427454213367,10.,         95P    213
335.670800404407,-128.235651019289,10.,307.122764657417,              95P    214
-127.360978479301,10.,285.492235544458,-126.325602070505,10.,         95P    215
270.975927558699,-125.469508984495,10.,263.693783443055,              95P    216
-124.999999637536,10.,-1.,0.,0.,1.;                                   95P    217
128,1,4,1,2,0,0,0,0,0,0.,0.,1.29927662908405,1.29927662908405,        97P    218
-1.13956459488351D-14,-1.13956459488351D-14,                          97P    219
-1.13956459488351D-14,0.816492843460117,0.816492843460117,            97P    220
1.63298568692026,1.63298568692026,1.63298568692026,1.,1.,             97P    221
0.917818405024358,0.917818405024358,1.,1.,0.917818405024358,          97P    222
0.917818405024358,1.,1.,599.321659983955,-88.9552869563619,10.,       97P    223
599.321659983955,-88.9552869563619,0.,597.004847150369,               97P    224
-91.3460150546379,10.,597.004847150369,-91.3460150546379,0.,          97P    225
597.160577113382,-94.671515125962,10.,597.160577113382,               97P    226
-94.671515125962,0.,597.316307076394,-97.9970151972862,10.,           97P    227
597.316307076394,-97.9970151972862,0.,599.8464018272,                 97P    228
-100.160767285142,10.,599.8464018272,-100.160767285142,0.,0.,         97P    229
1.29927662908405,-1.13956459488351D-14,1.63298568692026;              97P    230
128,1,2,1,2,0,0,0,0,0,0.,0.,0.00955076113242834,                      99P    231
0.00955076113242834,6.78622394362686D-17,6.78622394362686D-17,        99P    232
6.78622394362686D-17,0.373780113901159,0.373780113901159,             99P    233
0.373780113901159,1.,1.,0.98258682573443,0.98258682573443,1.,1.,      99P    234
599.321659983955,-88.9552869563619,0.,599.321659983955,               99P    235
-88.9552869563619,10.,755.089461259594,33.2615557741464,0.,           99P    236
755.089461259594,33.2615557741464,10.,855.476169616676,               99P    237
203.916392642284,0.,855.476169616676,203.916392642284,10.,0.,         99P    238
0.00955076113242834,6.78622394362686D-17,0.373780113901159;           99P    239
128,1,4,1,2,0,0,0,0,0,0.,0.,1.82773890198315,1.82773890198315,       101P    240
0.,0.,0.,1.40639129851577,1.40639129851577,2.81278259703153,         101P    241
2.81278259703153,2.81278259703153,1.,1.,0.762779591666812,           101P    242
0.762779591666812,1.,1.,0.762779591666812,0.762779591666812,1.,      101P    243
1.,865.550983779153,200.039707417631,10.,865.550983779153,           101P    244
200.039707417631,0.,866.485751200016,204.582870591653,10.,           101P    245
866.485751200016,204.582870591653,0.,862.156837558252,               101P    246
206.248592188755,10.,862.156837558252,206.248592188755,0.,           101P    247
857.827923916488,207.914313785856,10.,857.827923916488,              101P    248
207.914313785856,0.,855.476169635532,203.916392631192,10.,           101P    249
855.476169635532,203.916392631192,0.,0.,1.82773890198315,0.,         101P    250
2.81278259703153;                                                    101P    251
128,14,1,5,1,0,0,0,0,0,0.0899133677013237,0.0899133677013237,        103P    252
0.0899133677013237,0.0899133677013237,0.0899133677013237,            103P    253
0.0899133677013237,0.1,0.2,0.3,0.4,0.5,0.6,0.7,0.8,0.9,1.,1.,1.,     103P    254
1.,1.,1.,0.,0.,1.,1.,1.,1.,1.,1.,1.,1.,1.,1.,1.,1.,1.,1.,1.,1.,      103P    255
1.,1.,1.,1.,1.,1.,1.,1.,1.,1.,1.,1.,1.,1.,1.,1.,                     103P    256
625.105178199156,-98.3902497818293,0.,625.462402097489,              103P    257
-98.2937608079634,0.,629.372699764696,-97.2036473283082,0.,          103P    258
637.075130170228,-94.3513818985004,0.,649.128277346277,              103P    259
-87.9412270077891,0.,666.443202011641,-75.0443021063104,0.,          103P    260
689.755746395681,-52.2431041197282,0.,715.132071362761,              103P    261
-22.8072585356482,0.,742.345446536951,12.5343411986772,0.,           103P    262
771.15311091396,53.0012663270433,0.,801.339878474582,                103P    263
97.9017362325191,0.,826.464358036249,136.956755499672,0.,            103P    264
845.81399358816,167.875597069286,0.,858.935095262474,                103P    265
189.199737483428,0.,865.550983779153,200.039707417631,0.,            103P    266
625.105178199156,-98.3902497818293,10.,625.462402097489,             103P    267
-98.2937608079634,10.,629.372699764696,-97.2036473283082,10.,        103P    268
637.075130170228,-94.3513818985004,10.,649.128277346277,             103P    269
-87.9412270077891,10.,666.443202011641,-75.0443021063104,10.,        103P    270
689.755746395681,-52.2431041197282,10.,715.132071362761,             103P    271
-22.8072585356482,10.,742.345446536951,12.5343411986772,10.,         103P    272
771.15311091396,53.0012663270433,10.,801.339878474582,               103P    273
97.9017362325191,10.,826.464358036249,136.956755499672,10.,          103P    274
845.81399358816,167.875597069286,10.,858.935095262474,               103P    275
189.199737483428,10.,865.550983779153,200.039707417631,10.,          103P    276
0.0899133677013237,1.,0.,1.;                                         103P    277
128,14,1,5,1,0,0,0,0,0,0.,0.,0.,0.,0.,0.,0.1,0.2,0.3,0.4,0.5,        105P    278
0.6,0.7,0.8,0.9,1.,1.,1.,1.,1.,1.,0.,0.,1.,1.,1.,1.,1.,1.,1.,1.,     105P    279
1.,1.,1.,1.,1.,1.,1.,1.,1.,1.,1.,1.,1.,1.,1.,1.,1.,1.,1.,1.,1.,      105P    280
1.,1.,1.,250.,-175.000000574343,0.,259.98499411367,                  105P    281
-174.872832267949,0.,279.752785411861,-174.504075756124,0.,          105P    282
308.797912386621,-173.607698728926,0.,346.291405522445,              105P    283
-171.714601043887,0.,390.949905588004,-168.098550931323,0.,          105P    284
433.161378665935,-163.097768706099,0.,472.647344766405,              105P    285
-156.5546671464,0.,509.151533730224,-148.324227206352,0.,            105P    286
542.567405922334,-138.346159868015,0.,573.020286018337,              105P    287
-126.691384293164,0.,595.158935062777,-116.109234216801,0.,          105P    288
610.583388830579,-107.505143428662,0.,620.350547805557,              105P    289
-101.477194437548,0.,625.105178199152,-98.3902497818239,0.,250.,     105P    290
-175.000000574343,10.,259.98499411367,-174.872832267949,10.,         105P    291
279.752785411861,-174.504075756124,10.,308.797912386621,             105P    292
-173.607698728926,10.,346.291405522445,-171.714601043887,10.,        105P    293
390.949905588004,-168.098550931323,10.,433.161378665935,             105P    294
-163.097768706099,10.,472.647344766405,-156.5546671464,10.,          105P    295
509.151533730224,-148.324227206352,10.,542.567405922334,             105P    296
-138.346159868015,10.,573.020286018337,-126.691384293164,10.,        105P    297
595.158935062777,-116.109234216801,10.,610.583388830579,             105P    298
-107.505143428662,10.,620.350547805557,-101.477194437548,10.,        105P    299
625.105178199152,-98.3902497818239,10.,0.,1.,0.,1.;                  105P    300
128,1,4,1,2,0,0,0,0,0,0.,0.,0.399999992647667,0.399999992647667,     107P    301
0.,0.,0.,1.57079632832421,1.57079632832421,3.14159265664842,         107P    302
3.14159265664842,3.14159265664842,1.,1.,0.707106780645854,           107P    303
0.707106780645854,1.,1.,0.707106780645854,0.707106780645854,1.,      107P    304
1.,249.999999999999,-124.999999655301,10.,249.999999999999,          107P    305
-124.999999655301,0.,224.999999502246,-124.999999617069,10.,         107P    306
224.999999502246,-124.999999617069,0.,224.999999502246,              107P    307
-150.000000114822,10.,224.999999502246,-150.000000114822,0.,         107P    308
224.999999502246,-175.000000612576,10.,224.999999502246,             107P    309
-175.000000612576,0.,250.,-175.000000574343,10.,250.,                107P    310
-175.000000574343,0.,0.,0.399999992647667,0.,3.14159265664842;       107P    311
128,1,1,1,1,0,0,1,0,0,-32.0341621237175,-32.0341621237175,           109P    312
32.1164130498828,32.1164130498828,-19.0816786694005,                 109P    313
-19.0816786694005,19.2117527666194,19.2117527666194,1.,1.,1.,1.,     109P    314
224.989999464014,-175.010000574343,10.,866.495751200016,             109P    315
-175.010000574343,10.,224.989999464014,207.924313785856,10.,         109P    316
866.495751200016,207.924313785856,10.,-32.0341621237175,             109P    317
32.1164130498828,-19.0816786694005,19.2117527666194;                 109P    318
128,1,1,1,1,0,0,1,0,0,-32.0341621237175,-32.0341621237175,           111P    319
32.1164130498828,32.1164130498828,-19.0816786694005,                 111P    320
-19.0816786694005,19.2117527666194,19.2117527666194,1.,1.,1.,1.,     111P    321
866.495751200016,-175.010000574343,0.,224.989999464014,              111P    322
-175.010000574343,0.,866.495751200016,207.924313785856,0.,           111P    323
224.989999464014,207.924313785856,0.,-32.0341621237175,              111P    324
32.1164130498828,-19.0816786694005,19.2117527666194;                 111P    325
502,16,249.999999999999,-124.999999655301,0.,263.693783443055,       113P    326
-124.999999637536,0.,249.999999999999,-124.999999655301,10.,         113P    327
263.693783443055,-124.999999637536,10.,599.8464018272,               113P    328
-100.160767285142,0.,599.8464018272,-100.160767285142,10.,           113P    329
599.321659983955,-88.9552869563619,0.,599.321659983955,              113P    330
-88.9552869563619,10.,855.476169635532,203.916392631192,0.,          113P    331
855.476169635532,203.916392631192,10.,865.550983779153,              113P    332
200.039707417631,0.,865.550983779153,200.039707417631,10.,           113P    333
625.105178199156,-98.3902497818293,0.,625.105178199156,              113P    334
-98.3902497818293,10.,250.,-175.000000574343,0.,250.,                113P    335
-175.000000574343,10.;                                               113P    336
504,24,45,113,1,113,2,47,113,1,113,3,49,113,4,113,3,51,113,2,        115P    337
113,4,53,113,2,113,5,55,113,6,113,4,57,113,5,113,6,59,113,7,113,     115P    338
5,61,113,8,113,6,63,113,7,113,8,65,113,7,113,9,67,113,10,113,8,      115P    339
69,113,9,113,10,71,113,11,113,9,73,113,12,113,10,75,113,11,113,      115P    340
12,77,113,13,113,11,79,113,14,113,12,81,113,13,113,14,83,113,15,     115P    341
113,13,85,113,16,113,14,87,113,15,113,16,89,113,1,113,15,91,113,     115P    342
3,113,16;                                                            115P    343
406,1,7H본체2;                                                     117P    344
314,62.7450980392157,62.7450980392157,62.7450980392157,15H강철     119P    345
 - 새틴;                                                           119P    346
S      1G      3D    120P    346                                        T      1
