                                                                        S      1
,,32Hrear wing_base_0_45_rear_test v3,8Hrearpart,7Hunknown,7Hunknown,32,G      1
38,7,99,15,,1.,2,2HMM,1,0.08,15H20240529.212508,0.01,10000.,7Hunknown,7HG      2
unknown,11,0,15H20240529.100546;                                        G      3
     186       1                                                00000000D      1
     186            -141       1       0                               0D      2
     186       2                                                00000000D      3
     186            -141       1       0                               0D      4
     514       3                                                00010000D      5
     514                       1       1                               0D      6
     514       4                                                00010000D      7
     514                       1       1                               0D      8
     510       5                                                00010000D      9
     510            -141       1       1                               0D     10
     510       6                                                00010000D     11
     510            -141       1       1                               0D     12
     510       7                                                00010000D     13
     510            -141       1       1                               0D     14
     510       8                                                00010000D     15
     510            -141       1       1                               0D     16
     510       9                                                00010000D     17
     510            -141       1       1                               0D     18
     510      10                                                00010000D     19
     510            -141       1       1                               0D     20
     510      11                                                00010000D     21
     510            -141       1       1                               0D     22
     510      12                                                00010000D     23
     510            -141       1       1                               0D     24
     510      13                                                00010000D     25
     510            -141       1       1                               0D     26
     510      14                                                00010000D     27
     510            -141       1       1                               0D     28
     510      15                                                00010000D     29
     510            -141       1       1                               0D     30
     510      16                                                00010000D     31
     510            -141       1       1                               0D     32
     508      17                                                00010000D     33
     508                       1       1                               0D     34
     508      18                                                00010000D     35
     508                       1       1                               0D     36
     508      19                                                00010000D     37
     508                       1       1                               0D     38
     508      20                                                00010000D     39
     508                       1       1                               0D     40
     508      21                                                00010000D     41
     508                       1       1                               0D     42
     508      22                                                00010000D     43
     508                       1       1                               0D     44
     508      23                                                00010000D     45
     508                       1       1                               0D     46
     508      24                                                00010000D     47
     508                       1       1                               0D     48
     508      25                                                00010000D     49
     508                       1       1                               0D     50
     508      26                                                00010000D     51
     508                       1       1                               0D     52
     508      27                                                00010000D     53
     508                       1       1                               0D     54
     508      28                                                00010000D     55
     508                       1       1                               0D     56
     126      29                                                00010000D     57
     126       0               5       0                               0D     58
     126      34                                                00010000D     59
     126       0               3       0                               0D     60
     126      37                                                00010000D     61
     126       0               5       0                               0D     62
     126      42                                                00010000D     63
     126       0               3       0                               0D     64
     126      45                                                00010000D     65
     126       0               7       0                               0D     66
     126      52                                                00010000D     67
     126       0               7       0                               0D     68
     126      59                                                00010000D     69
     126       0               3       0                               0D     70
     126      62                                                00010000D     71
     126       0               5       0                               0D     72
     126      67                                                00010000D     73
     126       0               5       0                               0D     74
     126      72                                                00010000D     75
     126       0               3       0                               0D     76
     126      75                                                00010000D     77
     126       0               6       0                               0D     78
     126      81                                                00010000D     79
     126       0               7       0                               0D     80
     126      88                                                00010000D     81
     126       0               5       0                               0D     82
     126      93                                                00010000D     83
     126       0               2       0                               0D     84
     126      95                                                00010000D     85
     126       0               6       0                               0D     86
     126     101                                                00010000D     87
     126       0               2       0                               0D     88
     126     103                                                00010000D     89
     126       0               4       0                               0D     90
     126     107                                                00010000D     91
     126       0               5       0                               0D     92
     126     112                                                00010000D     93
     126       0               3       0                               0D     94
     126     115                                                00010000D     95
     126       0               7       0                               0D     96
     126     122                                                00010000D     97
     126       0               7       0                               0D     98
     126     129                                                00010000D     99
     126       0               2       0                               0D    100
     126     131                                                00010000D    101
     126       0               4       0                               0D    102
     126     135                                                00010000D    103
     126       0               4       0                               0D    104
     128     139                                                00010000D    105
     128       0    -141       9       0                               0D    106
     128     148                                                00010000D    107
     128       0    -141      12       0                               0D    108
     128     160                                                00010000D    109
     128       0    -141       8       0                               0D    110
     128     168                                                00010000D    111
     128       0    -141      11       0                               0D    112
     128     179                                                00010000D    113
     128       0    -141       7       0                               0D    114
     128     186                                                00010000D    115
     128       0    -141       7       0                               0D    116
     128     193                                                00010000D    117
     128       0    -141       9       0                               0D    118
     128     202                                                00010000D    119
     128       0    -141       8       0                               0D    120
     128     210                                                00010000D    121
     128       0    -141      12       0                               0D    122
     128     222                                                00010000D    123
     128       0    -141       8       0                               0D    124
     128     230                                                00010000D    125
     128       0    -141       7       0                               0D    126
     128     237                                                00010000D    127
     128       0    -141       7       0                               0D    128
     502     244                                                00010000D    129
     502                       6       1                               0D    130
     502     250                                                00010000D    131
     502                       3       1                               0D    132
     504     253                                                00010001D    133
     504                       3       1                               0D    134
     504     256                                                00010001D    135
     504                       3       1                               0D    136
     406     259                                                00000000D    137
     406                       1      15                               0D    138
     406     260                                                00000000D    139
     406                       1      15                               0D    140
     314     261                                                00000200D    141
     314                       2       0                               0D    142
186,5,1,0,0,1,137;                                                     1P      1
186,7,1,0,0,1,139;                                                     3P      2
514,6,9,1,11,1,13,1,15,1,17,1,19,1;                                    5P      3
514,6,21,1,23,1,25,1,27,1,29,1,31,1;                                   7P      4
510,105,1,1,33;                                                        9P      5
510,107,1,1,35;                                                       11P      6
510,109,1,1,37;                                                       13P      7
510,111,1,1,39;                                                       15P      8
510,113,1,1,41;                                                       17P      9
510,115,1,1,43;                                                       19P     10
510,117,1,1,45;                                                       21P     11
510,119,1,1,47;                                                       23P     12
510,121,1,1,49;                                                       25P     13
510,123,1,1,51;                                                       27P     14
510,125,1,1,53;                                                       29P     15
510,127,1,1,55;                                                       31P     16
508,4,0,133,1,0,0,0,133,2,1,0,0,133,3,0,0,0,133,4,0,0;                33P     17
508,4,0,133,5,1,0,0,133,4,1,0,0,133,6,0,0,0,133,7,0,0;                35P     18
508,4,0,133,8,1,0,0,133,7,1,0,0,133,9,0,0,0,133,10,0,0;               37P     19
508,4,0,133,11,1,0,0,133,10,1,0,0,133,12,0,0,0,133,2,0,0;             39P     20
508,4,0,133,12,1,0,0,133,9,1,0,0,133,6,1,0,0,133,3,1,0;               41P     21
508,4,0,133,11,0,0,0,133,1,1,0,0,133,5,0,0,0,133,8,0,0;               43P     22
508,4,0,135,1,1,0,0,135,2,1,0,0,135,3,0,0,0,135,4,0,0;                45P     23
508,4,0,135,5,0,0,0,135,4,1,0,0,135,6,0,0,0,135,7,0,0;                47P     24
508,4,0,135,8,1,0,0,135,7,1,0,0,135,9,0,0,0,135,10,0,0;               49P     25
508,4,0,135,11,1,0,0,135,10,1,0,0,135,12,0,0,0,135,2,0,0;             51P     26
508,4,0,135,12,1,0,0,135,9,1,0,0,135,6,1,0,0,135,3,1,0;               53P     27
508,4,0,135,11,0,0,0,135,1,0,0,0,135,5,1,0,0,135,8,0,0;               55P     28
126,2,2,0,0,0,0,0.,0.,0.,0.588588649829712,0.588588649829712,         57P     29
0.588588649829712,1.,0.957007071939604,1.,307.322330470336,           57P     30
-12.3223304703363,0.,421.26883059589,51.5794719742109,0.,             57P     31
480.563495496206,167.989900892259,0.,0.,0.588588649829712,0.,0.,      57P     32
0.;                                                                   57P     33
126,1,1,0,0,1,0,0.,0.,0.0001,0.0001,1.,1.,307.322330470336,           59P     34
-12.3223304703363,0.,307.322330470336,-12.3223304703363,0.001,        59P     35
0.,0.0001,0.,0.,0.;                                                   59P     36
126,2,2,0,0,0,0,-0.588588649829712,-0.588588649829712,                61P     37
-0.588588649829712,0.,0.,0.,1.,0.957007071939604,1.,                  61P     38
480.563495496206,167.989900892259,0.001,421.26883059589,              61P     39
51.5794719742109,0.001,307.322330470336,-12.3223304703363,0.001,      61P     40
-0.588588649829712,0.,0.,0.,0.;                                       61P     41
126,1,1,0,0,1,0,0.,0.,0.0001,0.0001,1.,1.,480.563495496206,           63P     42
167.989900892259,0.,480.563495496206,167.989900892259,0.001,0.,       63P     43
0.0001,0.,0.,0.;                                                      63P     44
126,4,2,0,0,0,0,0.,0.,0.,1.08084040300282,1.08084040300282,           65P     45
2.16168080600564,2.16168080600564,2.16168080600564,1.,                65P     46
0.857492564932205,1.,0.857492564931925,1.,484.099025766973,           65P     47
164.454364826301,0.,484.594004440837,166.080710352431,0.,             65P     48
483.391923137252,167.282793626382,0.,482.189841833667,                65P     49
168.484876900334,0.,480.563495496206,167.989900892259,0.,0.,          65P     50
2.16168080600564,0.,0.,0.;                                            65P     51
126,4,2,0,0,0,0,0.,0.,0.,1.08084040300282,1.08084040300282,           67P     52
2.16168080600564,2.16168080600564,2.16168080600564,1.,                67P     53
0.857492564932205,1.,0.857492564931925,1.,484.099025766973,           67P     54
164.454364826301,0.001,484.594004440837,166.080710352431,0.001,       67P     55
483.391923137252,167.282793626382,0.001,482.189841833667,             67P     56
168.484876900334,0.001,480.563495496206,167.989900892259,0.001,       67P     57
0.,2.16168080600564,0.,0.,0.;                                         67P     58
126,1,1,0,0,1,0,0.,0.,0.0001,0.0001,1.,1.,484.099025766973,           69P     59
164.454364826301,0.,484.099025766973,164.454364826301,0.001,0.,       69P     60
0.0001,0.,0.,0.;                                                      69P     61
126,2,2,0,0,0,0,0.,0.,0.,0.396584056345813,0.396584056345813,         71P     62
0.396584056345813,1.,0.9804044697872,1.,342.677669529664,             71P     63
-47.6776695296636,0.,434.700457061157,44.180274706426,0.,             71P     64
484.099025766973,164.4543648263,0.,0.,0.396584056345813,0.,0.,        71P     65
0.;                                                                   71P     66
126,2,2,0,0,0,0,0.,0.,0.,0.396584056345813,0.396584056345813,         73P     67
0.396584056345813,1.,0.9804044697872,1.,342.677669529664,             73P     68
-47.6776695296636,0.001,434.700457061157,44.180274706426,0.001,       73P     69
484.099025766973,164.4543648263,0.001,0.,0.396584056345813,0.,        73P     70
0.,0.;                                                                73P     71
126,1,1,0,0,1,0,0.,0.,0.0001,0.0001,1.,1.,342.677669529664,           75P     72
-47.6776695296637,0.,342.677669529664,-47.6776695296637,0.001,        75P     73
0.,0.0001,0.,0.,0.;                                                   75P     74
126,4,2,0,0,0,0,0.,0.,0.,1.5707963267949,1.5707963267949,             77P     75
3.14159265358979,3.14159265358979,3.14159265358979,1.,                77P     76
0.707106781186547,1.,0.707106781186547,1.,307.322330470336,           77P     77
-12.3223304703363,0.,289.644660940673,-30.,0.,307.322330470336,       77P     78
-47.6776695296637,0.,325.,-65.3553390593274,0.,342.677669529664,      77P     79
-47.6776695296637,0.,0.,3.14159265358979,0.,0.,0.;                    77P     80
126,4,2,0,0,0,0,0.,0.,0.,1.5707963267949,1.5707963267949,             79P     81
3.14159265358979,3.14159265358979,3.14159265358979,1.,                79P     82
0.707106781186547,1.,0.707106781186547,1.,307.322330470336,           79P     83
-12.3223304703363,0.001,289.644660940673,-30.,0.001,                  79P     84
307.322330470336,-47.6776695296637,0.001,325.,-65.3553390593274,      79P     85
0.001,342.677669529664,-47.6776695296637,0.001,0.,                    79P     86
3.14159265358979,0.,0.,0.;                                            79P     87
126,4,2,0,0,0,0,0.,0.,0.,1.5707963267949,1.5707963267949,             81P     88
3.14159265358979,3.14159265358979,3.14159265358979,1.,                81P     89
0.707106781186548,1.,0.707106781186548,1.,25.,-75.,0.,                81P     90
7.65404249467096D-16,-75.,0.,0.,-100.,0.,-7.65404249467096D-16,       81P     91
-125.,0.,25.,-125.,0.,0.,3.14159265358979,0.,0.,0.;                   81P     92
126,1,1,0,0,1,0,0.,0.,0.0001,0.0001,1.,1.,25.,-125.,0.,25.,           83P     93
-125.,0.001,0.,0.0001,0.,0.,0.;                                       83P     94
126,4,2,0,0,0,0,0.,0.,0.,1.5707963267949,1.5707963267949,             85P     95
3.14159265358979,3.14159265358979,3.14159265358979,1.,                85P     96
0.707106781186548,1.,0.707106781186548,1.,25.,-75.,0.001,             85P     97
7.65404249467096D-16,-75.,0.001,0.,-100.,0.001,                       85P     98
-7.65404249467096D-16,-125.,0.001,25.,-125.,0.001,0.,                 85P     99
3.14159265358979,0.,0.,0.;                                            85P    100
126,1,1,0,0,1,0,0.,0.,0.0001,0.0001,1.,1.,25.,-75.,0.,25.,-75.,       87P    101
0.001,0.,0.0001,0.,0.,0.;                                             87P    102
126,2,2,0,0,0,0,0.,0.,0.,0.588588649829711,0.588588649829711,         89P    103
0.588588649829711,1.,0.957007071939602,1.,25.,-75.,0.,                89P    104
150.757740769835,-110.38694509267,0.,275.000004097819,                89P    105
-70.0000010430812,0.,0.,0.588588649829711,0.,0.,0.;                   89P    106
126,2,2,0,0,0,0,-0.588588649829711,-0.588588649829711,                91P    107
-0.588588649829711,0.,0.,0.,1.,0.957007071939602,1.,                  91P    108
275.000004097819,-70.0000010430812,0.001,150.757740769835,            91P    109
-110.38694509267,0.001,25.,-75.,0.001,-0.588588649829711,0.,0.,       91P    110
0.,0.;                                                                91P    111
126,1,1,0,0,1,0,0.,0.,0.0001,0.0001,1.,1.,275.000004097819,           93P    112
-70.0000010430813,0.,275.000004097819,-70.0000010430813,0.001,        93P    113
0.,0.0001,0.,0.,0.;                                                   93P    114
126,4,2,0,0,0,0,0.,0.,0.,1.08084040300283,1.08084040300283,           95P    115
2.16168080600565,2.16168080600565,2.16168080600565,1.,                95P    116
0.857492564932047,1.,0.857492564932021,1.,275.,-75.,0.,               95P    117
276.500002726911,-74.2000028267531,0.,276.500004120171,               95P    118
-72.5000017508884,0.,276.50000551343,-70.8000006750237,0.,            95P    119
275.000004097819,-70.0000010430813,0.,0.,2.16168080600565,0.,0.,      95P    120
0.;                                                                   95P    121
126,4,2,0,0,0,0,0.,0.,0.,1.08084040300283,1.08084040300283,           97P    122
2.16168080600565,2.16168080600565,2.16168080600565,1.,                97P    123
0.857492564932047,1.,0.857492564932021,1.,275.,-75.,0.001,            97P    124
276.500002726911,-74.2000028267531,0.001,276.500004120171,            97P    125
-72.5000017508884,0.001,276.50000551343,-70.8000006750237,0.001,      97P    126
275.000004097819,-70.0000010430813,0.001,0.,2.16168080600565,0.,      97P    127
0.,0.;                                                                97P    128
126,1,1,0,0,1,0,0.,0.,0.0001,0.0001,1.,1.,275.,-75.,0.,275.,          99P    129
-75.,0.001,0.,0.0001,0.,0.,0.;                                        99P    130
126,2,2,0,0,0,0,0.,0.,0.,0.396584056345813,0.396584056345813,        101P    131
0.396584056345813,1.,0.980404469787214,1.,25.,-125.,0.,              101P    132
155.023312362403,-125.116561812013,0.,275.,-75.,0.,0.,               101P    133
0.396584056345813,0.,0.,0.;                                          101P    134
126,2,2,0,0,0,0,0.,0.,0.,0.396584056345813,0.396584056345813,        103P    135
0.396584056345813,1.,0.980404469787214,1.,25.,-125.,0.001,           103P    136
155.023312362403,-125.116561812013,0.001,275.,-75.,0.001,0.,         103P    137
0.396584056345813,0.,0.,0.;                                          103P    138
128,1,2,1,2,0,0,0,0,0,0.,0.,2.32005268887061D-6,                     105P    139
2.32005268887061D-6,-8.24248292328851D-17,-8.24248292328851D-17,     105P    140
-8.24248292328851D-17,0.588588649829712,0.588588649829712,           105P    141
0.588588649829712,1.,1.,0.9570070719396,0.9570070719396,1.,1.,       105P    142
307.322330470336,-12.3223304703363,0.,307.322330470336,              105P    143
-12.3223304703363,0.001,421.26883059589,51.579471974211,0.,          105P    144
421.26883059589,51.579471974211,0.001,480.563495496206,              105P    145
167.989900892259,0.,480.563495496206,167.989900892259,0.001,0.,      105P    146
2.32005268887061D-6,-8.24248292328851D-17,0.588588649829712;         105P    147
128,1,4,1,2,0,0,0,0,0,0.,0.,0.000352941514092243,                    107P    148
0.000352941514092243,0.,0.,0.,1.08084040300282,1.08084040300282,     107P    149
2.16168080600564,2.16168080600564,2.16168080600564,1.,1.,            107P    150
0.857492564932049,0.857492564932049,1.,1.,0.857492564932049,         107P    151
0.857492564932049,1.,1.,484.099025766973,164.454364826301,0.001,     107P    152
484.099025766973,164.454364826301,0.,484.594004440837,               107P    153
166.080710352431,0.001,484.594004440837,166.080710352431,0.,         107P    154
483.391923137252,167.282793626382,0.001,483.391923137252,            107P    155
167.282793626382,0.,482.189841833667,168.484876900334,0.001,         107P    156
482.189841833667,168.484876900334,0.,480.563495496206,               107P    157
167.989900892259,0.001,480.563495496206,167.989900892259,0.,0.,      107P    158
0.000352941514092243,0.,2.16168080600564;                            107P    159
128,1,2,1,2,0,0,0,0,0,0.,0.,1.54535682951854D-6,                     109P    160
1.54535682951854D-6,0.,0.,0.,0.396584056345813,                      109P    161
0.396584056345813,0.396584056345813,1.,1.,0.980404469787206,         109P    162
0.980404469787206,1.,1.,342.677669529664,-47.6776695296636,          109P    163
0.001,342.677669529664,-47.6776695296636,0.,434.700457061157,        109P    164
44.1802747064262,0.001,434.700457061157,44.1802747064262,0.,         109P    165
484.099025766973,164.454364826301,0.001,484.099025766973,            109P    166
164.454364826301,0.,0.,1.54535682951854D-6,0.,0.396584056345813;     109P    167
128,1,4,1,2,0,0,0,0,0,0.,0.,4D-5,4D-5,0.,0.,0.,1.5707963267949,      111P    168
1.5707963267949,3.14159265358979,3.14159265358979,                   111P    169
3.14159265358979,1.,1.,0.707106781186548,0.707106781186548,1.,       111P    170
1.,0.707106781186548,0.707106781186548,1.,1.,307.322330470336,       111P    171
-12.3223304703363,0.001,307.322330470336,-12.3223304703363,0.,       111P    172
289.644660940673,-30.,0.001,289.644660940673,-30.,0.,                111P    173
307.322330470336,-47.6776695296637,0.001,307.322330470336,           111P    174
-47.6776695296637,0.,325.,-65.3553390593274,0.001,325.,              111P    175
-65.3553390593274,0.,342.677669529664,-47.6776695296637,0.001,       111P    176
342.677669529664,-47.6776695296637,0.,0.,4D-5,0.,                    111P    177
3.14159265358979;                                                    111P    178
128,1,1,1,1,0,0,1,0,0,-10.2476231470033,-10.2476231470033,           113P    179
9.24931120301313,9.24931120301313,-12.1921668356568,                 113P    180
-12.1921668356568,11.1938547603093,11.1938547603093,1.,1.,1.,1.,     113P    181
289.634660940673,-65.3653390593274,0.001,484.604004440837,           113P    182
-65.3653390593274,0.001,289.634660940673,168.494876900334,0.001,     113P    183
484.604004440837,168.494876900334,0.001,-10.2476231470033,           113P    184
9.24931120301313,-12.1921668356568,11.1938547603093;                 113P    185
128,1,1,1,1,0,0,1,0,0,-10.2476231470033,-10.2476231470033,           115P    186
9.24931120301314,9.24931120301314,-12.1921668356568,                 115P    187
-12.1921668356568,11.1938547603093,11.1938547603093,1.,1.,1.,1.,     115P    188
484.604004440837,-65.3653390593274,0.,289.634660940673,              115P    189
-65.3653390593274,0.,484.604004440837,168.494876900334,0.,           115P    190
289.634660940673,168.494876900334,0.,-10.2476231470033,              115P    191
9.24931120301314,-12.1921668356568,11.1938547603093;                 115P    192
128,1,4,1,2,0,0,0,0,0,0.,0.,4D-5,4D-5,-7.105427357601D-16,           117P    193
-7.105427357601D-16,-7.105427357601D-16,1.5707963267949,             117P    194
1.5707963267949,3.14159265358979,3.14159265358979,                   117P    195
3.14159265358979,1.,1.,0.707106781186547,0.707106781186547,1.,       117P    196
1.,0.707106781186547,0.707106781186547,1.,1.,25.,-75.,0.001,25.,     117P    197
-75.,0.,-4.44089209850063D-15,-75.,0.001,-4.44089209850063D-15,      117P    198
-75.,0.,0.,-100.,0.001,0.,-100.,0.,-4.44089209850063D-15,-125.,      117P    199
0.001,-4.44089209850063D-15,-125.,0.,25.,-125.,0.001,25.,-125.,      117P    200
0.,0.,4D-5,-7.105427357601D-16,3.14159265358979;                     117P    201
128,1,2,1,2,0,0,0,0,0,0.,0.,2.32005268887061D-6,                     119P    202
2.32005268887061D-6,4.12124146164425D-17,4.12124146164425D-17,       119P    203
4.12124146164425D-17,0.588588649829711,0.588588649829711,            119P    204
0.588588649829711,1.,1.,0.9570070719396,0.9570070719396,1.,1.,       119P    205
25.,-75.,0.,25.,-75.,0.001,150.757740769835,-110.38694509267,0.,     119P    206
150.757740769835,-110.38694509267,0.001,275.000004097819,            119P    207
-70.0000010430813,0.,275.000004097819,-70.0000010430813,0.001,       119P    208
0.,2.32005268887061D-6,4.12124146164425D-17,0.588588649829711;       119P    209
128,1,4,1,2,0,0,0,0,0,0.,0.,0.000352941514092243,                    121P    210
0.000352941514092243,0.,0.,0.,1.08084040300284,1.08084040300284,     121P    211
2.16168080600567,2.16168080600567,2.16168080600567,1.,1.,            121P    212
0.857492564932046,0.857492564932046,1.,1.,0.857492564932046,         121P    213
0.857492564932046,1.,1.,275.,-75.,0.001,275.,-75.,0.,                121P    214
276.500002726911,-74.2000028267531,0.001,276.500002726911,           121P    215
-74.2000028267531,0.,276.500004120171,-72.5000017508884,0.001,       121P    216
276.500004120171,-72.5000017508884,0.,276.50000551343,               121P    217
-70.8000006750237,0.001,276.50000551343,-70.8000006750237,0.,        121P    218
275.000004097819,-70.0000010430813,0.001,275.000004097819,           121P    219
-70.0000010430813,0.,0.,0.000352941514092243,0.,                     121P    220
2.16168080600567;                                                    121P    221
128,1,2,1,2,0,0,0,0,0,0.,0.,1.54535682951854D-6,                     123P    222
1.54535682951854D-6,-6.86276293357287D-18,-6.86276293357287D-18,     123P    223
-6.86276293357287D-18,0.396584056345813,0.396584056345813,           123P    224
0.396584056345813,1.,1.,0.980404469787206,0.980404469787206,1.,      123P    225
1.,25.,-125.,0.001,25.,-125.,0.,155.023312362403,                    123P    226
-125.116561812013,0.001,155.023312362403,-125.116561812013,0.,       123P    227
275.,-74.9999999999999,0.001,275.,-74.9999999999999,0.,0.,           123P    228
1.54535682951854D-6,-6.86276293357287D-18,0.396584056345813;         123P    229
128,1,1,1,1,0,0,1,0,0,-13.8260002060086,-13.8260002060086,           125P    230
13.8260003453345,13.8260003453345,-2.76264312791724,                 125P    231
-2.76264312791724,2.75101294897593,2.75101294897593,1.,1.,1.,1.,     125P    232
-0.00999999999999446,-125.126561812013,0.001,276.51000551343,        125P    233
-125.126561812013,0.001,-0.00999999999999446,-69.9900010430812,      125P    234
0.001,276.51000551343,-69.9900010430812,0.001,-13.8260002060086,     125P    235
13.8260003453345,-2.76264312791724,2.75101294897593;                 125P    236
128,1,1,1,1,0,0,1,0,0,-13.8260002060086,-13.8260002060086,           127P    237
13.8260003453345,13.8260003453345,-2.76264312791724,                 127P    238
-2.76264312791724,2.75101294897593,2.75101294897593,1.,1.,1.,1.,     127P    239
276.51000551343,-125.126561812013,0.,-0.00999999999999446,           127P    240
-125.126561812013,0.,276.51000551343,-69.9900010430812,0.,           127P    241
-0.00999999999999446,-69.9900010430812,0.,-13.8260002060086,         127P    242
13.8260003453345,-2.76264312791724,2.75101294897593;                 127P    243
502,8,307.322330470336,-12.3223304703363,0.,480.563495496206,        129P    244
167.989900892259,0.,307.322330470336,-12.3223304703363,0.001,        129P    245
480.563495496206,167.989900892259,0.001,484.099025766973,            129P    246
164.454364826301,0.,484.099025766973,164.454364826301,0.001,         129P    247
342.677669529664,-47.6776695296637,0.,342.677669529664,              129P    248
-47.6776695296637,0.001;                                             129P    249
502,8,25.,-75.,0.,25.,-125.,0.,25.,-125.,0.001,25.,-75.,0.001,       131P    250
275.000004097819,-70.0000010430813,0.,275.000004097819,              131P    251
-70.0000010430813,0.001,275.,-75.,0.,275.,-75.,0.001;                131P    252
504,12,57,129,1,129,2,59,129,1,129,3,61,129,4,129,3,63,129,2,        133P    253
129,4,65,129,5,129,2,67,129,6,129,4,69,129,5,129,6,71,129,7,129,     133P    254
5,73,129,8,129,6,75,129,7,129,8,77,129,1,129,7,79,129,3,129,8;       133P    255
504,12,81,131,1,131,2,83,131,2,131,3,85,131,4,131,3,87,131,1,        135P    256
131,4,89,131,1,131,5,91,131,6,131,4,93,131,5,131,6,95,131,7,131,     135P    257
5,97,131,8,131,6,99,131,7,131,8,101,131,2,131,7,103,131,3,131,8;     135P    258
406,1,7H본체5;                                                     137P    259
406,1,7H본체6;                                                     139P    260
314,62.7450980392157,62.7450980392157,62.7450980392157,15H강철     141P    261
 - 새틴;                                                           141P    262
S      1G      3D    142P    262                                        T      1
