                                                                        S      1
,,32Hrear wing_base_0_45_rear_test v1,32Hrear wing_base_0_45_rear_test vG      1
1,7Hunknown,7Hunknown,32,38,7,99,15,,1.,2,2HMM,1,0.08,15H20240524.220532G      2
,0.01,10000.,7Hunknown,7Hunknown,11,0,15H20240523.074653;               G      3
     186       1                                                00000000D      1
     186            -151       1       0                               0D      2
     514       2                                                00010000D      3
     514                       1       1                               0D      4
     510       3                                                00010000D      5
     510            -151       1       1                               0D      6
     510       4                                                00010000D      7
     510            -151       1       1                               0D      8
     510       5                                                00010000D      9
     510            -151       1       1                               0D     10
     510       6                                                00010000D     11
     510            -151       1       1                               0D     12
     510       7                                                00010000D     13
     510            -151       1       1                               0D     14
     510       8                                                00010000D     15
     510            -151       1       1                               0D     16
     510       9                                                00010000D     17
     510            -151       1       1                               0D     18
     510      10                                                00010000D     19
     510            -151       1       1                               0D     20
     510      11                                                00010000D     21
     510            -151       1       1                               0D     22
     510      12                                                00010000D     23
     510            -151       1       1                               0D     24
     510      13                                                00010000D     25
     510            -151       1       1                               0D     26
     510      14                                                00010000D     27
     510            -151       1       1                               0D     28
     508      15                                                00010000D     29
     508                       1       1                               0D     30
     508      16                                                00010000D     31
     508                       1       1                               0D     32
     508      17                                                00010000D     33
     508                       1       1                               0D     34
     508      18                                                00010000D     35
     508                       1       1                               0D     36
     508      19                                                00010000D     37
     508                       1       1                               0D     38
     508      20                                                00010000D     39
     508                       1       1                               0D     40
     508      21                                                00010000D     41
     508                       1       1                               0D     42
     508      22                                                00010000D     43
     508                       1       1                               0D     44
     508      23                                                00010000D     45
     508                       1       1                               0D     46
     508      24                                                00010000D     47
     508                       1       1                               0D     48
     508      25                                                00010000D     49
     508                       1       1                               0D     50
     508      26                                                00010000D     51
     508                       1       1                               0D     52
     508      27                                                00010000D     53
     508                       1       1                               0D     54
     508      28                                                00010000D     55
     508                       1       1                               0D     56
     508      29                                                00010000D     57
     508                       1       1                               0D     58
     508      30                                                00010000D     59
     508                       1       1                               0D     60
     126      31                                                00010000D     61
     126       0               5       0                               0D     62
     126      36                                                00010000D     63
     126       0               2       0                               0D     64
     126      38                                                00010000D     65
     126       0               5       0                               0D     66
     126      43                                                00010000D     67
     126       0               2       0                               0D     68
     126      45                                                00010000D     69
     126       0               5       0                               0D     70
     126      50                                                00010000D     71
     126       0               2       0                               0D     72
     126      52                                                00010000D     73
     126       0               5       0                               0D     74
     126      57                                                00010000D     75
     126       0               5       0                               0D     76
     126      62                                                00010000D     77
     126       0               6       0                               0D     78
     126      68                                                00010000D     79
     126       0               5       0                               0D     80
     126      73                                                00010000D     81
     126       0               3       0                               0D     82
     126      76                                                00010000D     83
     126       0               5       0                               0D     84
     126      81                                                00010000D     85
     126       0               3       0                               0D     86
     126      84                                                00010000D     87
     126       0               6       0                               0D     88
     126      90                                                00010000D     89
     126       0               3       0                               0D     90
     126      93                                                00010000D     91
     126       0               6       0                               0D     92
     126      99                                                00010000D     93
     126       0               6       0                               0D     94
     126     105                                                00010000D     95
     126       0               7       0                               0D     96
     126     112                                                00010000D     97
     126       0               2       0                               0D     98
     126     114                                                00010000D     99
     126       0               2       0                               0D    100
     126     116                                                00010000D    101
     126       0               2       0                               0D    102
     126     118                                                00010000D    103
     126       0               2       0                               0D    104
     126     120                                                00010000D    105
     126       0               2       0                               0D    106
     126     122                                                00010000D    107
     126       0               2       0                               0D    108
     126     124                                                00010000D    109
     126       0               2       0                               0D    110
     126     126                                                00010000D    111
     126       0               2       0                               0D    112
     126     128                                                00010000D    113
     126       0               2       0                               0D    114
     126     130                                                00010000D    115
     126       0               2       0                               0D    116
     126     132                                                00010000D    117
     126       0               2       0                               0D    118
     126     134                                                00010000D    119
     126       0               2       0                               0D    120
     128     136                                                00010000D    121
     128       0    -151       6       0                               0D    122
     128     142                                                00010000D    123
     128       0    -151       8       0                               0D    124
     128     150                                                00010000D    125
     128       0    -151       8       0                               0D    126
     128     158                                                00010000D    127
     128       0    -151       8       0                               0D    128
     128     166                                                00010000D    129
     128       0    -151       9       0                               0D    130
     128     175                                                00010000D    131
     128       0    -151      11       0                               0D    132
     128     186                                                00010000D    133
     128       0    -151       4       0                               0D    134
     128     190                                                00010000D    135
     128       0    -151       4       0                               0D    136
     128     194                                                00010000D    137
     128       0    -151       4       0                               0D    138
     128     198                                                00010000D    139
     128       0    -151       4       0                               0D    140
     128     202                                                00010000D    141
     128       0    -151       4       0                               0D    142
     128     206                                                00010000D    143
     128       0    -151       4       0                               0D    144
     502     210                                                00010000D    145
     502                       8       1                               0D    146
     504     218                                                00010001D    147
     504                       8       1                               0D    148
     406     226                                                00000000D    149
     406                       1      15                               0D    150
     314     227                                                00000200D    151
     314                       2       0                               0D    152
186,3,1,0,0,1,149;                                                     1P      1
514,12,5,1,7,1,9,1,11,1,13,1,15,1,17,1,19,1,21,1,23,1,25,1,27,1;       3P      2
510,121,1,1,29;                                                        5P      3
510,123,1,1,31;                                                        7P      4
510,125,1,1,33;                                                        9P      5
510,127,1,1,35;                                                       11P      6
510,129,1,1,37;                                                       13P      7
510,131,1,1,39;                                                       15P      8
510,133,1,1,41;                                                       17P      9
510,135,1,1,43;                                                       19P     10
510,137,1,1,45;                                                       21P     11
510,139,1,1,47;                                                       23P     12
510,141,3,1,49,51,53;                                                 25P     13
510,143,3,1,55,57,59;                                                 27P     14
508,4,0,147,1,0,0,0,147,2,1,0,0,147,3,0,0,0,147,4,0,0;                29P     15
508,4,0,147,5,0,0,0,147,6,1,0,0,147,7,0,0,0,147,2,0,0;                31P     16
508,4,0,147,8,0,0,0,147,4,1,0,0,147,9,0,0,0,147,6,0,0;                33P     17
508,4,0,147,10,0,0,0,147,11,1,0,0,147,12,0,0,0,147,13,0,0;            35P     18
508,4,0,147,14,0,0,0,147,15,1,0,0,147,16,0,0,0,147,11,0,0;            37P     19
508,4,0,147,17,0,0,0,147,13,1,0,0,147,18,0,0,0,147,15,0,0;            39P     20
508,4,0,147,19,0,0,0,147,20,1,0,0,147,21,0,0,0,147,22,0,0;            41P     21
508,4,0,147,23,0,0,0,147,22,1,0,0,147,24,0,0,0,147,25,0,0;            43P     22
508,4,0,147,26,0,0,0,147,25,1,0,0,147,27,0,0,0,147,28,0,0;            45P     23
508,4,0,147,29,0,0,0,147,28,1,0,0,147,30,0,0,0,147,20,0,0;            47P     24
508,4,0,147,30,1,0,0,147,27,1,0,0,147,24,1,0,0,147,21,1,0;            49P     25
508,3,0,147,3,1,0,0,147,7,1,0,0,147,9,1,0;                            51P     26
508,3,0,147,12,1,0,0,147,16,1,0,0,147,18,1,0;                         53P     27
508,4,0,147,29,1,0,0,147,19,1,0,0,147,23,1,0,0,147,26,1,0;            55P     28
508,3,0,147,1,1,0,0,147,8,1,0,0,147,5,1,0;                            57P     29
508,3,0,147,10,1,0,0,147,17,1,0,0,147,14,1,0;                         59P     30
126,2,2,0,0,0,0,-0.791375176045578,-0.791375176045578,                61P     31
-0.791375176045578,5.40480342111651D-17,5.40480342111651D-17,         61P     32
5.40480342111651D-17,1.,0.922731756696372,1.,275.,                    61P     33
-75.0000000000001,0.,150.,-127.214895658934,0.,25.,-75.,0.,           61P     34
-0.791375176045578,5.40480342111651D-17,0.,0.,0.;                     61P     35
126,1,1,0,0,1,0,0.,0.,0.0001,0.0001,1.,1.,275.,-75.,0.,275.,          63P     36
-75.,0.001,0.,0.0001,0.,0.,0.;                                        63P     37
126,2,2,0,0,0,0,-5.40480342111651D-17,-5.40480342111651D-17,          65P     38
-5.40480342111651D-17,0.791375176045578,0.791375176045578,            65P     39
0.791375176045578,1.,0.922731756696372,1.,25.,-75.,0.001,150.,        65P     40
-127.214895658934,0.001,275.,-75.0000000000001,0.001,                 65P     41
-5.40480342111651D-17,0.791375176045578,0.,0.,0.;                     65P     42
126,1,1,0,0,1,0,0.,0.,0.0001,0.0001,1.,1.,25.,-75.,0.,25.,-75.,       67P     43
0.001,0.,0.0001,0.,0.,0.;                                             67P     44
126,2,2,0,0,0,0,-6.8935214196963D-18,-6.8935214196963D-18,            69P     45
-6.8935214196963D-18,0.396584056345813,0.396584056345813,             69P     46
0.396584056345813,1.,0.980404469787214,1.,25.,-125.,0.,               69P     47
155.023312362403,-125.116561812013,0.,275.,-75.,0.,                   69P     48
-6.8935214196963D-18,0.396584056345813,0.,0.,0.;                      69P     49
126,1,1,0,0,1,0,0.,0.,0.0001,0.0001,1.,1.,25.,-125.,0.,25.,           71P     50
-125.,0.001,0.,0.0001,0.,0.,0.;                                       71P     51
126,2,2,0,0,0,0,-0.396584056345813,-0.396584056345813,                73P     52
-0.396584056345813,6.8935214196963D-18,6.8935214196963D-18,           73P     53
6.8935214196963D-18,1.,0.980404469787214,1.,275.,-75.,0.001,          73P     54
155.023312362403,-125.116561812013,0.001,25.,-125.,0.001,             73P     55
-0.396584056345813,6.8935214196963D-18,0.,0.,0.;                      73P     56
126,4,2,0,0,0,0,0.,0.,0.,1.5707963267949,1.5707963267949,             75P     57
3.14159265358979,3.14159265358979,3.14159265358979,1.,                75P     58
0.707106781186548,1.,0.707106781186548,1.,25.,-75.,0.,                75P     59
7.65404249467096D-16,-75.,0.,0.,-100.,0.,-7.65404249467096D-16,       75P     60
-125.,0.,25.,-125.,0.,0.,3.14159265358979,0.,0.,0.;                   75P     61
126,4,2,0,0,0,0,-3.14159265358979,-3.14159265358979,                  77P     62
-3.14159265358979,-1.5707963267949,-1.5707963267949,0.,0.,0.,1.,      77P     63
0.707106781186548,1.,0.707106781186548,1.,25.,-125.,0.001,            77P     64
-7.65404249467096D-16,-125.,0.001,0.,-100.,0.001,                     77P     65
7.65404249467096D-16,-75.,0.001,25.,-75.,0.001,                       77P     66
-3.14159265358979,0.,0.,0.,0.;                                        77P     67
126,2,2,0,0,0,0,-0.791375176045579,-0.791375176045579,                79P     68
-0.791375176045579,0.,0.,0.,1.,0.922731756696372,1.,                  79P     69
459.099025766973,164.454364826301,0.,407.632184918035,                79P     70
39.1445103786019,0.,282.322330470336,-12.3223304703363,0.,            79P     71
-0.791375176045579,0.,0.,0.,0.;                                       79P     72
126,1,1,0,0,1,0,0.,0.,0.0001,0.0001,1.,1.,459.099025766973,           81P     73
164.454364826301,0.,459.099025766973,164.454364826301,0.001,0.,       81P     74
0.0001,0.,0.,0.;                                                      81P     75
126,2,2,0,0,0,0,0.,0.,0.,0.791375176045579,0.791375176045579,         83P     76
0.791375176045579,1.,0.922731756696372,1.,282.322330470336,           83P     77
-12.3223304703363,0.001,407.632184918035,39.1445103786019,0.001,      83P     78
459.099025766973,164.454364826301,0.001,0.,0.791375176045579,0.,      83P     79
0.,0.;                                                                83P     80
126,1,1,0,0,1,0,0.,0.,0.0001,0.0001,1.,1.,282.322330470336,           85P     81
-12.3223304703363,0.,282.322330470336,-12.3223304703363,0.001,        85P     82
0.,0.0001,0.,0.,0.;                                                   85P     83
126,2,2,0,0,0,0,-1.08599475904139D-16,-1.08599475904139D-16,          87P     84
-1.08599475904139D-16,0.396584056345813,0.396584056345813,            87P     85
0.396584056345813,1.,0.980404469787199,1.,317.677669529664,           87P     86
-47.6776695296638,0.,409.700457061157,44.1802747064263,0.,            87P     87
459.099025766973,164.4543648263,0.,-1.08599475904139D-16,             87P     88
0.396584056345813,0.,0.,0.;                                           87P     89
126,1,1,0,0,1,0,0.,0.,0.0001,0.0001,1.,1.,317.677669529664,           89P     90
-47.6776695296637,0.,317.677669529664,-47.6776695296637,0.001,        89P     91
0.,0.0001,0.,0.,0.;                                                   89P     92
126,2,2,0,0,0,0,-0.396584056345813,-0.396584056345813,                91P     93
-0.396584056345813,1.08599475904139D-16,1.08599475904139D-16,         91P     94
1.08599475904139D-16,1.,0.980404469787199,1.,459.099025766973,        91P     95
164.4543648263,0.001,409.700457061157,44.1802747064263,0.001,         91P     96
317.677669529664,-47.6776695296638,0.001,-0.396584056345813,          91P     97
1.08599475904139D-16,0.,0.,0.;                                        91P     98
126,4,2,0,0,0,0,0.,0.,0.,1.5707963267949,1.5707963267949,             93P     99
3.14159265358979,3.14159265358979,3.14159265358979,1.,                93P    100
0.707106781186547,1.,0.707106781186547,1.,282.322330470336,           93P    101
-12.3223304703363,0.,264.644660940673,-30.,0.,282.322330470336,       93P    102
-47.6776695296637,0.,300.,-65.3553390593274,0.,317.677669529664,      93P    103
-47.6776695296637,0.,0.,3.14159265358979,0.,0.,0.;                    93P    104
126,4,2,0,0,0,0,-3.14159265358979,-3.14159265358979,                  95P    105
-3.14159265358979,-1.5707963267949,-1.5707963267949,0.,0.,0.,1.,      95P    106
0.707106781186547,1.,0.707106781186547,1.,317.677669529664,           95P    107
-47.6776695296637,0.001,300.,-65.3553390593274,0.001,                 95P    108
282.322330470336,-47.6776695296637,0.001,264.644660940673,-30.,       95P    109
0.001,282.322330470336,-12.3223304703363,0.001,                       95P    110
-3.14159265358979,0.,0.,0.,0.;                                        95P    111
126,1,1,0,0,1,0,0.,0.,100.,100.,1.,1.,-1000.,-500.,0.,-1000.,         97P    112
500.,0.,0.,100.,0.,0.,0.;                                             97P    113
126,1,1,0,0,1,0,0.,0.,0.0001,0.0001,1.,1.,-1000.,-500.,0.,            99P    114
-1000.,-500.,0.001,0.,0.0001,0.,0.,0.;                                99P    115
126,1,1,0,0,1,0,-100.,-100.,0.,0.,1.,1.,-1000.,500.,0.001,           101P    116
-1000.,-500.,0.001,-100.,0.,0.,0.,0.;                                101P    117
126,1,1,0,0,1,0,0.,0.,0.0001,0.0001,1.,1.,-1000.,500.,0.,-1000.,     103P    118
500.,0.001,0.,0.0001,0.,0.,0.;                                       103P    119
126,1,1,0,0,1,0,0.,0.,700.,700.,1.,1.,-1000.,500.,0.,6000.,500.,     105P    120
0.,0.,700.,0.,0.,0.;                                                 105P    121
126,1,1,0,0,1,0,-700.,-700.,0.,0.,1.,1.,6000.,500.,0.001,-1000.,     107P    122
500.,0.001,-700.,0.,0.,0.,0.;                                        107P    123
126,1,1,0,0,1,0,0.,0.,0.0001,0.0001,1.,1.,6000.,500.,0.,6000.,       109P    124
500.,0.001,0.,0.0001,0.,0.,0.;                                       109P    125
126,1,1,0,0,1,0,0.,0.,100.,100.,1.,1.,6000.,500.,0.,6000.,-500.,     111P    126
0.,0.,100.,0.,0.,0.;                                                 111P    127
126,1,1,0,0,1,0,-100.,-100.,0.,0.,1.,1.,6000.,-500.,0.001,6000.,     113P    128
500.,0.001,-100.,0.,0.,0.,0.;                                        113P    129
126,1,1,0,0,1,0,0.,0.,0.0001,0.0001,1.,1.,6000.,-500.,0.,6000.,      115P    130
-500.,0.001,0.,0.0001,0.,0.,0.;                                      115P    131
126,1,1,0,0,1,0,0.,0.,700.,700.,1.,1.,6000.,-500.,0.,-1000.,         117P    132
-500.,0.,0.,700.,0.,0.,0.;                                           117P    133
126,1,1,0,0,1,0,-700.,-700.,0.,0.,1.,1.,-1000.,-500.,0.001,          119P    134
6000.,-500.,0.001,-700.,0.,0.,0.,0.;                                 119P    135
128,1,2,1,2,0,0,0,0,0,0.,0.,3.0835419134135D-6,                      121P    136
3.0835419134135D-6,0.,0.,0.,0.791375176045579,0.791375176045579,     121P    137
0.791375176045579,1.,1.,0.922731756696372,0.922731756696372,1.,      121P    138
1.,25.,-75.,0.001,25.,-75.,0.,150.,-127.214895658934,0.001,150.,     121P    139
-127.214895658934,0.,275.,-75.0000000000001,0.001,275.,              121P    140
-75.0000000000001,0.,0.,3.0835419134135D-6,0.,0.791375176045579;     121P    141
128,1,2,1,2,0,0,0,0,0,0.,0.,1.54535682951854D-6,                     123P    142
1.54535682951854D-6,-6.86276293357287D-18,-6.86276293357287D-18,     123P    143
-6.86276293357287D-18,0.396584056345813,0.396584056345813,           123P    144
0.396584056345813,1.,1.,0.980404469787206,0.980404469787206,1.,      123P    145
1.,25.,-125.,0.,25.,-125.,0.001,155.023312362403,                    123P    146
-125.116561812013,0.,155.023312362403,-125.116561812013,0.001,       123P    147
275.,-75.,0.,275.,-75.,0.001,0.,1.54535682951854D-6,                 123P    148
-6.86276293357287D-18,0.396584056345813;                             123P    149
128,1,4,1,2,0,0,0,0,0,0.,0.,4D-5,4D-5,0.,0.,0.,1.5707963267949,      125P    150
1.5707963267949,3.14159265358979,3.14159265358979,                   125P    151
3.14159265358979,1.,1.,0.707106781186548,0.707106781186548,1.,       125P    152
1.,0.707106781186548,0.707106781186548,1.,1.,25.,-75.,0.,25.,        125P    153
-75.,0.001,4.44089209850063D-15,-75.,0.,4.44089209850063D-15,        125P    154
-75.,0.001,0.,-100.,0.,0.,-100.,0.001,4.44089209850063D-15,          125P    155
-125.,0.,4.44089209850063D-15,-125.,0.001,25.,-125.,0.,25.,          125P    156
-125.,0.001,0.,4D-5,0.,3.14159265358979;                             125P    157
128,1,2,1,2,0,0,0,0,0,0.,0.,3.0835419134135D-6,                      127P    158
3.0835419134135D-6,0.,0.,0.,0.791375176045579,0.791375176045579,     127P    159
0.791375176045579,1.,1.,0.922731756696372,0.922731756696372,1.,      127P    160
1.,282.322330470336,-12.3223304703363,0.001,282.322330470336,        127P    161
-12.3223304703363,0.,407.632184918035,39.1445103786019,0.001,        127P    162
407.632184918035,39.1445103786019,0.,459.099025766973,               127P    163
164.454364826301,0.001,459.099025766973,164.454364826301,0.,0.,      127P    164
3.0835419134135D-6,0.,0.791375176045579;                             127P    165
128,1,2,1,2,0,0,0,0,0,0.,0.,1.54535682951854D-6,                     129P    166
1.54535682951854D-6,-2.19608413874332D-16,-2.19608413874332D-16,     129P    167
-2.19608413874332D-16,0.396584056345813,0.396584056345813,           129P    168
0.396584056345813,1.,1.,0.980404469787205,0.980404469787205,1.,      129P    169
1.,317.677669529664,-47.6776695296638,0.,317.677669529664,           129P    170
-47.6776695296638,0.001,409.700457061157,44.1802747064261,0.,        129P    171
409.700457061157,44.1802747064261,0.001,459.099025766973,            129P    172
164.454364826301,0.,459.099025766973,164.454364826301,0.001,0.,      129P    173
1.54535682951854D-6,-2.19608413874332D-16,0.396584056345813;         129P    174
128,1,4,1,2,0,0,0,0,0,0.,0.,4D-5,4D-5,0.,0.,0.,1.5707963267949,      131P    175
1.5707963267949,3.14159265358979,3.14159265358979,                   131P    176
3.14159265358979,1.,1.,0.707106781186548,0.707106781186548,1.,       131P    177
1.,0.707106781186548,0.707106781186548,1.,1.,282.322330470336,       131P    178
-12.3223304703363,0.,282.322330470336,-12.3223304703363,0.001,       131P    179
264.644660940673,-30.,0.,264.644660940673,-30.,0.001,                131P    180
282.322330470336,-47.6776695296637,0.,282.322330470336,              131P    181
-47.6776695296637,0.001,300.,-65.3553390593274,0.,300.,              131P    182
-65.3553390593274,0.001,317.677669529664,-47.6776695296637,0.,       131P    183
317.677669529664,-47.6776695296637,0.001,0.,4D-5,0.,                 131P    184
3.14159265358979;                                                    131P    185
128,1,1,1,1,0,0,1,0,0,-0.001,-0.001,100.001,100.001,-1D-5,-1D-5,     133P    186
0.00011,0.00011,1.,1.,1.,1.,-1000.,500.01,-0.0001,-1000.,            133P    187
-500.01,-0.0001,-1000.,500.01,0.0011,-1000.,-500.01,0.0011,          133P    188
-0.001,100.001,-1D-5,0.00011;                                        133P    189
128,1,1,1,1,0,0,1,0,0,-0.001,-0.001,700.001,700.001,-1D-5,-1D-5,     135P    190
0.00011,0.00011,1.,1.,1.,1.,6000.01,500.,-0.0001,-1000.01,500.,      135P    191
-0.0001,6000.01,500.,0.0011,-1000.01,500.,0.0011,-0.001,700.001,     135P    192
-1D-5,0.00011;                                                       135P    193
128,1,1,1,1,0,0,1,0,0,-0.001,-0.001,100.001,100.001,-1D-5,-1D-5,     137P    194
0.00011,0.00011,1.,1.,1.,1.,6000.,-500.01,-0.0001,6000.,500.01,      137P    195
-0.0001,6000.,-500.01,0.0011,6000.,500.01,0.0011,-0.001,100.001,     137P    196
-1D-5,0.00011;                                                       137P    197
128,1,1,1,1,0,0,1,0,0,-0.001,-0.001,700.001,700.001,-1D-5,-1D-5,     139P    198
0.00011,0.00011,1.,1.,1.,1.,-1000.01,-500.,-0.0001,6000.01,          139P    199
-500.,-0.0001,-1000.01,-500.,0.0011,6000.01,-500.,0.0011,-0.001,     139P    200
700.001,-1D-5,0.00011;                                               139P    201
128,1,1,1,1,0,0,1,0,0,-350.001,-350.001,350.001,350.001,-50.001,     141P    202
-50.001,50.001,50.001,1.,1.,1.,1.,-1000.01,-500.01,0.001,            141P    203
6000.01,-500.01,0.001,-1000.01,500.01,0.001,6000.01,500.01,          141P    204
0.001,-350.001,350.001,-50.001,50.001;                               141P    205
128,1,1,1,1,0,0,1,0,0,-350.001,-350.001,350.001,350.001,-50.001,     143P    206
-50.001,50.001,50.001,1.,1.,1.,1.,6000.01,-500.01,0.,-1000.01,       143P    207
-500.01,0.,6000.01,500.01,0.,-1000.01,500.01,0.,-350.001,            143P    208
350.001,-50.001,50.001;                                              143P    209
502,20,275.,-75.,0.,25.,-75.,0.,275.,-75.,0.001,25.,-75.,0.001,      145P    210
25.,-125.,0.,25.,-125.,0.001,459.099025766973,164.454364826301,      145P    211
0.,282.322330470336,-12.3223304703363,0.,459.099025766973,           145P    212
164.454364826301,0.001,282.322330470336,-12.3223304703363,0.001,     145P    213
317.677669529664,-47.6776695296637,0.,317.677669529664,              145P    214
-47.6776695296637,0.001,-1000.,-500.,0.,-1000.,500.,0.,-1000.,       145P    215
-500.,0.001,-1000.,500.,0.001,6000.,500.,0.,6000.,500.,0.001,        145P    216
6000.,-500.,0.,6000.,-500.,0.001;                                    145P    217
504,30,61,145,1,145,2,63,145,1,145,3,65,145,4,145,3,67,145,2,        147P    218
145,4,69,145,5,145,1,71,145,5,145,6,73,145,3,145,6,75,145,2,145,     147P    219
5,77,145,6,145,4,79,145,7,145,8,81,145,7,145,9,83,145,10,145,9,      147P    220
85,145,8,145,10,87,145,11,145,7,89,145,11,145,12,91,145,9,145,       147P    221
12,93,145,8,145,11,95,145,12,145,10,97,145,13,145,14,99,145,13,      147P    222
145,15,101,145,16,145,15,103,145,14,145,16,105,145,14,145,17,        147P    223
107,145,18,145,16,109,145,17,145,18,111,145,17,145,19,113,145,       147P    224
20,145,18,115,145,19,145,20,117,145,19,145,13,119,145,15,145,20;     147P    225
406,1,7H본체3;                                                     149P    226
314,62.7450980392157,62.7450980392157,62.7450980392157,15H강철     151P    227
 - 새틴;                                                           151P    228
S      1G      3D    152P    228                                        T      1
