                                                                        S      1
,,16Hrearwing_base v3,10Hrearwing3d,7Hunknown,7Hunknown,32,38,7,99,15,, G      1
1.,6,1HM,1,0.08,15H20240605.214005,1D-5,10000.,7Hunknown,7Hunknown,11,0,G      2
15H20240601.133158;                                                     G      3
     186       1                                                00000000D      1
     186            -141       1       0                               0D      2
     186       2                                                00000000D      3
     186            -141       1       0                               0D      4
     514       3                                                00010000D      5
     514                       1       1                               0D      6
     514       4                                                00010000D      7
     514                       1       1                               0D      8
     510       5                                                00010000D      9
     510            -141       1       1                               0D     10
     510       6                                                00010000D     11
     510            -141       1       1                               0D     12
     510       7                                                00010000D     13
     510            -141       1       1                               0D     14
     510       8                                                00010000D     15
     510            -141       1       1                               0D     16
     510       9                                                00010000D     17
     510            -141       1       1                               0D     18
     510      10                                                00010000D     19
     510            -141       1       1                               0D     20
     510      11                                                00010000D     21
     510            -141       1       1                               0D     22
     510      12                                                00010000D     23
     510            -141       1       1                               0D     24
     510      13                                                00010000D     25
     510            -141       1       1                               0D     26
     510      14                                                00010000D     27
     510            -141       1       1                               0D     28
     510      15                                                00010000D     29
     510            -141       1       1                               0D     30
     510      16                                                00010000D     31
     510            -141       1       1                               0D     32
     508      17                                                00010000D     33
     508                       1       1                               0D     34
     508      18                                                00010000D     35
     508                       1       1                               0D     36
     508      19                                                00010000D     37
     508                       1       1                               0D     38
     508      20                                                00010000D     39
     508                       1       1                               0D     40
     508      21                                                00010000D     41
     508                       1       1                               0D     42
     508      22                                                00010000D     43
     508                       1       1                               0D     44
     508      23                                                00010000D     45
     508                       1       1                               0D     46
     508      24                                                00010000D     47
     508                       1       1                               0D     48
     508      25                                                00010000D     49
     508                       1       1                               0D     50
     508      26                                                00010000D     51
     508                       1       1                               0D     52
     508      27                                                00010000D     53
     508                       1       1                               0D     54
     508      28                                                00010000D     55
     508                       1       1                               0D     56
     126      29                                                00010000D     57
     126       0               4       0                               0D     58
     126      33                                                00010000D     59
     126       0               5       0                               0D     60
     126      38                                                00010000D     61
     126       0               4       0                               0D     62
     126      42                                                00010000D     63
     126       0               7       0                               0D     64
     126      49                                                00010000D     65
     126       0               2       0                               0D     66
     126      51                                                00010000D     67
     126       0               5       0                               0D     68
     126      56                                                00010000D     69
     126       0               2       0                               0D     70
     126      58                                                00010000D     71
     126       0               5       0                               0D     72
     126      63                                                00010000D     73
     126       0               3       0                               0D     74
     126      66                                                00010000D     75
     126       0               7       0                               0D     76
     126      73                                                00010000D     77
     126       0               2       0                               0D     78
     126      75                                                00010000D     79
     126       0               4       0                               0D     80
     126      79                                                00010000D     81
     126       0               7       0                               0D     82
     126      86                                                00010000D     83
     126       0               5       0                               0D     84
     126      91                                                00010000D     85
     126       0               7       0                               0D     86
     126      98                                                00010000D     87
     126       0               6       0                               0D     88
     126     104                                                00010000D     89
     126       0               3       0                               0D     90
     126     107                                                00010000D     91
     126       0               5       0                               0D     92
     126     112                                                00010000D     93
     126       0               3       0                               0D     94
     126     115                                                00010000D     95
     126       0               7       0                               0D     96
     126     122                                                00010000D     97
     126       0               3       0                               0D     98
     126     125                                                00010000D     99
     126       0               6       0                               0D    100
     126     131                                                00010000D    101
     126       0               3       0                               0D    102
     126     134                                                00010000D    103
     126       0               7       0                               0D    104
     128     141                                                00010000D    105
     128       0    -141       7       0                               0D    106
     128     148                                                00010000D    107
     128       0    -141       8       0                               0D    108
     128     156                                                00010000D    109
     128       0    -141       8       0                               0D    110
     128     164                                                00010000D    111
     128       0    -141      12       0                               0D    112
     128     176                                                00010000D    113
     128       0    -141       7       0                               0D    114
     128     183                                                00010000D    115
     128       0    -141       7       0                               0D    116
     128     190                                                00010000D    117
     128       0    -141       7       0                               0D    118
     128     197                                                00010000D    119
     128       0    -141       9       0                               0D    120
     128     206                                                00010000D    121
     128       0    -141      14       0                               0D    122
     128     220                                                00010000D    123
     128       0    -141       9       0                               0D    124
     128     229                                                00010000D    125
     128       0    -141      11       0                               0D    126
     128     240                                                00010000D    127
     128       0    -141       7       0                               0D    128
     502     247                                                00010000D    129
     502                       4       1                               0D    130
     502     251                                                00010000D    131
     502                       6       1                               0D    132
     504     257                                                00010001D    133
     504                       3       1                               0D    134
     504     260                                                00010001D    135
     504                       3       1                               0D    136
     406     263                                                00000000D    137
     406                       1      15                               0D    138
     406     264                                                00000000D    139
     406                       1      15                               0D    140
     314     265                                                00000200D    141
     314                       2       0                               0D    142
186,5,1,0,0,1,137;                                                     1P      1
186,7,1,0,0,1,139;                                                     3P      2
514,6,9,1,11,1,13,1,15,1,17,1,19,1;                                    5P      3
514,6,21,1,23,1,25,1,27,1,29,1,31,1;                                   7P      4
510,105,1,1,33;                                                        9P      5
510,107,1,1,35;                                                       11P      6
510,109,1,1,37;                                                       13P      7
510,111,1,1,39;                                                       15P      8
510,113,1,1,41;                                                       17P      9
510,115,1,1,43;                                                       19P     10
510,117,1,1,45;                                                       21P     11
510,119,1,1,47;                                                       23P     12
510,121,1,1,49;                                                       25P     13
510,123,1,1,51;                                                       27P     14
510,125,1,1,53;                                                       29P     15
510,127,1,1,55;                                                       31P     16
508,4,0,133,1,1,0,0,133,2,1,0,0,133,3,1,0,0,133,4,1,0;                33P     17
508,4,0,133,5,0,0,0,133,6,0,0,0,133,7,0,0,0,133,2,0,0;                35P     18
508,4,0,133,7,1,0,0,133,8,0,0,0,133,9,0,0,0,133,3,0,0;                37P     19
508,4,0,133,9,1,0,0,133,10,0,0,0,133,11,0,0,0,133,4,0,0;              39P     20
508,4,0,133,11,1,0,0,133,12,0,0,0,133,5,1,0,0,133,1,0,0;              41P     21
508,4,0,133,12,1,0,0,133,10,1,0,0,133,8,1,0,0,133,6,1,0;              43P     22
508,4,0,135,1,1,0,0,135,2,1,0,0,135,3,1,0,0,135,4,1,0;                45P     23
508,4,0,135,5,0,0,0,135,6,0,0,0,135,7,0,0,0,135,2,0,0;                47P     24
508,4,0,135,7,1,0,0,135,8,0,0,0,135,9,0,0,0,135,3,0,0;                49P     25
508,4,0,135,9,1,0,0,135,10,0,0,0,135,11,0,0,0,135,4,0,0;              51P     26
508,4,0,135,11,1,0,0,135,12,0,0,0,135,5,1,0,0,135,1,0,0;              53P     27
508,4,0,135,12,1,0,0,135,10,1,0,0,135,8,1,0,0,135,6,1,0;              55P     28
126,2,2,0,0,0,0,-0.330297354829253,-0.330297354829253,                57P     29
-0.330297354829253,0.,0.,0.,1.,0.986393923832145,1.,                  57P     30
0.349999999999999,-0.15,-0.5,0.204166666666667,-0.2,-0.5,0.05,        57P     31
-0.2,-0.5,-0.330297354829253,0.,0.,0.,0.;                             57P     32
126,4,2,0,0,0,0,-3.14159265358979,-3.14159265358979,                  59P     33
-3.14159265358979,-1.5707963267949,-1.5707963267949,0.,0.,0.,1.,      59P     34
0.707106781186548,1.,0.707106781186548,1.,0.05,-0.2,-0.5,0.025,       59P     35
-0.2,-0.5,0.025,-0.175,-0.5,0.025,-0.15,-0.5,0.05,-0.15,-0.5,         59P     36
-3.14159265358979,0.,0.,0.,0.;                                        59P     37
126,2,2,0,0,0,0,0.,0.,0.,0.351517575517033,0.351517575517033,         61P     38
0.351517575517033,1.,0.984594144311636,1.,0.05,-0.15,-0.5,            61P     39
0.199443980080784,-0.173961097152482,-0.5,0.348000005185604,          61P     40
-0.145000006631017,-0.5,0.,0.351517575517033,0.,0.,0.;                61P     41
126,4,2,0,0,0,0,-2.60909302564288,-2.60909302564288,                  63P     42
-2.60909302564288,-1.30454651282144,-1.30454651282144,0.,0.,0.,       63P     43
1.,0.794705998899346,1.,0.794705998899364,1.,0.348000005185604,       63P     44
-0.145000006631017,-0.5,0.350117802744603,-0.144756976822781,         63P     45
-0.5,0.350909494086857,-0.146736207685311,-0.5,                       63P     46
0.351701185429111,-0.148715438547842,-0.5,0.35,-0.15,-0.5,            63P     47
-2.60909302564288,0.,0.,0.,0.;                                        63P     48
126,1,1,0,0,1,0,-50.,-50.,50.,50.,1.,1.,0.05,-0.2,0.5,0.05,-0.2,      65P     49
-0.5,-50.,50.,0.,0.,0.;                                               65P     50
126,4,2,0,0,0,0,0.,0.,0.,1.5707963267949,1.5707963267949,             67P     51
3.14159265358979,3.14159265358979,3.14159265358979,1.,                67P     52
0.707106781186548,1.,0.707106781186548,1.,0.05,-0.15,0.5,0.025,       67P     53
-0.15,0.5,0.025,-0.175,0.5,0.025,-0.2,0.5,0.05,-0.2,0.5,0.,           67P     54
3.14159265358979,0.,0.,0.;                                            67P     55
126,1,1,0,0,1,0,-50.,-50.,50.,50.,1.,1.,0.05,-0.15,-0.5,0.05,         69P     56
-0.15,0.5,-50.,50.,0.,0.,0.;                                          69P     57
126,2,2,0,0,0,0,-0.351517575517033,-0.351517575517033,                71P     58
-0.351517575517033,0.,0.,0.,1.,0.984594144311636,1.,                  71P     59
0.348000005185604,-0.145000006631017,0.5,0.199443980080784,           71P     60
-0.173961097152482,0.5,0.05,-0.15,0.5,-0.351517575517033,0.,0.,       71P     61
0.,0.;                                                                71P     62
126,1,1,0,0,1,0,-50.,-50.,50.,50.,1.,1.,0.348000005185604,            73P     63
-0.145000006631017,-0.5,0.348000005185604,-0.145000006631017,         73P     64
0.5,-50.,50.,0.,0.,0.;                                                73P     65
126,4,2,0,0,0,0,0.,0.,0.,1.30454651282144,1.30454651282144,           75P     66
2.60909302564288,2.60909302564288,2.60909302564288,1.,                75P     67
0.794705998899364,1.,0.794705998899346,1.,0.35,-0.15,0.5,             75P     68
0.351701185429111,-0.148715438547842,0.5,0.350909494086857,           75P     69
-0.146736207685311,0.5,0.350117802744603,-0.144756976822781,0.5,      75P     70
0.348000005185604,-0.145000006631017,0.5,0.,2.60909302564288,0.,      75P     71
0.,0.;                                                                75P     72
126,1,1,0,0,1,0,-50.,-50.,50.,50.,1.,1.,0.35,-0.15,-0.5,0.35,         77P     73
-0.15,0.5,-50.,50.,0.,0.,0.;                                          77P     74
126,2,2,0,0,0,0,0.,0.,0.,0.330297354829253,0.330297354829253,         79P     75
0.330297354829253,1.,0.986393923832145,1.,0.05,-0.2,0.5,              79P     76
0.204166666666667,-0.2,0.5,0.349999999999999,-0.15,0.5,0.,            79P     77
0.330297354829253,0.,0.,0.;                                           79P     78
126,4,2,0,0,0,0,-3.14159265358979,-3.14159265358979,                  81P     79
-3.14159265358979,-1.5707963267949,-1.5707963267949,0.,0.,0.,1.,      81P     80
0.707106781186547,1.,0.707106781186547,1.,0.417677669529664,          81P     81
-0.112677669529664,-0.5,0.4,-0.130355339059327,-0.5,                  81P     82
0.382322330470336,-0.112677669529664,-0.5,0.364644660940673,          81P     83
-0.095,-0.5,0.382322330470336,-0.0773223304703363,-0.5,               81P     84
-3.14159265358979,0.,0.,0.,0.;                                        81P     85
126,2,2,0,0,0,0,0.,0.,0.,0.351517575517033,0.351517575517033,         83P     86
0.351517575517033,1.,0.984594144311648,1.,0.382322330470336,          83P     87
-0.0773223304703363,-0.5,0.504938236474156,0.0114074669711037,        83P     88
-0.5,0.589504625713607,0.136931023207126,-0.5,0.,                     83P     89
0.351517575517033,0.,0.,0.;                                           83P     90
126,4,2,0,0,0,0,-2.60909302564289,-2.60909302564289,                  85P     91
-2.60909302564289,-1.30454651282144,-1.30454651282144,0.,0.,0.,       85P     92
1.,0.794705998899286,1.,0.794705998899393,1.,0.589504625713607,       85P     93
0.136931023207126,-0.5,0.590830286703322,0.138600380247708,-0.5,      85P     94
0.592789624584465,0.137760662999994,-0.5,0.594748962465609,           85P     95
0.13692094575228,-0.5,0.594454364826301,0.134809703885628,-0.5,       85P     96
-2.60909302564289,0.,0.,0.,0.;                                        85P     97
126,2,2,0,0,0,0,-0.330297354829253,-0.330297354829253,                87P     98
-0.330297354829253,-1.06295947614075D-16,-1.06295947614075D-16,       87P     99
-1.06295947614075D-16,1.,0.986393923832138,1.,0.5944543648263,        87P    100
0.134809703885627,-0.5,0.526689964962589,-0.00366537409673775,        87P    101
-0.5,0.417677669529664,-0.112677669529664,-0.5,                       87P    102
-0.330297354829253,-1.06295947614075D-16,0.,0.,0.;                    87P    103
126,1,1,0,0,1,0,-50.,-50.,50.,50.,1.,1.,0.382322330470336,            89P    104
-0.0773223304703363,0.5,0.382322330470336,-0.0773223304703363,        89P    105
-0.5,-50.,50.,0.,0.,0.;                                               89P    106
126,2,2,0,0,0,0,-0.351517575517033,-0.351517575517033,                91P    107
-0.351517575517033,0.,0.,0.,1.,0.984594144311648,1.,                  91P    108
0.589504625713607,0.136931023207126,0.5,0.504938236474156,            91P    109
0.0114074669711037,0.5,0.382322330470336,-0.0773223304703363,         91P    110
0.5,-0.351517575517033,0.,0.,0.,0.;                                   91P    111
126,1,1,0,0,1,0,-50.,-50.,50.,50.,1.,1.,0.589504625713607,            93P    112
0.136931023207126,-0.5,0.589504625713607,0.136931023207126,0.5,       93P    113
-50.,50.,0.,0.,0.;                                                    93P    114
126,4,2,0,0,0,0,0.,0.,0.,1.30454651282144,1.30454651282144,           95P    115
2.60909302564289,2.60909302564289,2.60909302564289,1.,                95P    116
0.794705998899393,1.,0.794705998899286,1.,0.594454364826301,          95P    117
0.134809703885628,0.5,0.594748962465609,0.13692094575228,0.5,         95P    118
0.592789624584465,0.137760662999994,0.5,0.590830286703322,            95P    119
0.138600380247708,0.5,0.589504625713607,0.136931023207126,0.5,        95P    120
0.,2.60909302564289,0.,0.,0.;                                         95P    121
126,1,1,0,0,1,0,-50.,-50.,50.,50.,1.,1.,0.594454364826301,            97P    122
0.134809703885628,-0.5,0.594454364826301,0.134809703885628,0.5,       97P    123
-50.,50.,0.,0.,0.;                                                    97P    124
126,2,2,0,0,0,0,1.06295947614075D-16,1.06295947614075D-16,            99P    125
1.06295947614075D-16,0.330297354829253,0.330297354829253,             99P    126
0.330297354829253,1.,0.986393923832138,1.,0.417677669529664,          99P    127
-0.112677669529664,0.5,0.526689964962589,-0.00366537409673775,        99P    128
0.5,0.5944543648263,0.134809703885627,0.5,1.06295947614075D-16,       99P    129
0.330297354829253,0.,0.,0.;                                           99P    130
126,1,1,0,0,1,0,-50.,-50.,50.,50.,1.,1.,0.417677669529664,           101P    131
-0.112677669529664,-0.5,0.417677669529664,-0.112677669529664,        101P    132
0.5,-50.,50.,0.,0.,0.;                                               101P    133
126,4,2,0,0,0,0,0.,0.,0.,1.5707963267949,1.5707963267949,            103P    134
3.14159265358979,3.14159265358979,3.14159265358979,1.,               103P    135
0.707106781186547,1.,0.707106781186547,1.,0.382322330470336,         103P    136
-0.0773223304703363,0.5,0.364644660940673,-0.095,0.5,                103P    137
0.382322330470336,-0.112677669529664,0.5,0.4,-0.130355339059327,     103P    138
0.5,0.417677669529664,-0.112677669529664,0.5,0.,                     103P    139
3.14159265358979,0.,0.,0.;                                           103P    140
128,1,1,1,1,0,0,1,0,0,-16.3064554662726,-16.3064554662726,           105P    141
16.3656630766385,16.3656630766385,-2.75190952634951,                 105P    142
-2.75190952634951,2.77439279137236,2.77439279137236,1.,1.,1.,1.,     105P    143
0.351711185429111,-0.20001,-0.5,0.02499,-0.20001,-0.5,               105P    144
0.351711185429111,-0.144746976822781,-0.5,0.02499,                   105P    145
-0.144746976822781,-0.5,-16.3064554662726,16.3656630766385,          105P    146
-2.75190952634951,2.77439279137236;                                  105P    147
128,1,4,1,2,0,0,0,0,0,-20.,-20.,20.,20.,0.,0.,0.,                    107P    148
1.5707963267949,1.5707963267949,3.14159265358979,                    107P    149
3.14159265358979,3.14159265358979,1.,1.,0.707106781186548,           107P    150
0.707106781186548,1.,1.,0.707106781186548,0.707106781186548,1.,      107P    151
1.,0.05,-0.15,0.5,0.05,-0.15,-0.5,0.025,-0.15,0.5,0.025,-0.15,       107P    152
-0.5,0.025,-0.175,0.5,0.025,-0.175,-0.5,0.025,-0.2,0.5,0.025,        107P    153
-0.2,-0.5,0.05,-0.2,0.5,0.05,-0.2,-0.5,-20.,20.,0.,                  107P    154
3.14159265358979;                                                    107P    155
128,1,2,1,2,0,0,0,0,0,-0.5866801192372,-0.5866801192372,             109P    156
0.5866801192372,0.5866801192372,0.,0.,0.,0.351517575517033,          109P    157
0.351517575517033,0.351517575517033,1.,1.,0.984594144311644,         109P    158
0.984594144311644,1.,1.,0.05,-0.15,-0.5,0.05,-0.15,0.5,              109P    159
0.199443980080784,-0.173961097152482,-0.5,0.199443980080784,         109P    160
-0.173961097152482,0.5,0.348000005185604,-0.145000006631017,         109P    161
-0.5,0.348000005185604,-0.145000006631017,0.5,-0.5866801192372,      109P    162
0.5866801192372,0.,0.351517575517033;                                109P    163
128,1,4,1,2,0,0,0,0,0,-179.152522146514,-179.152522146514,           111P    164
179.152522146514,179.152522146514,0.,0.,0.,1.30454651282151,         111P    165
1.30454651282151,2.60909302564302,2.60909302564302,                  111P    166
2.60909302564302,1.,1.,0.794705998899288,0.794705998899288,1.,       111P    167
1.,0.794705998899288,0.794705998899288,1.,1.,0.35,-0.15,0.5,         111P    168
0.35,-0.15,-0.5,0.351701185429111,-0.148715438547841,0.5,            111P    169
0.351701185429111,-0.148715438547841,-0.5,0.350909494086857,         111P    170
-0.146736207685311,0.5,0.350909494086857,-0.146736207685311,         111P    171
-0.5,0.350117802744603,-0.144756976822781,0.5,0.350117802744603,     111P    172
-0.144756976822781,-0.5,0.348000005185604,-0.145000006631017,        111P    173
0.5,0.348000005185604,-0.145000006631017,-0.5,-179.152522146514,     111P    174
179.152522146514,0.,2.60909302564302;                                111P    175
128,1,2,1,2,0,0,0,0,0,-0.540540540540541,-0.540540540540541,         113P    176
0.540540540540541,0.540540540540541,0.,0.,0.,0.330297354829254,      113P    177
0.330297354829254,0.330297354829254,1.,1.,0.986393923832144,         113P    178
0.986393923832144,1.,1.,0.05,-0.2,0.5,0.05,-0.2,-0.5,                113P    179
0.204166666666667,-0.2,0.5,0.204166666666667,-0.2,-0.5,0.35,         113P    180
-0.15,0.5,0.35,-0.15,-0.5,-0.540540540540541,0.540540540540541,      113P    181
0.,0.330297354829254;                                                113P    182
128,1,1,1,1,0,0,1,0,0,-16.3064554662726,-16.3064554662726,           115P    183
16.3656630766385,16.3656630766385,-2.75190952634951,                 115P    184
-2.75190952634951,2.77439279137236,2.77439279137236,1.,1.,1.,1.,     115P    185
0.02499,-0.20001,0.5,0.351711185429111,-0.20001,0.5,0.02499,         115P    186
-0.144746976822781,0.5,0.351711185429111,-0.144746976822781,0.5,     115P    187
-16.3064554662726,16.3656630766385,-2.75190952634951,                115P    188
2.77439279137236;                                                    115P    189
128,1,1,1,1,0,0,1,0,0,-12.0105911562907,-12.0105911562907,           117P    190
11.0018389962029,11.0018389962029,-13.9358500595236,                 117P    191
-13.9358500595236,12.96172187118,12.96172187118,1.,1.,1.,1.,         117P    192
0.594758962465609,-0.130365339059327,-0.5,0.364634660940673,         117P    193
-0.130365339059327,-0.5,0.594758962465609,0.138610380247708,         117P    194
-0.5,0.364634660940673,0.138610380247708,-0.5,-12.0105911562907,     117P    195
11.0018389962029,-13.9358500595236,12.96172187118;                   117P    196
128,1,2,1,2,0,0,0,0,0,-0.5866801192372,-0.5866801192372,             119P    197
0.5866801192372,0.5866801192372,0.,0.,0.,0.351517575517033,          119P    198
0.351517575517033,0.351517575517033,1.,1.,0.984594144311644,         119P    199
0.984594144311644,1.,1.,0.382322330470336,-0.0773223304703363,       119P    200
-0.5,0.382322330470336,-0.0773223304703363,0.5,                      119P    201
0.504938236474156,0.0114074669711036,-0.5,0.504938236474156,         119P    202
0.0114074669711036,0.5,0.589504625713608,0.136931023207126,-0.5,     119P    203
0.589504625713608,0.136931023207126,0.5,-0.5866801192372,            119P    204
0.5866801192372,0.,0.351517575517033;                                119P    205
128,1,4,1,2,0,0,0,0,0,-179.152522146514,-179.152522146514,           121P    206
179.152522146514,179.152522146514,-2.48624068758411D-17,             121P    207
-2.48624068758411D-17,-2.48624068758411D-17,1.30454651282145,        121P    208
1.30454651282145,2.6090930256429,2.6090930256429,                    121P    209
2.6090930256429,1.,1.,0.794705998899306,0.794705998899306,1.,1.,     121P    210
0.794705998899306,0.794705998899306,1.,1.,0.594454364826301,         121P    211
0.134809703885628,0.5,0.594454364826301,0.134809703885628,-0.5,      121P    212
0.594748962465609,0.13692094575228,0.5,0.594748962465609,            121P    213
0.13692094575228,-0.5,0.592789624584465,0.137760662999994,0.5,       121P    214
0.592789624584465,0.137760662999994,-0.5,0.590830286703322,          121P    215
0.138600380247708,0.5,0.590830286703322,0.138600380247708,-0.5,      121P    216
0.589504625713607,0.136931023207126,0.5,0.589504625713607,           121P    217
0.136931023207126,-0.5,-179.152522146514,179.152522146514,           121P    218
-2.48624068758411D-17,2.6090930256429;                               121P    219
128,1,2,1,2,0,0,0,0,0,-0.540540540540541,-0.540540540540541,         123P    220
0.540540540540541,0.540540540540541,0.,0.,0.,0.330297354829254,      123P    221
0.330297354829254,0.330297354829254,1.,1.,0.986393923832144,         123P    222
0.986393923832144,1.,1.,0.417677669529664,-0.112677669529664,        123P    223
0.5,0.417677669529664,-0.112677669529664,-0.5,0.52668996496259,      123P    224
-0.00366537409673754,0.5,0.52668996496259,-0.00366537409673754,      123P    225
-0.5,0.594454364826301,0.134809703885628,0.5,0.594454364826301,      123P    226
0.134809703885628,-0.5,-0.540540540540541,0.540540540540541,0.,      123P    227
0.330297354829254;                                                   123P    228
128,1,4,1,2,0,0,0,0,0,-20.,-20.,20.,20.,0.,0.,0.,                    125P    229
1.5707963267949,1.5707963267949,3.14159265358979,                    125P    230
3.14159265358979,3.14159265358979,1.,1.,0.707106781186548,           125P    231
0.707106781186548,1.,1.,0.707106781186548,0.707106781186548,1.,      125P    232
1.,0.382322330470336,-0.0773223304703363,0.5,0.382322330470336,      125P    233
-0.0773223304703363,-0.5,0.364644660940673,-0.095,0.5,               125P    234
0.364644660940673,-0.095,-0.5,0.382322330470336,                     125P    235
-0.112677669529664,0.5,0.382322330470336,-0.112677669529664,         125P    236
-0.5,0.4,-0.130355339059327,0.5,0.4,-0.130355339059327,-0.5,         125P    237
0.417677669529664,-0.112677669529664,0.5,0.417677669529664,          125P    238
-0.112677669529664,-0.5,-20.,20.,0.,3.14159265358979;                125P    239
128,1,1,1,1,0,0,1,0,0,-12.0105911562907,-12.0105911562907,           127P    240
11.0018389962029,11.0018389962029,-13.9358500595236,                 127P    241
-13.9358500595236,12.96172187118,12.96172187118,1.,1.,1.,1.,         127P    242
0.364634660940673,-0.130365339059327,0.5,0.594758962465609,          127P    243
-0.130365339059327,0.5,0.364634660940673,0.138610380247708,0.5,      127P    244
0.594758962465609,0.138610380247708,0.5,-12.0105911562907,           127P    245
11.0018389962029,-13.9358500595236,12.96172187118;                   127P    246
502,8,0.35,-0.15,-0.5,0.05,-0.2,-0.5,0.05,-0.15,-0.5,                129P    247
0.348000005185604,-0.145000006631017,-0.5,0.05,-0.2,0.5,0.05,        129P    248
-0.15,0.5,0.348000005185604,-0.145000006631017,0.5,0.35,-0.15,       129P    249
0.5;                                                                 129P    250
502,8,0.417677669529664,-0.112677669529664,-0.5,                     131P    251
0.382322330470336,-0.0773223304703363,-0.5,0.589504625713607,        131P    252
0.136931023207126,-0.5,0.594454364826301,0.134809703885628,-0.5,     131P    253
0.382322330470336,-0.0773223304703363,0.5,0.589504625713607,         131P    254
0.136931023207126,0.5,0.594454364826301,0.134809703885628,0.5,       131P    255
0.417677669529664,-0.112677669529664,0.5;                            131P    256
504,12,57,129,1,129,2,59,129,2,129,3,61,129,3,129,4,63,129,4,        133P    257
129,1,65,129,5,129,2,67,129,6,129,5,69,129,3,129,6,71,129,7,129,     133P    258
6,73,129,4,129,7,75,129,8,129,7,77,129,1,129,8,79,129,5,129,8;       133P    259
504,12,81,131,1,131,2,83,131,2,131,3,85,131,3,131,4,87,131,4,        135P    260
131,1,89,131,5,131,2,91,131,6,131,5,93,131,3,131,6,95,131,7,131,     135P    261
6,97,131,4,131,7,99,131,8,131,7,101,131,1,131,8,103,131,5,131,8;     135P    262
406,1,7H본체3;                                                     137P    263
406,1,7H본체4;                                                     139P    264
314,62.7450980392157,62.7450980392157,62.7450980392157,15H강철     141P    265
 - 새틴;                                                           141P    266
S      1G      3D    142P    266                                        T      1
