                                                                        S      1
,,16Hrearwing_base v3,16Hrearwing_base v3,7Hunknown,7Hunknown,32,38,7,  G      1
99,15,,1.,6,1HM,1,0.08,15H20240601.223257,1D-5,10000.,7Hunknown,7HunknowG      2
n,11,0,15H20240601.133158;                                              G      3
     186       1                                                00000000D      1
     186            -141       1       0                               0D      2
     186       2                                                00000000D      3
     186            -141       1       0                               0D      4
     514       3                                                00010000D      5
     514                       1       1                               0D      6
     514       4                                                00010000D      7
     514                       1       1                               0D      8
     510       5                                                00010000D      9
     510            -141       1       1                               0D     10
     510       6                                                00010000D     11
     510            -141       1       1                               0D     12
     510       7                                                00010000D     13
     510            -141       1       1                               0D     14
     510       8                                                00010000D     15
     510            -141       1       1                               0D     16
     510       9                                                00010000D     17
     510            -141       1       1                               0D     18
     510      10                                                00010000D     19
     510            -141       1       1                               0D     20
     510      11                                                00010000D     21
     510            -141       1       1                               0D     22
     510      12                                                00010000D     23
     510            -141       1       1                               0D     24
     510      13                                                00010000D     25
     510            -141       1       1                               0D     26
     510      14                                                00010000D     27
     510            -141       1       1                               0D     28
     510      15                                                00010000D     29
     510            -141       1       1                               0D     30
     510      16                                                00010000D     31
     510            -141       1       1                               0D     32
     508      17                                                00010000D     33
     508                       1       1                               0D     34
     508      18                                                00010000D     35
     508                       1       1                               0D     36
     508      19                                                00010000D     37
     508                       1       1                               0D     38
     508      20                                                00010000D     39
     508                       1       1                               0D     40
     508      21                                                00010000D     41
     508                       1       1                               0D     42
     508      22                                                00010000D     43
     508                       1       1                               0D     44
     508      23                                                00010000D     45
     508                       1       1                               0D     46
     508      24                                                00010000D     47
     508                       1       1                               0D     48
     508      25                                                00010000D     49
     508                       1       1                               0D     50
     508      26                                                00010000D     51
     508                       1       1                               0D     52
     508      27                                                00010000D     53
     508                       1       1                               0D     54
     508      28                                                00010000D     55
     508                       1       1                               0D     56
     126      29                                                00010000D     57
     126       0               5       0                               0D     58
     126      34                                                00010000D     59
     126       0               3       0                               0D     60
     126      37                                                00010000D     61
     126       0               5       0                               0D     62
     126      42                                                00010000D     63
     126       0               3       0                               0D     64
     126      45                                                00010000D     65
     126       0               7       0                               0D     66
     126      52                                                00010000D     67
     126       0               7       0                               0D     68
     126      59                                                00010000D     69
     126       0               3       0                               0D     70
     126      62                                                00010000D     71
     126       0               6       0                               0D     72
     126      68                                                00010000D     73
     126       0               6       0                               0D     74
     126      74                                                00010000D     75
     126       0               3       0                               0D     76
     126      77                                                00010000D     77
     126       0               7       0                               0D     78
     126      84                                                00010000D     79
     126       0               7       0                               0D     80
     126      91                                                00010000D     81
     126       0               5       0                               0D     82
     126      96                                                00010000D     83
     126       0               2       0                               0D     84
     126      98                                                00010000D     85
     126       0               5       0                               0D     86
     126     103                                                00010000D     87
     126       0               2       0                               0D     88
     126     105                                                00010000D     89
     126       0               4       0                               0D     90
     126     109                                                00010000D     91
     126       0               5       0                               0D     92
     126     114                                                00010000D     93
     126       0               3       0                               0D     94
     126     117                                                00010000D     95
     126       0               7       0                               0D     96
     126     124                                                00010000D     97
     126       0               7       0                               0D     98
     126     131                                                00010000D     99
     126       0               2       0                               0D    100
     126     133                                                00010000D    101
     126       0               4       0                               0D    102
     126     137                                                00010000D    103
     126       0               4       0                               0D    104
     128     141                                                00010000D    105
     128       0    -141       8       0                               0D    106
     128     149                                                00010000D    107
     128       0    -141      13       0                               0D    108
     128     162                                                00010000D    109
     128       0    -141       8       0                               0D    110
     128     170                                                00010000D    111
     128       0    -141      11       0                               0D    112
     128     181                                                00010000D    113
     128       0    -141       7       0                               0D    114
     128     188                                                00010000D    115
     128       0    -141       7       0                               0D    116
     128     195                                                00010000D    117
     128       0    -141       7       0                               0D    118
     128     202                                                00010000D    119
     128       0    -141       7       0                               0D    120
     128     209                                                00010000D    121
     128       0    -141      11       0                               0D    122
     128     220                                                00010000D    123
     128       0    -141       6       0                               0D    124
     128     226                                                00010000D    125
     128       0    -141       7       0                               0D    126
     128     233                                                00010000D    127
     128       0    -141       7       0                               0D    128
     502     240                                                00010000D    129
     502                       6       1                               0D    130
     502     246                                                00010000D    131
     502                       3       1                               0D    132
     504     249                                                00010001D    133
     504                       3       1                               0D    134
     504     252                                                00010001D    135
     504                       3       1                               0D    136
     406     255                                                00000000D    137
     406                       1      15                               0D    138
     406     256                                                00000000D    139
     406                       1      15                               0D    140
     314     257                                                00000200D    141
     314                       2       0                               0D    142
186,5,1,0,0,1,137;                                                     1P      1
186,7,1,0,0,1,139;                                                     3P      2
514,6,9,1,11,1,13,1,15,1,17,1,19,1;                                    5P      3
514,6,21,1,23,1,25,1,27,1,29,1,31,1;                                   7P      4
510,105,1,1,33;                                                        9P      5
510,107,1,1,35;                                                       11P      6
510,109,1,1,37;                                                       13P      7
510,111,1,1,39;                                                       15P      8
510,113,1,1,41;                                                       17P      9
510,115,1,1,43;                                                       19P     10
510,117,1,1,45;                                                       21P     11
510,119,1,1,47;                                                       23P     12
510,121,1,1,49;                                                       25P     13
510,123,1,1,51;                                                       27P     14
510,125,1,1,53;                                                       29P     15
510,127,1,1,55;                                                       31P     16
508,4,0,133,1,0,0,0,133,2,1,0,0,133,3,0,0,0,133,4,0,0;                33P     17
508,4,0,133,5,1,0,0,133,4,1,0,0,133,6,0,0,0,133,7,0,0;                35P     18
508,4,0,133,8,1,0,0,133,7,1,0,0,133,9,0,0,0,133,10,0,0;               37P     19
508,4,0,133,11,1,0,0,133,10,1,0,0,133,12,0,0,0,133,2,0,0;             39P     20
508,4,0,133,12,1,0,0,133,9,1,0,0,133,6,1,0,0,133,3,1,0;               41P     21
508,4,0,133,11,0,0,0,133,1,1,0,0,133,5,0,0,0,133,8,0,0;               43P     22
508,4,0,135,1,1,0,0,135,2,1,0,0,135,3,0,0,0,135,4,0,0;                45P     23
508,4,0,135,5,0,0,0,135,4,1,0,0,135,6,0,0,0,135,7,0,0;                47P     24
508,4,0,135,8,1,0,0,135,7,1,0,0,135,9,0,0,0,135,10,0,0;               49P     25
508,4,0,135,11,1,0,0,135,10,1,0,0,135,12,0,0,0,135,2,0,0;             51P     26
508,4,0,135,12,1,0,0,135,9,1,0,0,135,6,1,0,0,135,3,1,0;               53P     27
508,4,0,135,11,0,0,0,135,1,0,0,0,135,5,1,0,0,135,8,0,0;               55P     28
126,2,2,0,0,0,0,0.,0.,0.,0.351517575517033,0.351517575517033,         57P     29
0.351517575517033,1.,0.984594144311648,1.,0.382322330470336,          57P     30
-0.0773223304703363,0.,0.504938236474156,0.0114074669711037,0.,       57P     31
0.589504625713607,0.136931023207126,0.,0.,0.351517575517033,0.,       57P     32
0.,0.;                                                                57P     33
126,1,1,0,0,1,0,0.,0.,1.,1.,1.,1.,0.382322330470336,                  59P     34
-0.0773223304703363,0.,0.382322330470336,-0.0773223304703363,         59P     35
0.01,0.,1.,0.,0.,0.;                                                  59P     36
126,2,2,0,0,0,0,-0.351517575517033,-0.351517575517033,                61P     37
-0.351517575517033,0.,0.,0.,1.,0.984594144311648,1.,                  61P     38
0.589504625713607,0.136931023207126,0.01,0.504938236474156,           61P     39
0.0114074669711037,0.01,0.382322330470336,-0.0773223304703363,        61P     40
0.01,-0.351517575517033,0.,0.,0.,0.;                                  61P     41
126,1,1,0,0,1,0,0.,0.,1.,1.,1.,1.,0.589504625713607,                  63P     42
0.136931023207126,0.,0.589504625713607,0.136931023207126,0.01,        63P     43
0.,1.,0.,0.,0.;                                                       63P     44
126,4,2,0,0,0,0,0.,0.,0.,1.30454651282144,1.30454651282144,           65P     45
2.60909302564289,2.60909302564289,2.60909302564289,1.,                65P     46
0.794705998899393,1.,0.794705998899286,1.,0.594454364826301,          65P     47
0.134809703885628,0.,0.594748962465609,0.13692094575228,0.,           65P     48
0.592789624584465,0.137760662999994,0.,0.590830286703322,             65P     49
0.138600380247708,0.,0.589504625713607,0.136931023207126,0.,0.,       65P     50
2.60909302564289,0.,0.,0.;                                            65P     51
126,4,2,0,0,0,0,0.,0.,0.,1.30454651282144,1.30454651282144,           67P     52
2.60909302564289,2.60909302564289,2.60909302564289,1.,                67P     53
0.794705998899393,1.,0.794705998899286,1.,0.594454364826301,          67P     54
0.134809703885628,0.01,0.594748962465609,0.13692094575228,0.01,       67P     55
0.592789624584465,0.137760662999994,0.01,0.590830286703322,           67P     56
0.138600380247708,0.01,0.589504625713607,0.136931023207126,0.01,      67P     57
0.,2.60909302564289,0.,0.,0.;                                         67P     58
126,1,1,0,0,1,0,0.,0.,1.,1.,1.,1.,0.594454364826301,                  69P     59
0.134809703885628,0.,0.594454364826301,0.134809703885628,0.01,        69P     60
0.,1.,0.,0.,0.;                                                       69P     61
126,2,2,0,0,0,0,1.06295947614075D-16,1.06295947614075D-16,            71P     62
1.06295947614075D-16,0.330297354829253,0.330297354829253,             71P     63
0.330297354829253,1.,0.986393923832138,1.,0.417677669529664,          71P     64
-0.112677669529664,0.,0.526689964962589,-0.00366537409673775,0.,      71P     65
0.5944543648263,0.134809703885627,0.,1.06295947614075D-16,            71P     66
0.330297354829253,0.,0.,0.;                                           71P     67
126,2,2,0,0,0,0,1.06295947614075D-16,1.06295947614075D-16,            73P     68
1.06295947614075D-16,0.330297354829253,0.330297354829253,             73P     69
0.330297354829253,1.,0.986393923832138,1.,0.417677669529664,          73P     70
-0.112677669529664,0.01,0.526689964962589,-0.00366537409673775,       73P     71
0.01,0.5944543648263,0.134809703885627,0.01,                          73P     72
1.06295947614075D-16,0.330297354829253,0.,0.,0.;                      73P     73
126,1,1,0,0,1,0,0.,0.,1.,1.,1.,1.,0.417677669529664,                  75P     74
-0.112677669529664,0.,0.417677669529664,-0.112677669529664,0.01,      75P     75
0.,1.,0.,0.,0.;                                                       75P     76
126,4,2,0,0,0,0,0.,0.,0.,1.5707963267949,1.5707963267949,             77P     77
3.14159265358979,3.14159265358979,3.14159265358979,1.,                77P     78
0.707106781186547,1.,0.707106781186547,1.,0.382322330470336,          77P     79
-0.0773223304703363,0.,0.364644660940673,-0.095,0.,                   77P     80
0.382322330470336,-0.112677669529664,0.,0.4,-0.130355339059327,       77P     81
0.,0.417677669529664,-0.112677669529664,0.,0.,3.14159265358979,       77P     82
0.,0.,0.;                                                             77P     83
126,4,2,0,0,0,0,0.,0.,0.,1.5707963267949,1.5707963267949,             79P     84
3.14159265358979,3.14159265358979,3.14159265358979,1.,                79P     85
0.707106781186547,1.,0.707106781186547,1.,0.382322330470336,          79P     86
-0.0773223304703363,0.01,0.364644660940673,-0.095,0.01,               79P     87
0.382322330470336,-0.112677669529664,0.01,0.4,                        79P     88
-0.130355339059327,0.01,0.417677669529664,-0.112677669529664,         79P     89
0.01,0.,3.14159265358979,0.,0.,0.;                                    79P     90
126,4,2,0,0,0,0,0.,0.,0.,1.5707963267949,1.5707963267949,             81P     91
3.14159265358979,3.14159265358979,3.14159265358979,1.,                81P     92
0.707106781186548,1.,0.707106781186548,1.,0.05,-0.15,0.,0.025,        81P     93
-0.15,0.,0.025,-0.175,0.,0.025,-0.2,0.,0.05,-0.2,0.,0.,               81P     94
3.14159265358979,0.,0.,0.;                                            81P     95
126,1,1,0,0,1,0,0.,0.,1.,1.,1.,1.,0.05,-0.2,0.,0.05,-0.2,0.01,        83P     96
0.,1.,0.,0.,0.;                                                       83P     97
126,4,2,0,0,0,0,0.,0.,0.,1.5707963267949,1.5707963267949,             85P     98
3.14159265358979,3.14159265358979,3.14159265358979,1.,                85P     99
0.707106781186548,1.,0.707106781186548,1.,0.05,-0.15,0.01,0.025,      85P    100
-0.15,0.01,0.025,-0.175,0.01,0.025,-0.2,0.01,0.05,-0.2,0.01,0.,       85P    101
3.14159265358979,0.,0.,0.;                                            85P    102
126,1,1,0,0,1,0,0.,0.,1.,1.,1.,1.,0.05,-0.15,0.,0.05,-0.15,0.01,      87P    103
0.,1.,0.,0.,0.;                                                       87P    104
126,2,2,0,0,0,0,0.,0.,0.,0.351517575517033,0.351517575517033,         89P    105
0.351517575517033,1.,0.984594144311636,1.,0.05,-0.15,0.,              89P    106
0.199443980080784,-0.173961097152482,0.,0.348000005185604,            89P    107
-0.145000006631017,0.,0.,0.351517575517033,0.,0.,0.;                  89P    108
126,2,2,0,0,0,0,-0.351517575517033,-0.351517575517033,                91P    109
-0.351517575517033,0.,0.,0.,1.,0.984594144311636,1.,                  91P    110
0.348000005185604,-0.145000006631017,0.01,0.199443980080784,          91P    111
-0.173961097152482,0.01,0.05,-0.15,0.01,-0.351517575517033,0.,        91P    112
0.,0.,0.;                                                             91P    113
126,1,1,0,0,1,0,0.,0.,1.,1.,1.,1.,0.348000005185604,                  93P    114
-0.145000006631017,0.,0.348000005185604,-0.145000006631017,0.01,      93P    115
0.,1.,0.,0.,0.;                                                       93P    116
126,4,2,0,0,0,0,0.,0.,0.,1.30454651282144,1.30454651282144,           95P    117
2.60909302564288,2.60909302564288,2.60909302564288,1.,                95P    118
0.794705998899364,1.,0.794705998899346,1.,0.35,-0.15,0.,              95P    119
0.351701185429111,-0.148715438547842,0.,0.350909494086857,            95P    120
-0.146736207685311,0.,0.350117802744603,-0.144756976822781,0.,        95P    121
0.348000005185604,-0.145000006631017,0.,0.,2.60909302564288,0.,       95P    122
0.,0.;                                                                95P    123
126,4,2,0,0,0,0,0.,0.,0.,1.30454651282144,1.30454651282144,           97P    124
2.60909302564288,2.60909302564288,2.60909302564288,1.,                97P    125
0.794705998899364,1.,0.794705998899346,1.,0.35,-0.15,0.01,            97P    126
0.351701185429111,-0.148715438547842,0.01,0.350909494086857,          97P    127
-0.146736207685311,0.01,0.350117802744603,-0.144756976822781,         97P    128
0.01,0.348000005185604,-0.145000006631017,0.01,0.,                    97P    129
2.60909302564288,0.,0.,0.;                                            97P    130
126,1,1,0,0,1,0,0.,0.,1.,1.,1.,1.,0.35,-0.15,0.,0.35,-0.15,0.01,      99P    131
0.,1.,0.,0.,0.;                                                       99P    132
126,2,2,0,0,0,0,0.,0.,0.,0.330297354829253,0.330297354829253,        101P    133
0.330297354829253,1.,0.986393923832145,1.,0.05,-0.2,0.,              101P    134
0.204166666666667,-0.2,0.,0.349999999999999,-0.15,0.,0.,             101P    135
0.330297354829253,0.,0.,0.;                                          101P    136
126,2,2,0,0,0,0,0.,0.,0.,0.330297354829253,0.330297354829253,        103P    137
0.330297354829253,1.,0.986393923832145,1.,0.05,-0.2,0.01,            103P    138
0.204166666666667,-0.2,0.01,0.349999999999999,-0.15,0.01,0.,         103P    139
0.330297354829253,0.,0.,0.;                                          103P    140
128,1,2,1,2,0,0,0,0,0,0.,0.,0.011733602384744,0.011733602384744,     105P    141
0.,0.,0.,0.351517575517033,0.351517575517033,0.351517575517033,      105P    142
1.,1.,0.984594144311644,0.984594144311644,1.,1.,                     105P    143
0.382322330470336,-0.0773223304703363,0.,0.382322330470336,          105P    144
-0.0773223304703363,0.01,0.504938236474156,0.0114074669711036,       105P    145
0.,0.504938236474156,0.0114074669711036,0.01,0.589504625713608,      105P    146
0.136931023207126,0.,0.589504625713608,0.136931023207126,0.01,       105P    147
0.,0.011733602384744,0.,0.351517575517033;                           105P    148
128,1,4,1,2,0,0,0,0,0,0.,0.,3.58305044293027,3.58305044293027,       107P    149
-2.48624068758411D-17,-2.48624068758411D-17,                         107P    150
-2.48624068758411D-17,1.30454651282145,1.30454651282145,             107P    151
2.6090930256429,2.6090930256429,2.6090930256429,1.,1.,               107P    152
0.794705998899306,0.794705998899306,1.,1.,0.794705998899306,         107P    153
0.794705998899306,1.,1.,0.594454364826301,0.134809703885628,         107P    154
0.01,0.594454364826301,0.134809703885628,0.,0.594748962465609,       107P    155
0.13692094575228,0.01,0.594748962465609,0.13692094575228,0.,         107P    156
0.592789624584465,0.137760662999994,0.01,0.592789624584465,          107P    157
0.137760662999994,0.,0.590830286703322,0.138600380247708,0.01,       107P    158
0.590830286703322,0.138600380247708,0.,0.589504625713607,            107P    159
0.136931023207126,0.01,0.589504625713607,0.136931023207126,0.,       107P    160
0.,3.58305044293027,-2.48624068758411D-17,2.6090930256429;           107P    161
128,1,2,1,2,0,0,0,0,0,0.,0.,0.0108108108108108,                      109P    162
0.0108108108108108,0.,0.,0.,0.330297354829254,0.330297354829254,     109P    163
0.330297354829254,1.,1.,0.986393923832144,0.986393923832144,1.,      109P    164
1.,0.417677669529664,-0.112677669529664,0.01,0.417677669529664,      109P    165
-0.112677669529664,0.,0.52668996496259,-0.00366537409673754,         109P    166
0.01,0.52668996496259,-0.00366537409673754,0.,0.594454364826301,     109P    167
0.134809703885628,0.01,0.594454364826301,0.134809703885628,0.,       109P    168
0.,0.0108108108108108,0.,0.330297354829254;                          109P    169
128,1,4,1,2,0,0,0,0,0,0.,0.,0.4,0.4,0.,0.,0.,1.5707963267949,        111P    170
1.5707963267949,3.14159265358979,3.14159265358979,                   111P    171
3.14159265358979,1.,1.,0.707106781186548,0.707106781186548,1.,       111P    172
1.,0.707106781186548,0.707106781186548,1.,1.,0.382322330470336,      111P    173
-0.0773223304703363,0.01,0.382322330470336,-0.0773223304703363,      111P    174
0.,0.364644660940673,-0.095,0.01,0.364644660940673,-0.095,0.,        111P    175
0.382322330470336,-0.112677669529664,0.01,0.382322330470336,         111P    176
-0.112677669529664,0.,0.4,-0.130355339059327,0.01,0.4,               111P    177
-0.130355339059327,0.,0.417677669529664,-0.112677669529664,0.01,     111P    178
0.417677669529664,-0.112677669529664,0.,0.,0.4,0.,                   111P    179
3.14159265358979;                                                    111P    180
128,1,1,1,1,0,0,1,0,0,-12.0105911562907,-12.0105911562907,           113P    181
11.0018389962029,11.0018389962029,-13.9358500595236,                 113P    182
-13.9358500595236,12.96172187118,12.96172187118,1.,1.,1.,1.,         113P    183
0.364634660940673,-0.130365339059327,0.01,0.594758962465609,         113P    184
-0.130365339059327,0.01,0.364634660940673,0.138610380247708,         113P    185
0.01,0.594758962465609,0.138610380247708,0.01,-12.0105911562907,     113P    186
11.0018389962029,-13.9358500595236,12.96172187118;                   113P    187
128,1,1,1,1,0,0,1,0,0,-12.0105911562907,-12.0105911562907,           115P    188
11.0018389962029,11.0018389962029,-13.9358500595236,                 115P    189
-13.9358500595236,12.96172187118,12.96172187118,1.,1.,1.,1.,         115P    190
0.594758962465609,-0.130365339059327,0.,0.364634660940673,           115P    191
-0.130365339059327,0.,0.594758962465609,0.138610380247708,0.,        115P    192
0.364634660940673,0.138610380247708,0.,-12.0105911562907,            115P    193
11.0018389962029,-13.9358500595236,12.96172187118;                   115P    194
128,1,4,1,2,0,0,0,0,0,0.,0.,0.4,0.4,0.,0.,0.,1.5707963267949,        117P    195
1.5707963267949,3.14159265358979,3.14159265358979,                   117P    196
3.14159265358979,1.,1.,0.707106781186548,0.707106781186548,1.,       117P    197
1.,0.707106781186548,0.707106781186548,1.,1.,0.05,-0.15,0.01,        117P    198
0.05,-0.15,0.,0.025,-0.15,0.01,0.025,-0.15,0.,0.025,-0.175,0.01,     117P    199
0.025,-0.175,0.,0.025,-0.2,0.01,0.025,-0.2,0.,0.05,-0.2,0.01,        117P    200
0.05,-0.2,0.,0.,0.4,0.,3.14159265358979;                             117P    201
128,1,2,1,2,0,0,0,0,0,0.,0.,0.011733602384744,0.011733602384744,     119P    202
0.,0.,0.,0.351517575517033,0.351517575517033,0.351517575517033,      119P    203
1.,1.,0.984594144311644,0.984594144311644,1.,1.,0.05,-0.15,0.,       119P    204
0.05,-0.15,0.01,0.199443980080784,-0.173961097152482,0.,             119P    205
0.199443980080784,-0.173961097152482,0.01,0.348000005185604,         119P    206
-0.145000006631017,0.,0.348000005185604,-0.145000006631017,0.01,     119P    207
0.,0.011733602384744,0.,0.351517575517033;                           119P    208
128,1,4,1,2,0,0,0,0,0,0.,0.,3.58305044293027,3.58305044293027,       121P    209
0.,0.,0.,1.30454651282151,1.30454651282151,2.60909302564302,         121P    210
2.60909302564302,2.60909302564302,1.,1.,0.794705998899288,           121P    211
0.794705998899288,1.,1.,0.794705998899288,0.794705998899288,1.,      121P    212
1.,0.35,-0.15,0.01,0.35,-0.15,0.,0.351701185429111,                  121P    213
-0.148715438547841,0.01,0.351701185429111,-0.148715438547841,0.,     121P    214
0.350909494086857,-0.146736207685311,0.01,0.350909494086857,         121P    215
-0.146736207685311,0.,0.350117802744603,-0.144756976822781,0.01,     121P    216
0.350117802744603,-0.144756976822781,0.,0.348000005185604,           121P    217
-0.145000006631017,0.01,0.348000005185604,-0.145000006631017,0.,     121P    218
0.,3.58305044293027,0.,2.60909302564302;                             121P    219
128,1,2,1,2,0,0,0,0,0,0.,0.,0.0108108108108108,                      123P    220
0.0108108108108108,0.,0.,0.,0.330297354829254,0.330297354829254,     123P    221
0.330297354829254,1.,1.,0.986393923832144,0.986393923832144,1.,      123P    222
1.,0.05,-0.2,0.01,0.05,-0.2,0.,0.204166666666667,-0.2,0.01,          123P    223
0.204166666666667,-0.2,0.,0.35,-0.15,0.01,0.35,-0.15,0.,0.,          123P    224
0.0108108108108108,0.,0.330297354829254;                             123P    225
128,1,1,1,1,0,0,1,0,0,-16.3064554662726,-16.3064554662726,           125P    226
16.3656630766385,16.3656630766385,-2.75190952634951,                 125P    227
-2.75190952634951,2.77439279137236,2.77439279137236,1.,1.,1.,1.,     125P    228
0.02499,-0.20001,0.01,0.351711185429111,-0.20001,0.01,0.02499,       125P    229
-0.144746976822781,0.01,0.351711185429111,-0.144746976822781,        125P    230
0.01,-16.3064554662726,16.3656630766385,-2.75190952634951,           125P    231
2.77439279137236;                                                    125P    232
128,1,1,1,1,0,0,1,0,0,-16.3064554662726,-16.3064554662726,           127P    233
16.3656630766385,16.3656630766385,-2.75190952634951,                 127P    234
-2.75190952634951,2.77439279137236,2.77439279137236,1.,1.,1.,1.,     127P    235
0.351711185429111,-0.20001,0.,0.02499,-0.20001,0.,                   127P    236
0.351711185429111,-0.144746976822781,0.,0.02499,                     127P    237
-0.144746976822781,0.,-16.3064554662726,16.3656630766385,            127P    238
-2.75190952634951,2.77439279137236;                                  127P    239
502,8,0.382322330470336,-0.0773223304703363,0.,                      129P    240
0.589504625713607,0.136931023207126,0.,0.382322330470336,            129P    241
-0.0773223304703363,0.01,0.589504625713607,0.136931023207126,        129P    242
0.01,0.594454364826301,0.134809703885628,0.,0.594454364826301,       129P    243
0.134809703885628,0.01,0.417677669529664,-0.112677669529664,0.,      129P    244
0.417677669529664,-0.112677669529664,0.01;                           129P    245
502,8,0.05,-0.15,0.,0.05,-0.2,0.,0.05,-0.2,0.01,0.05,-0.15,0.01,     131P    246
0.348000005185604,-0.145000006631017,0.,0.348000005185604,           131P    247
-0.145000006631017,0.01,0.35,-0.15,0.,0.35,-0.15,0.01;               131P    248
504,12,57,129,1,129,2,59,129,1,129,3,61,129,4,129,3,63,129,2,        133P    249
129,4,65,129,5,129,2,67,129,6,129,4,69,129,5,129,6,71,129,7,129,     133P    250
5,73,129,8,129,6,75,129,7,129,8,77,129,1,129,7,79,129,3,129,8;       133P    251
504,12,81,131,1,131,2,83,131,2,131,3,85,131,4,131,3,87,131,1,        135P    252
131,4,89,131,1,131,5,91,131,6,131,4,93,131,5,131,6,95,131,7,131,     135P    253
5,97,131,8,131,6,99,131,7,131,8,101,131,2,131,7,103,131,3,131,8;     135P    254
406,1,7H본체1;                                                     137P    255
406,1,7H본체2;                                                     139P    256
314,62.7450980392157,62.7450980392157,62.7450980392157,15H강철     141P    257
 - 새틴;                                                           141P    258
S      1G      3D    142P    258                                        T      1
