                                                                        S      1
,,32Hrear wing_base_0_45_rear_test v2,8Hrearwing,7Hunknown,7Hunknown,32,G      1
38,7,99,15,,1.,2,2HMM,1,0.08,15H20240529.190617,0.01,10000.,7Hunknown,7HG      2
unknown,11,0,15H20240529.100546;                                        G      3
     186       1                                                00000000D      1
     186            -175       1       0                               0D      2
     514       2                                                00010000D      3
     514                       2       1                               0D      4
     510       4                                                00010000D      5
     510            -175       1       1                               0D      6
     510       5                                                00010000D      7
     510            -175       1       1                               0D      8
     510       6                                                00010000D      9
     510            -175       1       1                               0D     10
     510       7                                                00010000D     11
     510            -175       1       1                               0D     12
     510       8                                                00010000D     13
     510            -175       1       1                               0D     14
     510       9                                                00010000D     15
     510            -175       1       1                               0D     16
     510      10                                                00010000D     17
     510            -175       1       1                               0D     18
     510      11                                                00010000D     19
     510            -175       1       1                               0D     20
     510      12                                                00010000D     21
     510            -175       1       1                               0D     22
     510      13                                                00010000D     23
     510            -175       1       1                               0D     24
     510      14                                                00010000D     25
     510            -175       1       1                               0D     26
     510      15                                                00010000D     27
     510            -175       1       1                               0D     28
     510      16                                                00010000D     29
     510            -175       1       1                               0D     30
     510      17                                                00010000D     31
     510            -175       1       1                               0D     32
     508      18                                                00010000D     33
     508                       1       1                               0D     34
     508      19                                                00010000D     35
     508                       1       1                               0D     36
     508      20                                                00010000D     37
     508                       1       1                               0D     38
     508      21                                                00010000D     39
     508                       1       1                               0D     40
     508      22                                                00010000D     41
     508                       1       1                               0D     42
     508      23                                                00010000D     43
     508                       1       1                               0D     44
     508      24                                                00010000D     45
     508                       1       1                               0D     46
     508      25                                                00010000D     47
     508                       1       1                               0D     48
     508      26                                                00010000D     49
     508                       1       1                               0D     50
     508      27                                                00010000D     51
     508                       1       1                               0D     52
     508      28                                                00010000D     53
     508                       1       1                               0D     54
     508      29                                                00010000D     55
     508                       1       1                               0D     56
     508      30                                                00010000D     57
     508                       1       1                               0D     58
     508      31                                                00010000D     59
     508                       1       1                               0D     60
     508      32                                                00010000D     61
     508                       1       1                               0D     62
     508      33                                                00010000D     63
     508                       1       1                               0D     64
     508      34                                                00010000D     65
     508                       1       1                               0D     66
     508      35                                                00010000D     67
     508                       1       1                               0D     68
     126      36                                                00010000D     69
     126       0               6       0                               0D     70
     126      42                                                00010000D     71
     126       0               3       0                               0D     72
     126      45                                                00010000D     73
     126       0               6       0                               0D     74
     126      51                                                00010000D     75
     126       0               3       0                               0D     76
     126      54                                                00010000D     77
     126       0               7       0                               0D     78
     126      61                                                00010000D     79
     126       0               3       0                               0D     80
     126      64                                                00010000D     81
     126       0               7       0                               0D     82
     126      71                                                00010000D     83
     126       0               6       0                               0D     84
     126      77                                                00010000D     85
     126       0               3       0                               0D     86
     126      80                                                00010000D     87
     126       0               6       0                               0D     88
     126      86                                                00010000D     89
     126       0               6       0                               0D     90
     126      92                                                00010000D     91
     126       0               7       0                               0D     92
     126      99                                                00010000D     93
     126       0               7       0                               0D     94
     126     106                                                00010000D     95
     126       0               2       0                               0D     96
     126     108                                                00010000D     97
     126       0               7       0                               0D     98
     126     115                                                00010000D     99
     126       0               2       0                               0D    100
     126     117                                                00010000D    101
     126       0               4       0                               0D    102
     126     121                                                00010000D    103
     126       0               3       0                               0D    104
     126     124                                                00010000D    105
     126       0               4       0                               0D    106
     126     128                                                00010000D    107
     126       0               7       0                               0D    108
     126     135                                                00010000D    109
     126       0               2       0                               0D    110
     126     137                                                00010000D    111
     126       0               7       0                               0D    112
     126     144                                                00010000D    113
     126       0               5       0                               0D    114
     126     149                                                00010000D    115
     126       0               6       0                               0D    116
     126     155                                                00010000D    117
     126       0               2       0                               0D    118
     126     157                                                00010000D    119
     126       0               2       0                               0D    120
     126     159                                                00010000D    121
     126       0               2       0                               0D    122
     126     161                                                00010000D    123
     126       0               2       0                               0D    124
     126     163                                                00010000D    125
     126       0               2       0                               0D    126
     126     165                                                00010000D    127
     126       0               2       0                               0D    128
     126     167                                                00010000D    129
     126       0               2       0                               0D    130
     126     169                                                00010000D    131
     126       0               2       0                               0D    132
     126     171                                                00010000D    133
     126       0               2       0                               0D    134
     126     173                                                00010000D    135
     126       0               2       0                               0D    136
     126     175                                                00010000D    137
     126       0               2       0                               0D    138
     126     177                                                00010000D    139
     126       0               2       0                               0D    140
     128     179                                                00010000D    141
     128       0    -175       9       0                               0D    142
     128     188                                                00010000D    143
     128       0    -175      12       0                               0D    144
     128     200                                                00010000D    145
     128       0    -175       9       0                               0D    146
     128     209                                                00010000D    147
     128       0    -175      11       0                               0D    148
     128     220                                                00010000D    149
     128       0    -175       9       0                               0D    150
     128     229                                                00010000D    151
     128       0    -175       8       0                               0D    152
     128     237                                                00010000D    153
     128       0    -175      12       0                               0D    154
     128     249                                                00010000D    155
     128       0    -175       8       0                               0D    156
     128     257                                                00010000D    157
     128       0    -175       4       0                               0D    158
     128     261                                                00010000D    159
     128       0    -175       4       0                               0D    160
     128     265                                                00010000D    161
     128       0    -175       4       0                               0D    162
     128     269                                                00010000D    163
     128       0    -175       4       0                               0D    164
     128     273                                                00010000D    165
     128       0    -175       4       0                               0D    166
     128     277                                                00010000D    167
     128       0    -175       4       0                               0D    168
     502     281                                                00010000D    169
     502                      11       1                               0D    170
     504     292                                                00010001D    171
     504                      10       1                               0D    172
     406     302                                                00000000D    173
     406                       1      15                               0D    174
     314     303                                                00000200D    175
     314                       2       0                               0D    176
186,3,1,0,0,1,173;                                                     1P      1
514,14,5,1,7,1,9,1,11,1,13,1,15,1,17,1,19,1,21,1,23,1,25,1,27,1,       3P      2
29,1,31,1;                                                             3P      3
510,141,1,1,33;                                                        5P      4
510,143,1,1,35;                                                        7P      5
510,145,1,1,37;                                                        9P      6
510,147,1,1,39;                                                       11P      7
510,149,1,1,41;                                                       13P      8
510,151,1,1,43;                                                       15P      9
510,153,1,1,45;                                                       17P     10
510,155,1,1,47;                                                       19P     11
510,157,1,1,49;                                                       21P     12
510,159,1,1,51;                                                       23P     13
510,161,1,1,53;                                                       25P     14
510,163,1,1,55;                                                       27P     15
510,165,3,1,57,59,61;                                                 29P     16
510,167,3,1,63,65,67;                                                 31P     17
508,4,0,171,1,0,0,0,171,2,1,0,0,171,3,0,0,0,171,4,0,0;                33P     18
508,4,0,171,5,0,0,0,171,6,1,0,0,171,7,0,0,0,171,2,0,0;                35P     19
508,4,0,171,8,0,0,0,171,9,1,0,0,171,10,0,0,0,171,6,0,0;               37P     20
508,4,0,171,11,0,0,0,171,4,1,0,0,171,12,0,0,0,171,9,0,0;              39P     21
508,4,0,171,13,0,0,0,171,14,1,0,0,171,15,0,0,0,171,16,0,0;            41P     22
508,4,0,171,17,0,0,0,171,18,1,0,0,171,19,0,0,0,171,14,0,0;            43P     23
508,4,0,171,20,0,0,0,171,21,1,0,0,171,22,0,0,0,171,18,0,0;            45P     24
508,4,0,171,23,0,0,0,171,16,1,0,0,171,24,0,0,0,171,21,0,0;            47P     25
508,4,0,171,25,0,0,0,171,26,1,0,0,171,27,0,0,0,171,28,0,0;            49P     26
508,4,0,171,29,0,0,0,171,28,1,0,0,171,30,0,0,0,171,31,0,0;            51P     27
508,4,0,171,32,0,0,0,171,31,1,0,0,171,33,0,0,0,171,34,0,0;            53P     28
508,4,0,171,35,0,0,0,171,34,1,0,0,171,36,0,0,0,171,26,0,0;            55P     29
508,4,0,171,36,1,0,0,171,33,1,0,0,171,30,1,0,0,171,27,1,0;            57P     30
508,4,0,171,3,1,0,0,171,7,1,0,0,171,10,1,0,0,171,12,1,0;              59P     31
508,4,0,171,15,1,0,0,171,19,1,0,0,171,22,1,0,0,171,24,1,0;            61P     32
508,4,0,171,35,1,0,0,171,25,1,0,0,171,29,1,0,0,171,32,1,0;            63P     33
508,4,0,171,1,1,0,0,171,11,1,0,0,171,8,1,0,0,171,5,1,0;               65P     34
508,4,0,171,13,1,0,0,171,23,1,0,0,171,20,1,0,0,171,17,1,0;            67P     35
126,2,2,0,0,0,0,-0.588588649829712,-0.588588649829712,                69P     36
-0.588588649829712,1.22387165882532D-16,1.22387165882532D-16,         69P     37
1.22387165882532D-16,1.,0.9570070719396,1.,480.563495496206,          69P     38
167.989900892259,0.,421.26883059589,51.579471974211,0.,               69P     39
307.322330470336,-12.3223304703363,0.,-0.588588649829712,             69P     40
1.22387165882532D-16,0.,0.,0.;                                        69P     41
126,1,1,0,0,1,0,0.,0.,0.0001,0.0001,1.,1.,480.563495496206,           71P     42
167.989900892259,0.,480.563495496206,167.989900892259,0.001,0.,       71P     43
0.0001,0.,0.,0.;                                                      71P     44
126,2,2,0,0,0,0,-1.22387165882532D-16,-1.22387165882532D-16,          73P     45
-1.22387165882532D-16,0.588588649829712,0.588588649829712,            73P     46
0.588588649829712,1.,0.9570070719396,1.,307.322330470336,             73P     47
-12.3223304703363,0.001,421.26883059589,51.579471974211,0.001,        73P     48
480.563495496206,167.989900892259,0.001,-1.22387165882532D-16,        73P     49
0.588588649829712,0.,0.,0.;                                           73P     50
126,1,1,0,0,1,0,0.,0.,0.0001,0.0001,1.,1.,307.322330470336,           75P     51
-12.3223304703363,0.,307.322330470336,-12.3223304703363,0.001,        75P     52
0.,0.0001,0.,0.,0.;                                                   75P     53
126,4,2,0,0,0,0,0.,0.,0.,1.08084040300282,1.08084040300282,           77P     54
2.16168080600564,2.16168080600564,2.16168080600564,1.,                77P     55
0.857492564932205,1.,0.857492564932061,1.,484.099025766973,           77P     56
164.454364826301,0.,484.594004440837,166.080710352431,0.,             77P     57
483.391923137252,167.282793626382,0.,482.189841833667,                77P     58
168.484876900334,0.,480.563495496206,167.989900892259,0.,0.,          77P     59
2.16168080600564,0.,0.,0.;                                            77P     60
126,1,1,0,0,1,0,0.,0.,0.0001,0.0001,1.,1.,484.099025766973,           79P     61
164.454364826301,0.,484.099025766973,164.454364826301,0.001,0.,       79P     62
0.0001,0.,0.,0.;                                                      79P     63
126,4,2,0,0,0,0,-2.16168080600564,-2.16168080600564,                  81P     64
-2.16168080600564,-1.08084040300282,-1.08084040300282,0.,0.,0.,       81P     65
1.,0.857492564932061,1.,0.857492564932205,1.,480.563495496206,        81P     66
167.989900892259,0.001,482.189841833667,168.484876900334,0.001,       81P     67
483.391923137252,167.282793626382,0.001,484.594004440837,             81P     68
166.080710352431,0.001,484.099025766973,164.454364826301,0.001,       81P     69
-2.16168080600564,0.,0.,0.,0.;                                        81P     70
126,2,2,0,0,0,0,-1.08599475904139D-16,-1.08599475904139D-16,          83P     71
-1.08599475904139D-16,0.396584056345813,0.396584056345813,            83P     72
0.396584056345813,1.,0.98040446978721,1.,342.677669529664,            83P     73
-47.6776695296637,0.,434.700457061157,44.1802747064261,0.,            83P     74
484.099025766973,164.454364826301,0.,-1.08599475904139D-16,           83P     75
0.396584056345813,0.,0.,0.;                                           83P     76
126,1,1,0,0,1,0,0.,0.,0.0001,0.0001,1.,1.,342.677669529664,           85P     77
-47.6776695296637,0.,342.677669529664,-47.6776695296637,0.001,        85P     78
0.,0.0001,0.,0.,0.;                                                   85P     79
126,2,2,0,0,0,0,-0.396584056345813,-0.396584056345813,                87P     80
-0.396584056345813,1.08599475904139D-16,1.08599475904139D-16,         87P     81
1.08599475904139D-16,1.,0.98040446978721,1.,484.099025766973,         87P     82
164.454364826301,0.001,434.700457061157,44.1802747064261,0.001,       87P     83
342.677669529664,-47.6776695296637,0.001,-0.396584056345813,          87P     84
1.08599475904139D-16,0.,0.,0.;                                        87P     85
126,4,2,0,0,0,0,0.,0.,0.,1.5707963267949,1.5707963267949,             89P     86
3.14159265358979,3.14159265358979,3.14159265358979,1.,                89P     87
0.707106781186547,1.,0.707106781186547,1.,307.322330470336,           89P     88
-12.3223304703363,0.,289.644660940673,-30.,0.,307.322330470336,       89P     89
-47.6776695296637,0.,325.,-65.3553390593274,0.,342.677669529664,      89P     90
-47.6776695296637,0.,0.,3.14159265358979,0.,0.,0.;                    89P     91
126,4,2,0,0,0,0,-3.14159265358979,-3.14159265358979,                  91P     92
-3.14159265358979,-1.5707963267949,-1.5707963267949,0.,0.,0.,1.,      91P     93
0.707106781186547,1.,0.707106781186547,1.,342.677669529664,           91P     94
-47.6776695296637,0.001,325.,-65.3553390593274,0.001,                 91P     95
307.322330470336,-47.6776695296637,0.001,289.644660940673,-30.,       91P     96
0.001,307.322330470336,-12.3223304703363,0.001,                       91P     97
-3.14159265358979,0.,0.,0.,0.;                                        91P     98
126,4,2,0,0,0,0,-7.105427357601D-16,-7.105427357601D-16,              93P     99
-7.105427357601D-16,1.5707963267949,1.5707963267949,                  93P    100
3.14159265358979,3.14159265358979,3.14159265358979,1.,                93P    101
0.707106781186546,1.,0.707106781186548,1.,25.,-75.,0.,                93P    102
1.29778575203438D-14,-75.,0.,0.,-100.,0.,-1.29778575203438D-14,       93P    103
-125.,0.,25.,-125.,0.,-7.105427357601D-16,3.14159265358979,0.,        93P    104
0.,0.;                                                                93P    105
126,1,1,0,0,1,0,0.,0.,0.0001,0.0001,1.,1.,25.,-75.,0.,25.,-75.,       95P    106
0.001,0.,0.0001,0.,0.,0.;                                             95P    107
126,4,2,0,0,0,0,-3.14159265358979,-3.14159265358979,                  97P    108
-3.14159265358979,-1.5707963267949,-1.5707963267949,                  97P    109
7.105427357601D-16,7.105427357601D-16,7.105427357601D-16,1.,          97P    110
0.707106781186548,1.,0.707106781186546,1.,25.,-125.,0.001,            97P    111
-1.29778575203438D-14,-125.,0.001,0.,-100.,0.001,                     97P    112
1.29778575203438D-14,-75.,0.001,25.,-75.,0.001,                       97P    113
-3.14159265358979,7.105427357601D-16,0.,0.,0.;                        97P    114
126,1,1,0,0,1,0,0.,0.,0.0001,0.0001,1.,1.,25.,-125.,0.,25.,           99P    115
-125.,0.001,0.,0.0001,0.,0.,0.;                                       99P    116
126,2,2,0,0,0,0,-0.588588649829711,-0.588588649829711,               101P    117
-0.588588649829711,0.,0.,0.,1.,0.957007071939602,1.,                 101P    118
275.000004097819,-70.0000010430812,0.,150.757740769835,              101P    119
-110.38694509267,0.,25.,-75.,0.,-0.588588649829711,0.,0.,0.,0.;      101P    120
126,1,1,0,0,1,0,0.,0.,0.0001,0.0001,1.,1.,275.000004097819,          103P    121
-70.0000010430813,0.,275.000004097819,-70.0000010430813,0.001,       103P    122
0.,0.0001,0.,0.,0.;                                                  103P    123
126,2,2,0,0,0,0,0.,0.,0.,0.588588649829711,0.588588649829711,        105P    124
0.588588649829711,1.,0.957007071939602,1.,25.,-75.,0.001,            105P    125
150.757740769835,-110.38694509267,0.001,275.000004097819,            105P    126
-70.0000010430812,0.001,0.,0.588588649829711,0.,0.,0.;               105P    127
126,4,2,0,0,0,0,0.,0.,0.,1.08084040300284,1.08084040300284,          107P    128
2.16168080600567,2.16168080600567,2.16168080600567,1.,               107P    129
0.857492564932052,1.,0.857492564932037,1.,275.,-75.,0.,              107P    130
276.500002726911,-74.2000028267531,0.,276.500004120171,              107P    131
-72.5000017508884,0.,276.50000551343,-70.8000006750237,0.,           107P    132
275.000004097819,-70.0000010430813,0.,0.,2.16168080600567,0.,0.,     107P    133
0.;                                                                  107P    134
126,1,1,0,0,1,0,0.,0.,0.0001,0.0001,1.,1.,275.,-75.,0.,275.,         109P    135
-75.,0.001,0.,0.0001,0.,0.,0.;                                       109P    136
126,4,2,0,0,0,0,-2.16168080600567,-2.16168080600567,                 111P    137
-2.16168080600567,-1.08084040300284,-1.08084040300284,0.,0.,0.,      111P    138
1.,0.857492564932037,1.,0.857492564932052,1.,275.000004097819,       111P    139
-70.0000010430813,0.001,276.50000551343,-70.8000006750237,0.001,     111P    140
276.500004120171,-72.5000017508884,0.001,276.500002726911,           111P    141
-74.2000028267531,0.001,275.,-75.,0.001,-2.16168080600567,0.,0.,     111P    142
0.,0.;                                                               111P    143
126,2,2,0,0,0,0,-6.8935214196963D-18,-6.8935214196963D-18,           113P    144
-6.8935214196963D-18,0.396584056345813,0.396584056345813,            113P    145
0.396584056345813,1.,0.980404469787216,1.,25.,-125.,0.,              113P    146
155.023312362403,-125.116561812013,0.,275.,-74.9999999999999,0.,     113P    147
-6.8935214196963D-18,0.396584056345813,0.,0.,0.;                     113P    148
126,2,2,0,0,0,0,-0.396584056345813,-0.396584056345813,               115P    149
-0.396584056345813,6.8935214196963D-18,6.8935214196963D-18,          115P    150
6.8935214196963D-18,1.,0.980404469787216,1.,275.,                    115P    151
-74.9999999999999,0.001,155.023312362403,-125.116561812013,          115P    152
0.001,25.,-125.,0.001,-0.396584056345813,6.8935214196963D-18,0.,     115P    153
0.,0.;                                                               115P    154
126,1,1,0,0,1,0,0.,0.,100.,100.,1.,1.,-1000.,-500.,0.,-1000.,        117P    155
500.,0.,0.,100.,0.,0.,0.;                                            117P    156
126,1,1,0,0,1,0,0.,0.,0.0001,0.0001,1.,1.,-1000.,-500.,0.,           119P    157
-1000.,-500.,0.001,0.,0.0001,0.,0.,0.;                               119P    158
126,1,1,0,0,1,0,-100.,-100.,0.,0.,1.,1.,-1000.,500.,0.001,           121P    159
-1000.,-500.,0.001,-100.,0.,0.,0.,0.;                                121P    160
126,1,1,0,0,1,0,0.,0.,0.0001,0.0001,1.,1.,-1000.,500.,0.,-1000.,     123P    161
500.,0.001,0.,0.0001,0.,0.,0.;                                       123P    162
126,1,1,0,0,1,0,0.,0.,700.,700.,1.,1.,-1000.,500.,0.,6000.,500.,     125P    163
0.,0.,700.,0.,0.,0.;                                                 125P    164
126,1,1,0,0,1,0,-700.,-700.,0.,0.,1.,1.,6000.,500.,0.001,-1000.,     127P    165
500.,0.001,-700.,0.,0.,0.,0.;                                        127P    166
126,1,1,0,0,1,0,0.,0.,0.0001,0.0001,1.,1.,6000.,500.,0.,6000.,       129P    167
500.,0.001,0.,0.0001,0.,0.,0.;                                       129P    168
126,1,1,0,0,1,0,0.,0.,100.,100.,1.,1.,6000.,500.,0.,6000.,-500.,     131P    169
0.,0.,100.,0.,0.,0.;                                                 131P    170
126,1,1,0,0,1,0,-100.,-100.,0.,0.,1.,1.,6000.,-500.,0.001,6000.,     133P    171
500.,0.001,-100.,0.,0.,0.,0.;                                        133P    172
126,1,1,0,0,1,0,0.,0.,0.0001,0.0001,1.,1.,6000.,-500.,0.,6000.,      135P    173
-500.,0.001,0.,0.0001,0.,0.,0.;                                      135P    174
126,1,1,0,0,1,0,0.,0.,700.,700.,1.,1.,6000.,-500.,0.,-1000.,         137P    175
-500.,0.,0.,700.,0.,0.,0.;                                           137P    176
126,1,1,0,0,1,0,-700.,-700.,0.,0.,1.,1.,-1000.,-500.,0.001,          139P    177
6000.,-500.,0.001,-700.,0.,0.,0.,0.;                                 139P    178
128,1,2,1,2,0,0,0,0,0,0.,0.,2.32005268887061D-6,                     141P    179
2.32005268887061D-6,-8.24248292328851D-17,-8.24248292328851D-17,     141P    180
-8.24248292328851D-17,0.588588649829712,0.588588649829712,           141P    181
0.588588649829712,1.,1.,0.9570070719396,0.9570070719396,1.,1.,       141P    182
307.322330470336,-12.3223304703363,0.001,307.322330470336,           141P    183
-12.3223304703363,0.,421.26883059589,51.579471974211,0.001,          141P    184
421.26883059589,51.579471974211,0.,480.563495496206,                 141P    185
167.989900892259,0.001,480.563495496206,167.989900892259,0.,0.,      141P    186
2.32005268887061D-6,-8.24248292328851D-17,0.588588649829712;         141P    187
128,1,4,1,2,0,0,0,0,0,0.,0.,0.000352941514092243,                    143P    188
0.000352941514092243,0.,0.,0.,1.08084040300282,1.08084040300282,     143P    189
2.16168080600564,2.16168080600564,2.16168080600564,1.,1.,            143P    190
0.857492564932049,0.857492564932049,1.,1.,0.857492564932049,         143P    191
0.857492564932049,1.,1.,484.099025766973,164.454364826301,0.,        143P    192
484.099025766973,164.454364826301,0.001,484.594004440837,            143P    193
166.080710352431,0.,484.594004440837,166.080710352431,0.001,         143P    194
483.391923137252,167.282793626382,0.,483.391923137252,               143P    195
167.282793626382,0.001,482.189841833667,168.484876900334,0.,         143P    196
482.189841833667,168.484876900334,0.001,480.563495496206,            143P    197
167.989900892259,0.,480.563495496206,167.989900892259,0.001,0.,      143P    198
0.000352941514092243,0.,2.16168080600564;                            143P    199
128,1,2,1,2,0,0,0,0,0,0.,0.,1.54535682951854D-6,                     145P    200
1.54535682951854D-6,-1.09804206937166D-16,-1.09804206937166D-16,     145P    201
-1.09804206937166D-16,0.396584056345813,0.396584056345813,           145P    202
0.396584056345813,1.,1.,0.980404469787206,0.980404469787206,1.,      145P    203
1.,342.677669529664,-47.6776695296636,0.,342.677669529664,           145P    204
-47.6776695296636,0.001,434.700457061157,44.1802747064262,0.,        145P    205
434.700457061157,44.1802747064262,0.001,484.099025766973,            145P    206
164.454364826301,0.,484.099025766973,164.454364826301,0.001,0.,      145P    207
1.54535682951854D-6,-1.09804206937166D-16,0.396584056345813;         145P    208
128,1,4,1,2,0,0,0,0,0,0.,0.,4D-5,4D-5,0.,0.,0.,1.5707963267949,      147P    209
1.5707963267949,3.14159265358979,3.14159265358979,                   147P    210
3.14159265358979,1.,1.,0.707106781186548,0.707106781186548,1.,       147P    211
1.,0.707106781186548,0.707106781186548,1.,1.,307.322330470336,       147P    212
-12.3223304703363,0.,307.322330470336,-12.3223304703363,0.001,       147P    213
289.644660940673,-30.,0.,289.644660940673,-30.,0.001,                147P    214
307.322330470336,-47.6776695296637,0.,307.322330470336,              147P    215
-47.6776695296637,0.001,325.,-65.3553390593274,0.,325.,              147P    216
-65.3553390593274,0.001,342.677669529664,-47.6776695296637,0.,       147P    217
342.677669529664,-47.6776695296637,0.001,0.,4D-5,0.,                 147P    218
3.14159265358979;                                                    147P    219
128,1,4,1,2,0,0,0,0,0,0.,0.,4D-5,4D-5,-7.105427357601D-16,           149P    220
-7.105427357601D-16,-7.105427357601D-16,1.5707963267949,             149P    221
1.5707963267949,3.14159265358979,3.14159265358979,                   149P    222
3.14159265358979,1.,1.,0.707106781186547,0.707106781186547,1.,       149P    223
1.,0.707106781186547,0.707106781186547,1.,1.,25.,-75.,0.,25.,        149P    224
-75.,0.001,-4.44089209850063D-15,-75.,0.,-4.44089209850063D-15,      149P    225
-75.,0.001,0.,-100.,0.,0.,-100.,0.001,-4.44089209850063D-15,         149P    226
-125.,0.,-4.44089209850063D-15,-125.,0.001,25.,-125.,0.,25.,         149P    227
-125.,0.001,0.,4D-5,-7.105427357601D-16,3.14159265358979;            149P    228
128,1,2,1,2,0,0,0,0,0,0.,0.,2.32005268887061D-6,                     151P    229
2.32005268887061D-6,4.12124146164425D-17,4.12124146164425D-17,       151P    230
4.12124146164425D-17,0.588588649829711,0.588588649829711,            151P    231
0.588588649829711,1.,1.,0.9570070719396,0.9570070719396,1.,1.,       151P    232
25.,-75.,0.001,25.,-75.,0.,150.757740769835,-110.38694509267,        151P    233
0.001,150.757740769835,-110.38694509267,0.,275.000004097819,         151P    234
-70.0000010430813,0.001,275.000004097819,-70.0000010430813,0.,       151P    235
0.,2.32005268887061D-6,4.12124146164425D-17,0.588588649829711;       151P    236
128,1,4,1,2,0,0,0,0,0,0.,0.,0.000352941514092243,                    153P    237
0.000352941514092243,0.,0.,0.,1.08084040300284,1.08084040300284,     153P    238
2.16168080600567,2.16168080600567,2.16168080600567,1.,1.,            153P    239
0.857492564932046,0.857492564932046,1.,1.,0.857492564932046,         153P    240
0.857492564932046,1.,1.,275.,-75.,0.,275.,-75.,0.001,                153P    241
276.500002726911,-74.2000028267531,0.,276.500002726911,              153P    242
-74.2000028267531,0.001,276.500004120171,-72.5000017508884,0.,       153P    243
276.500004120171,-72.5000017508884,0.001,276.50000551343,            153P    244
-70.8000006750237,0.,276.50000551343,-70.8000006750237,0.001,        153P    245
275.000004097819,-70.0000010430813,0.,275.000004097819,              153P    246
-70.0000010430813,0.001,0.,0.000352941514092243,0.,                  153P    247
2.16168080600567;                                                    153P    248
128,1,2,1,2,0,0,0,0,0,0.,0.,1.54535682951854D-6,                     155P    249
1.54535682951854D-6,-6.86276293357287D-18,-6.86276293357287D-18,     155P    250
-6.86276293357287D-18,0.396584056345813,0.396584056345813,           155P    251
0.396584056345813,1.,1.,0.980404469787206,0.980404469787206,1.,      155P    252
1.,25.,-125.,0.,25.,-125.,0.001,155.023312362403,                    155P    253
-125.116561812013,0.,155.023312362403,-125.116561812013,0.001,       155P    254
275.,-74.9999999999999,0.,275.,-74.9999999999999,0.001,0.,           155P    255
1.54535682951854D-6,-6.86276293357287D-18,0.396584056345813;         155P    256
128,1,1,1,1,0,0,1,0,0,-0.001,-0.001,100.001,100.001,-1D-5,-1D-5,     157P    257
0.00011,0.00011,1.,1.,1.,1.,-1000.,500.01,-0.0001,-1000.,            157P    258
-500.01,-0.0001,-1000.,500.01,0.0011,-1000.,-500.01,0.0011,          157P    259
-0.001,100.001,-1D-5,0.00011;                                        157P    260
128,1,1,1,1,0,0,1,0,0,-0.001,-0.001,700.001,700.001,-1D-5,-1D-5,     159P    261
0.00011,0.00011,1.,1.,1.,1.,6000.01,500.,-0.0001,-1000.01,500.,      159P    262
-0.0001,6000.01,500.,0.0011,-1000.01,500.,0.0011,-0.001,700.001,     159P    263
-1D-5,0.00011;                                                       159P    264
128,1,1,1,1,0,0,1,0,0,-0.001,-0.001,100.001,100.001,-1D-5,-1D-5,     161P    265
0.00011,0.00011,1.,1.,1.,1.,6000.,-500.01,-0.0001,6000.,500.01,      161P    266
-0.0001,6000.,-500.01,0.0011,6000.,500.01,0.0011,-0.001,100.001,     161P    267
-1D-5,0.00011;                                                       161P    268
128,1,1,1,1,0,0,1,0,0,-0.001,-0.001,700.001,700.001,-1D-5,-1D-5,     163P    269
0.00011,0.00011,1.,1.,1.,1.,-1000.01,-500.,-0.0001,6000.01,          163P    270
-500.,-0.0001,-1000.01,-500.,0.0011,6000.01,-500.,0.0011,-0.001,     163P    271
700.001,-1D-5,0.00011;                                               163P    272
128,1,1,1,1,0,0,1,0,0,-350.001,-350.001,350.001,350.001,-50.001,     165P    273
-50.001,50.001,50.001,1.,1.,1.,1.,-1000.01,-500.01,0.001,            165P    274
6000.01,-500.01,0.001,-1000.01,500.01,0.001,6000.01,500.01,          165P    275
0.001,-350.001,350.001,-50.001,50.001;                               165P    276
128,1,1,1,1,0,0,1,0,0,-350.001,-350.001,350.001,350.001,-50.001,     167P    277
-50.001,50.001,50.001,1.,1.,1.,1.,6000.01,-500.01,0.,-1000.01,       167P    278
-500.01,0.,6000.01,500.01,0.,-1000.01,500.01,0.,-350.001,            167P    279
350.001,-50.001,50.001;                                              167P    280
502,24,480.563495496206,167.989900892259,0.,307.322330470336,        169P    281
-12.3223304703363,0.,480.563495496206,167.989900892259,0.001,        169P    282
307.322330470336,-12.3223304703363,0.001,484.099025766973,           169P    283
164.454364826301,0.,484.099025766973,164.454364826301,0.001,         169P    284
342.677669529664,-47.6776695296637,0.,342.677669529664,              169P    285
-47.6776695296637,0.001,25.,-75.,0.,25.,-125.,0.,25.,-75.,0.001,     169P    286
25.,-125.,0.001,275.000004097819,-70.0000010430813,0.,               169P    287
275.000004097819,-70.0000010430813,0.001,275.,-75.,0.,275.,-75.,     169P    288
0.001,-1000.,-500.,0.,-1000.,500.,0.,-1000.,-500.,0.001,-1000.,      169P    289
500.,0.001,6000.,500.,0.,6000.,500.,0.001,6000.,-500.,0.,6000.,      169P    290
-500.,0.001;                                                         169P    291
504,36,69,169,1,169,2,71,169,1,169,3,73,169,4,169,3,75,169,2,        171P    292
169,4,77,169,5,169,1,79,169,5,169,6,81,169,3,169,6,83,169,7,169,     171P    293
5,85,169,7,169,8,87,169,6,169,8,89,169,2,169,7,91,169,8,169,4,       171P    294
93,169,9,169,10,95,169,9,169,11,97,169,12,169,11,99,169,10,169,      171P    295
12,101,169,13,169,9,103,169,13,169,14,105,169,11,169,14,107,169,     171P    296
15,169,13,109,169,15,169,16,111,169,14,169,16,113,169,10,169,15,     171P    297
115,169,16,169,12,117,169,17,169,18,119,169,17,169,19,121,169,       171P    298
20,169,19,123,169,18,169,20,125,169,18,169,21,127,169,22,169,20,     171P    299
129,169,21,169,22,131,169,21,169,23,133,169,24,169,22,135,169,       171P    300
23,169,24,137,169,23,169,17,139,169,19,169,24;                       171P    301
406,1,7H본체4;                                                     173P    302
314,62.7450980392157,62.7450980392157,62.7450980392157,15H강철     175P    303
 - 새틴;                                                           175P    304
S      1G      3D    176P    304                                        T      1
